<svg width="189.839" height="63" viewBox="0 0 50.228 16.669" xml:space="preserve" xmlns:xlink="http://www.w3.org/1999/xlink" xmlns="http://www.w3.org/2000/svg"><defs><path d="M1.031 0v-8.516h5.11v.922H2.062v2.875H5.75v.907H2.062V0Zm0 0" id="b"/><path d="M3.578.14C2.961.14 2.43.005 1.984-.265a2.742 2.742 0 0 1-1.03-1.156C.71-1.91.593-2.484.593-3.14c0-.656.117-1.234.36-1.734.237-.5.57-.89 1-1.172.437-.281.94-.422 1.515-.422.332 0 .66.059.984.172.332.106.629.281.89.531.27.25.485.579.641.985.157.406.235.906.235 1.5v.422H1.297v-.844h3.922c0-.363-.074-.688-.219-.969a1.5 1.5 0 0 0-.61-.656 1.704 1.704 0 0 0-.921-.25c-.387 0-.727.094-1.016.281a1.91 1.91 0 0 0-.656.75c-.149.313-.219.64-.219.984V-3c0 .492.082.902.25 1.234.164.336.399.59.703.766.301.168.649.25 1.047.25.25 0 .477-.035.688-.11.218-.07.398-.18.546-.328.157-.144.274-.332.36-.562l.953.266a2.23 2.23 0 0 1-.516.859c-.23.242-.523.43-.875.563-.343.132-.73.203-1.156.203zm0 0" id="c"/><path d="M2.188-4.64v-3.5h.765v3.5zM.734-6.017v-.75h3.672v.75zm0 0" id="d"/><path d="M.578-4.25v-.656l1.953-1.719c.188-.176.344-.332.469-.469.133-.133.234-.265.297-.39.07-.133.11-.27.11-.407a.709.709 0 0 0-.298-.593 1.119 1.119 0 0 0-.703-.22c-.293 0-.531.079-.719.235a.776.776 0 0 0-.28.625h-.86c0-.476.176-.86.531-1.14.352-.29.8-.438 1.344-.438.363 0 .687.07.969.203.28.125.492.305.64.531.157.231.235.493.235.782 0 .218-.047.43-.141.625-.086.199-.227.402-.422.61-.187.21-.437.444-.75.702l-1.078.953v.032h2.547v.734Zm0 0" id="e"/><path d="M6.516-4.719v.922H1.203v-.922Zm0 0" id="g"/><path d="M3.875-8.516V0H2.844v-7.438h-.047L.719-6.046v-1.047l2.125-1.422zm0 0" id="h"/><path d="M4.406-6.766v.75H.734v-.75zm0 0" id="i"/><path d="M10.813-7.984 14.53-4.25 10.812-.531l-.64-.625 2.64-2.64H1.47v-.923h11.344l-2.641-2.625zm0 0" id="j"/><path d="M2.516-4.188c-.387 0-.73-.062-1.032-.187a1.851 1.851 0 0 1-.718-.531A1.221 1.221 0 0 1 .5-5.688h.906c.008.231.117.415.328.547.207.137.47.204.782.204.32 0 .586-.07.796-.22.208-.155.313-.347.313-.577 0-.227-.117-.414-.344-.563-.219-.156-.515-.234-.89-.234h-.407v-.672h.407c.312 0 .566-.067.765-.203a.633.633 0 0 0 .313-.563.63.63 0 0 0-.266-.515c-.168-.145-.39-.22-.672-.22-.281 0-.527.071-.734.204-.211.137-.313.32-.313.547H.61c.008-.29.098-.547.266-.766.176-.219.406-.39.688-.515.289-.125.613-.188.968-.188.352 0 .664.063.938.188.281.117.5.28.656.5.156.21.234.449.234.718a.987.987 0 0 1-.312.75c-.211.188-.461.305-.75.344v.047c.406.055.719.195.937.422.22.219.329.48.329.781 0 .281-.09.54-.266.766a1.88 1.88 0 0 1-.734.531 2.735 2.735 0 0 1-1.047.188Zm0 0" id="k"/><path d="M5.89-1.531 1.204-6.22l.625-.625 4.688 4.688zm-4.062 0-.625-.625 4.688-4.688.625.625zm0 0" id="l"/><path d="M7.781-8.516V0h-1l-4.64-6.688h-.079V0h-1.03v-8.516h1l4.655 6.704h.079v-6.704zm0 0" id="m"/><path d="M2.438-4.188c-.356 0-.68-.062-.97-.187a1.77 1.77 0 0 1-.671-.531 1.418 1.418 0 0 1-.25-.782h.875c.008.231.11.422.297.579.187.148.426.218.718.218.333 0 .602-.093.813-.28a.987.987 0 0 0 .313-.75c0-.302-.11-.548-.329-.735a1.183 1.183 0 0 0-.812-.297 1.3 1.3 0 0 0-.516.11 1.04 1.04 0 0 0-.39.28l-.844-.156.297-2.64h3.187v.734H1.72L1.53-7.141h.032c.101-.132.253-.242.453-.328.195-.082.41-.125.64-.125.332 0 .63.074.89.219.27.137.485.328.642.578.156.25.234.54.234.86 0 .343-.086.648-.25.906a1.796 1.796 0 0 1-.703.625c-.293.148-.637.218-1.031.218Zm0 0" id="n"/><path d="M3.39-1.5v-5.484h.938V-1.5ZM1.11-3.781v-.922h5.484v.922zm0 0" id="o"/><path d="M.438-5.219v-.703l2.421-3.437h.61v1h-.375L1.359-5.97v.032h3.329v.718zm2.687.969v-5.11h.86v5.11Zm0 0" id="p"/><clipPath id="a"><path d="M482 99h2v48.75h-2zm0 0"/></clipPath></defs><g clip-path="url(#a)" transform="matrix(.35278 0 0 .35278 -127.717 -35.19)"><path fill="none" stroke-width="1.5" stroke="#000" stroke-miterlimit="10" d="M483.25 99.75V147"/></g><use xlink:href="#b" x="361" y="115.58" transform="matrix(.35278 0 0 .35278 -127.717 -35.19)"/><g transform="matrix(.35278 0 0 .35278 -127.717 -35.19)"><use xlink:href="#c" x="367.4" y="115.58"/><use xlink:href="#d" x="374.209" y="115.58"/><use xlink:href="#e" x="379.334" y="115.58"/><use xlink:href="#f" x="384.248" y="115.58"/><use xlink:href="#g" x="387.536" y="115.58"/><use xlink:href="#f" x="395.246" y="115.58"/><use xlink:href="#h" x="398.534" y="115.58"/><use xlink:href="#c" x="403.962" y="115.58"/><use xlink:href="#i" x="410.772" y="115.58"/></g><g transform="matrix(.35278 0 0 .35278 -127.717 -35.19)"><use xlink:href="#f" x="423.25" y="115.58"/><use xlink:href="#j" x="426.538" y="115.58"/><use xlink:href="#f" x="442.216" y="115.58"/><use xlink:href="#b" x="445.503" y="115.58"/></g><g transform="matrix(.35278 0 0 .35278 -127.717 -35.19)"><use xlink:href="#c" x="451.903" y="115.58"/><use xlink:href="#d" x="458.713" y="115.58"/><use xlink:href="#k" x="463.837" y="115.58"/><use xlink:href="#f" x="468.868" y="115.58"/><use xlink:href="#f" x="472.156" y="115.58"/><use xlink:href="#f" x="475.444" y="115.58"/></g><g transform="matrix(.35278 0 0 .35278 -127.717 -35.19)"><use xlink:href="#f" x="486.25" y="115.58"/><use xlink:href="#l" x="489.538" y="115.58"/><use xlink:href="#f" x="497.248" y="115.58"/><use xlink:href="#h" x="500.536" y="115.58"/></g><g transform="matrix(.35278 0 0 .35278 -127.717 -35.19)"><use xlink:href="#m" x="361" y="138.83"/><use xlink:href="#d" x="369.798" y="138.83"/><use xlink:href="#n" x="374.923" y="138.83"/><use xlink:href="#f" x="379.767" y="138.83"/><use xlink:href="#o" x="383.055" y="138.83"/><use xlink:href="#f" x="390.765" y="138.83"/><use xlink:href="#h" x="394.052" y="138.83"/><use xlink:href="#c" x="399.481" y="138.83"/><use xlink:href="#i" x="406.291" y="138.83"/></g><g transform="matrix(.35278 0 0 .35278 -127.717 -35.19)"><use xlink:href="#f" x="423.25" y="138.83"/><use xlink:href="#j" x="426.538" y="138.83"/><use xlink:href="#f" x="442.216" y="138.83"/><use xlink:href="#m" x="445.503" y="138.83"/><use xlink:href="#d" x="454.302" y="138.83"/><use xlink:href="#p" x="459.426" y="138.83"/><use xlink:href="#f" x="464.528" y="138.83"/></g><g transform="matrix(.35278 0 0 .35278 -127.717 -35.19)"><use xlink:href="#f" x="486.25" y="138.83"/><use xlink:href="#l" x="489.538" y="138.83"/><use xlink:href="#f" x="497.248" y="138.83"/><use xlink:href="#h" x="500.536" y="138.83"/></g></svg>