<svg width="78" height="32" xmlns="http://www.w3.org/2000/svg"><text stroke="transparent" transform="matrix(.05 0 0 .05 60.055 25.55)" style="font:200px&quot;Arial&quot;">
OH</text><text stroke="transparent" transform="matrix(.05 0 0 .05 35.114 11.149)" style="font:200px&quot;Arial&quot;">
OH</text><text stroke="transparent" transform="matrix(.05 0 0 .05 2.945 25.55)" style="font:200px&quot;Arial&quot;">
HO</text><path stroke="transparent" d="M51.475 29.484v-.693l7.83-4.52.3.519-8.13 4.694ZM39 22.284v-.346l.3-.173 12.175 7.026v.693L39 22.284Z" stroke-width=".05"/><path stroke="transparent" d="M38.7 12.866h.6v8.899l-.3.173-.3-.173v-8.9ZM26.525 29.484v-.693L38.7 21.765l.3.173v.346l-12.475 7.2ZM18.395 24.79l.3-.52 7.83 4.521v.693l-8.13-4.694Z" stroke-width=".05"/></svg>