<svg width="46" height="35" xmlns="http://www.w3.org/2000/svg"><path stroke="transparent" d="M27.805 21.12v.693l-12.47 7.2v-.693l12.47-7.2Z" stroke-width=".05"/><text stroke="transparent" transform="matrix(.05 0 0 .05 36.664 32.278)" style="font:200px 'Arial'">
H</text><path stroke="transparent" d="m35.385 25.497-.3.519-7.28-4.203v-.693l7.58 4.377Z" stroke-width=".05"/><text stroke="transparent" transform="matrix(.05 0 0 .05 23.915 10.678)" style="font:200px 'Arial'">
O</text><path stroke="transparent" d="M26.21 12.395h.6v9.82h-.6v-9.82ZM28.8 12.395h.6v9.82h-.6v-9.82ZM2.715 21.726l.3-.519 12.32 7.113v.693l-12.62-7.287ZM4.01 19.482l.3-.52 11.175 6.452-.3.52L4.01 19.482Z" stroke-width=".05"/></svg>