<svg width="58" height="35" xmlns="http://www.w3.org/2000/svg"><path stroke="transparent" d="M39.805 21.12v.693l-12.47 7.2v-.693l12.47-7.2Z" stroke-width=".05"/><text stroke="transparent" transform="matrix(.05 0 0 .05 48.664 32.278)" style="font:200px 'Arial'">
H</text><path stroke="transparent" d="m47.385 25.497-.3.519-7.28-4.203v-.693l7.58 4.377Z" stroke-width=".05"/><text stroke="transparent" transform="matrix(.05 0 0 .05 35.915 10.678)" style="font:200px 'Arial'">
O</text><path stroke="transparent" d="M38.21 12.395h.6v9.82h-.6v-9.82ZM40.8 12.395h.6v9.82h-.6v-9.82ZM14.865 21.813v-.693l12.47 7.2v.693l-12.47-7.2ZM2.54 28.926l-.3-.519 12.625-7.287v.693L2.54 28.926Z" stroke-width=".05"/></svg>