<?xml version="1.0" standalone="no" ?>
<!DOCTYPE svg PUBLIC "-//W3C//DTD SVG 1.1//EN" "http://www.w3.org/Graphics/SVG/1.1/DTD/svg11.dtd">
<svg width="58px" height="36px" viewBox="0 0 58 36" xmlns="http://www.w3.org/2000/svg" xmlns:xlink="http://www.w3.org/1999/xlink" version="1.1" >
<path stroke="transparent" fill="#000000" transform="matrix(0.05 0 0 0.05 -486 -126)" d="M 10516.1,2955.74 L 10516.1,2969.59 L 10266.7,3113.59 L 10266.7,3099.74 L 10516.1,2955.74 Z " />
<text x="0" y="0" stroke="transparent" fill="#000000" transform="matrix(0.05 0 0 0.05 48.6637 32.9444)" style="font:normal normal normal 200px 'Arial'" >
H</text>
<path stroke="transparent" fill="#000000" transform="matrix(0.05 0 0 0.05 -486 -126)" d="M 10667.7,3043.26 L 10661.7,3053.66 L 10516.1,2969.59 L 10516.1,2955.74 L 10667.7,3043.26 Z " />
<text x="0" y="0" stroke="transparent" fill="#000000" transform="matrix(0.05 0 0 0.05 35.9152 11.3445)" style="font:normal normal normal 200px 'Arial'" >
O</text>
<path stroke="transparent" fill="#000000" transform="matrix(0.05 0 0 0.05 -486 -126)" d="M 10484.2,2781.22 L 10496.2,2781.22 L 10496.2,2977.63 L 10484.2,2977.63 L 10484.2,2781.22 Z " />
<path stroke="transparent" fill="#000000" transform="matrix(0.05 0 0 0.05 -486 -126)" d="M 10536,2781.22 L 10548,2781.22 L 10548,2977.63 L 10536,2977.63 L 10536,2781.22 Z " />
<path stroke="transparent" fill="#000000" transform="matrix(0.05 0 0 0.05 -486 -126)" d="M 10017.3,2969.59 L 10017.3,2955.74 L 10266.7,3099.74 L 10266.7,3113.59 L 10017.3,2969.59 Z " />
<path stroke="transparent" fill="#000000" transform="matrix(0.05 0 0 0.05 -486 -126)" d="M 10014.3,3027.72 L 10020.3,3017.33 L 10243.7,3146.37 L 10237.7,3156.76 L 10014.3,3027.72 Z " />
<path stroke="transparent" fill="#000000" transform="matrix(0.05 0 0 0.05 -486 -126)" d="M 9770.84,3111.86 L 9764.84,3101.47 L 10017.3,2955.74 L 10017.3,2969.59 L 9770.84,3111.86 Z " />
</svg>
