<svg width="49" height="49" xmlns="http://www.w3.org/2000/svg"><path stroke="transparent" d="M30.805 21.12v.693l-12.47 7.2v-.693l12.47-7.2Z" stroke-width=".05"/><text stroke="transparent" transform="matrix(.05 0 0 .05 39.664 32.278)" style="font:200px 'Arial'">
H</text><path stroke="transparent" d="m38.385 25.497-.3.519-7.28-4.203v-.693l7.58 4.377Z" stroke-width=".05"/><text stroke="transparent" transform="matrix(.05 0 0 .05 26.915 10.678)" style="font:200px 'Arial'">
O</text><path stroke="transparent" d="M29.21 12.395h.6v9.82h-.6v-9.82ZM31.8 12.395h.6v9.82h-.6v-9.82Z" stroke-width=".05"/><text stroke="transparent" transform="matrix(.05 0 0 .05 2.251 25.078)" style="font:200px 'Arial'">
H</text><path stroke="transparent" d="m10.74 24.628.3-.519 7.295 4.211v.693l-7.595-4.385Z" stroke-width=".05"/><text stroke="transparent" transform="matrix(.05 0 0 .05 14.444 46.678)" style="font:200px 'Arial'">
O</text><path stroke="transparent" d="M19.93 37.745h-.6v-9.827h.6v9.827ZM17.335 37.745h-.6v-9.827h.6v9.827Z" stroke-width=".05"/></svg>