<svg width="83" height="35" xmlns="http://www.w3.org/2000/svg"><path stroke="transparent" d="M64.805 21.12v.693l-12.47 7.2v-.693l12.47-7.2Z" stroke-width=".05"/><text stroke="transparent" transform="matrix(.05 0 0 .05 73.664 32.278)" style="font:200px 'Arial'">
H</text><path stroke="transparent" d="m72.385 25.497-.3.519-7.28-4.203v-.693l7.58 4.377Z" stroke-width=".05"/><text stroke="transparent" transform="matrix(.05 0 0 .05 60.915 10.678)" style="font:200px 'Arial'">
O</text><path stroke="transparent" d="M63.21 12.395h.6v9.82h-.6v-9.82ZM65.8 12.395h.6v9.82h-.6v-9.82ZM39.865 21.813v-.693l12.47 7.2v.693l-12.47-7.2ZM27.39 29.013v-.693l12.475-7.2v.693l-12.475 7.2ZM14.92 21.813v-.693l12.47 7.2v.693l-12.47-7.2ZM2.6 28.926l-.3-.519 12.62-7.287v.693L2.6 28.926Z" stroke-width=".05"/></svg>