<svg width="62" height="35" xmlns="http://www.w3.org/2000/svg"><path stroke="transparent" d="M31.135 29.334v-.693l12.43-7.175v.693l-12.43 7.175Z" stroke-width=".05"/><path stroke="transparent" d="M18.71 22.159v-.693l12.425 7.175v.693L18.71 22.159Z" stroke-width=".05"/><text stroke="transparent" transform="matrix(.05 0 0 .05 39.676 11.074)" style="font:200px&quot;Arial&quot;">
O</text><path stroke="transparent" d="M41.975 12.79h.6v9.768h-.6v-9.767ZM44.555 12.79h.6v9.768h-.6v-9.767Z" stroke-width=".05"/><text stroke="transparent" transform="matrix(.05 0 0 .05 52.381 32.599)" style="font:200px&quot;Arial&quot;">
H</text><path stroke="transparent" d="m51.1 25.817-.3.52-7.235-4.178v-.693l7.535 4.351Z" stroke-width=".05"/><text stroke="transparent" transform="matrix(.05 0 0 .05 14.821 11.074)" style="font:200px&quot;Arial&quot;">
O</text><path stroke="transparent" d="M17.12 12.79h.6v9.768h-.6v-9.767ZM19.7 12.79h.6v9.768h-.6v-9.767Z" stroke-width=".05"/><text stroke="transparent" transform="matrix(.05 0 0 .05 2.671 32.599)" style="font:200px&quot;Arial&quot;">
H</text><path stroke="transparent" d="m11.455 26.346-.3-.519 7.555-4.361v.693l-7.255 4.187Z" stroke-width=".05"/></svg>