<svg width="313.066" height="30.267" xmlns="http://www.w3.org/2000/svg"><defs><path id="a" d="M0 42.821h402.07v55.191H0z"/></defs><path stroke="transparent" d="M183.661 10.192H155.55v-.96h28.111z" style="stroke-width:.067067" transform="translate(5.886 2.28)"/><path stroke="transparent" d="m191.981 9.712-9.6 2.48s1.2-1.395 1.2-2.48c0-1.12-1.2-2.56-1.2-2.56l9.6 2.56" style="stroke-width:.080003" transform="translate(5.886 2.28)"/><path stroke="#000" stroke-width=".08" fill="transparent" d="m197.868 11.992-9.6 2.48s1.2-1.395 1.2-2.48c0-1.12-1.2-2.56-1.2-2.56l9.6 2.56"/><g><path stroke="transparent" d="M183.661 10.192H155.55v-.96h28.111z" style="stroke-width:.067067" transform="rotate(180 176.714 13.403)"/><path stroke="transparent" d="m191.981 9.712-9.6 2.48s1.2-1.395 1.2-2.48c0-1.12-1.2-2.56-1.2-2.56l9.6 2.56" style="stroke-width:.080003" transform="rotate(180 176.714 13.403)"/><path stroke="#000" stroke-width=".08" fill="transparent" d="m161.446 17.094 9.6-2.48s-1.2 1.395-1.2 2.48c0 1.12 1.2 2.56 1.2 2.56l-9.6-2.56"/></g><g><text xml:space="preserve" style="font-size:16px;line-height:1.25;font-family:Inter;-inkscape-font-specification:'Inter, Normal';font-variant-ligatures:none;white-space:pre;shape-inside:url(#a);display:inline" transform="translate(1.763 -38.715)"><tspan x="0" y="57.628">Fe³⁺<tspan style="font-size:65%;baseline-shift:sub">(</tspan><tspan style="font-size:65%;baseline-shift:sub">р-р</tspan><tspan style="font-size:65%;baseline-shift:sub">)</tspan> + 3CNS⁻<tspan style="font-size:65%;baseline-shift:sub">(</tspan><tspan style="font-size:65%;baseline-shift:sub">р-р</tspan><tspan style="font-size:65%;baseline-shift:sub">)</tspan>            Fe(CNS)₃ + Q</tspan></text></g></svg>