<svg width="305.527" height="19.394" xmlns="http://www.w3.org/2000/svg"><defs><path id="a" d="M0 42.821h402.07v55.191H0z"/></defs><path stroke="transparent" d="M183.661 10.192H155.55v-.96h28.111z" style="stroke-width:.067067" transform="translate(2.714 -2.565)"/><path stroke="transparent" d="m191.981 9.712-9.6 2.48s1.2-1.395 1.2-2.48c0-1.12-1.2-2.56-1.2-2.56l9.6 2.56" style="stroke-width:.080003" transform="translate(2.714 -2.565)"/><path stroke="#000" stroke-width=".08" fill="transparent" d="m194.696 7.146-9.6 2.48s1.2-1.395 1.2-2.48c0-1.12-1.2-2.56-1.2-2.56l9.6 2.56"/><g><path stroke="transparent" d="M183.661 10.192H155.55v-.96h28.111z" style="stroke-width:.067067" transform="rotate(180 175.128 10.98)"/><path stroke="transparent" d="m191.981 9.712-9.6 2.48s1.2-1.395 1.2-2.48c0-1.12-1.2-2.56-1.2-2.56l9.6 2.56" style="stroke-width:.080003" transform="rotate(180 175.128 10.98)"/><path stroke="#000" stroke-width=".08" fill="transparent" d="m158.274 12.248 9.6-2.48s-1.2 1.395-1.2 2.48c0 1.12 1.2 2.56 1.2 2.56l-9.6-2.56"/></g><g><text xml:space="preserve" style="font-size:16px;line-height:1.25;font-family:Inter;-inkscape-font-specification:'Inter, Normal';font-variant-ligatures:none;white-space:pre;shape-inside:url(#a)" transform="translate(-1.41 -43.56)"><tspan x="0" y="57.628">Fe<tspan style="font-size:65%;baseline-shift:super">3+</tspan><tspan style="font-size:65%;baseline-shift:sub">(</tspan><tspan style="font-size:65%;baseline-shift:sub">р-р</tspan><tspan style="font-size:65%;baseline-shift:sub">)</tspan> + 3CNS<tspan style="font-size:65%;baseline-shift:super">−</tspan><tspan style="font-size:65%;baseline-shift:sub">(</tspan><tspan style="font-size:65%;baseline-shift:sub">р-р</tspan><tspan style="font-size:65%;baseline-shift:sub">)</tspan>            Fe(CNS)<tspan style="font-size:65%;baseline-shift:sub">3</tspan> + Q</tspan></text></g></svg>