<svg width="43" height="53" xmlns="http://www.w3.org/2000/svg"><path stroke="transparent" d="m27.825 43.13-.3.174-.3-.174V29.127l.6-.346v14.35Z" stroke-width=".05"/><path stroke="transparent" d="M15.1 50.825v-.693l12.125-7.002.3.174v.346L15.1 50.825ZM15.25 47.756l-.3-.52 9.84-5.683.3.52-9.84 5.683Z" stroke-width=".05"/><path stroke="transparent" d="m2.37 43.477.6-.347 12.13 7.002v.693L2.37 43.477Z" stroke-width=".05"/><path stroke="transparent" d="m2.37 28.78.6.347V43.13l-.6.347V28.781ZM4.955 30.445h.6v11.367h-.6V30.445Z" stroke-width=".05"/><path stroke="transparent" d="m14.8 21.606.3.173v.346L2.97 29.127l-.6-.346 12.43-7.175Z" stroke-width=".05"/><path stroke="transparent" d="M15.1 22.125v-.346l.3-.173 12.425 7.175-.6.346L15.1 22.125ZM14.95 25.021l.3-.52 9.84 5.685-.3.519-9.84-5.684Z" stroke-width=".05"/><text stroke="transparent" transform="matrix(.05 0 0 .05 11.21 11.04)" style="font:200px&quot;Arial&quot;">
OH</text><path stroke="transparent" d="M14.8 12.757h.6v8.849l-.3.173-.3-.173v-8.85ZM40.145 50.244l-.3.52-12.32-7.114v-.346l.3-.174 12.32 7.114Z" stroke-width=".05"/></svg>