<svg width="30" height="67" xmlns="http://www.w3.org/2000/svg"><path stroke="transparent" d="m27.825 43.477-.6-.347V29.127l.6-.346v14.696Z" stroke-width=".05"/><path stroke="transparent" d="m15.4 50.652-.3-.173v-.347l12.125-7.002.6.347L15.4 50.652ZM15.25 47.756l-.3-.52 9.84-5.683.3.52-9.84 5.683Z" stroke-width=".05"/><path stroke="transparent" d="m2.37 43.477.6-.347 12.13 7.002v.347l-.3.173-12.43-7.175Z" stroke-width=".05"/><path stroke="transparent" d="m2.37 28.78.6.347V43.13l-.6.347V28.781ZM4.955 30.445h.6v11.367h-.6V30.445Z" stroke-width=".05"/><path stroke="transparent" d="m14.8 21.606.3.173v.346L2.97 29.127l-.6-.346 12.43-7.175Z" stroke-width=".05"/><path stroke="transparent" d="M15.1 22.125v-.346l.3-.173 12.425 7.175-.6.346L15.1 22.125ZM14.95 25.021l.3-.52 9.84 5.685-.3.519-9.84-5.684Z" stroke-width=".05"/><text stroke="transparent" transform="matrix(.05 0 0 .05 11.21 11.04)" style="font:200px&quot;Arial&quot;">
OH</text><path stroke="transparent" d="M14.8 12.757h.6v8.849l-.3.173-.3-.173v-8.85ZM15.4 64.879h-.6V50.652l.3-.173.3.173v14.227Z" stroke-width=".05"/></svg>