<svg width="54" height="40" xmlns="http://www.w3.org/2000/svg"><path stroke="transparent" d="M15.69 37.08v-.693l12.13-7.001.6.346-12.73 7.348ZM2.965 29.732l.6-.346 12.125 7.001v.693L2.965 29.732ZM5.695 28.327l.3-.52 9.845 5.684-.3.52-9.845-5.684Z" stroke-width=".05"/><path stroke="transparent" d="m2.965 15.036.6.346v14.004l-.6.346V15.036Z" stroke-width=".05"/><path stroke="transparent" d="M15.69 7.687v.693L3.565 15.382l-.6-.346L15.69 7.687ZM15.54 10.757l.3.519-9.845 5.684-.3-.52 9.845-5.683ZM28.12 14.862v.347l-.3.173L15.69 8.38v-.693l12.43 7.175Z" stroke-width=".05"/><path stroke="transparent" d="m27.82 15.382.3-.173.3.173v14.35l-.6-.346V15.382ZM25.235 16.7h.6v11.367h-.6V16.7Z" stroke-width=".05"/><text stroke="transparent" transform="matrix(.05 0 0 .05 36.7 11.62)" style="font:200px&quot;Arial&quot;">
OH</text><path stroke="transparent" d="m35.95 10.341.3.52-7.83 4.521-.3-.173v-.347l7.83-4.521Z" stroke-width=".05"/></svg>