<svg width="122.35" height="24.886" xmlns="http://www.w3.org/2000/svg"><path stroke="transparent" d="M22.932 4v1.04L4.45 15.71 4 14.93Zm-.225 4.62.45.78-16.763 9.677-.45-.78z" style="stroke-width:.0750022"/><text x="36.222" y="20.737" stroke="transparent" style="font-style:normal;font-variant:normal;font-weight:400;font-stretch:normal;font-size:15.0004px;line-height:normal;font-family:Arial;stroke-width:.0750022"><tspan style="font-style:normal;font-variant:normal;font-weight:400;font-stretch:normal;font-family:Inter;-inkscape-font-specification:Inter">Cl</tspan></text><path stroke="transparent" d="m35.412 11.206-.45.78-12.03-6.946V4Zm75.128 1.763h-37.5v-.9h37.5z" style="stroke-width:.0750022"/><path stroke="transparent" d="m118.34 12.519-9 2.325s1.126-1.308 1.126-2.325c0-1.05-1.125-2.4-1.125-2.4l9 2.4" style="stroke-width:.0750022"/><path stroke="#000" stroke-width=".075" fill="transparent" d="m118.34 12.519-9 2.325s1.126-1.308 1.126-2.325c0-1.05-1.125-2.4-1.125-2.4l9 2.4"/></svg>