<svg width="114.35" height="16.886" xmlns="http://www.w3.org/2000/svg"><path stroke="transparent" d="M18.932 0v1.04L.45 11.71 0 10.93ZM18.707 4.62l.45.78-16.763 9.677-.45-.78Z" style="stroke-width:.0750022"/><text x="32.222" y="16.737" stroke="transparent" style="font-style:normal;font-variant:normal;font-weight:400;font-stretch:normal;font-size:15.0004px;line-height:normal;font-family:Arial;stroke-width:.0750022"><tspan style="font-style:normal;font-variant:normal;font-weight:400;font-stretch:normal;font-family:Inter;-inkscape-font-specification:Inter">Cl</tspan></text><path stroke="transparent" d="m31.412 7.206-.45.78-12.03-6.946V0ZM106.54 8.969h-37.5v-.9h37.5z" style="stroke-width:.0750022"/><path stroke="transparent" d="m114.34 8.519-9 2.325s1.126-1.308 1.126-2.325c0-1.05-1.125-2.4-1.125-2.4l9 2.4" style="stroke-width:.0750022"/><path stroke="#000" stroke-width=".075" fill="transparent" d="m114.34 8.519-9 2.325s1.126-1.308 1.126-2.325c0-1.05-1.125-2.4-1.125-2.4l9 2.4"/></svg>