<svg width="270.81" height="57.911" xmlns="http://www.w3.org/2000/svg"><path stroke="transparent" d="M34.467 25.622v1.04l-18.48 10.67-.45-.78zm-.225 4.62.45.779-16.762 9.678-.45-.78z" style="stroke-width:.0749992"/><text x="47.756" y="42.358" stroke="transparent" style="font-style:normal;font-variant:normal;font-weight:400;font-stretch:normal;font-size:14.9998px;line-height:normal;font-family:Arial;stroke-width:.0749992">Cl</text><path stroke="transparent" d="m46.947 32.828-.45.779-12.03-6.946v-1.039Zm136.382 1.762H84.573v-.9h98.756z" style="stroke-width:.0749992"/><path stroke="transparent" d="m191.129 34.14-9 2.325s1.125-1.308 1.125-2.325c0-1.05-1.125-2.4-1.125-2.4l9 2.4" style="stroke-width:.0749992"/><path stroke="#000" stroke-width=".075" fill="transparent" d="m191.129 34.14-9 2.325s1.125-1.308 1.125-2.325c0-1.05-1.125-2.4-1.125-2.4l9 2.4"/><text x="107.222" y="25.29" stroke="transparent" style="font-style:normal;font-variant:normal;font-weight:400;font-stretch:normal;font-size:14.9998px;line-height:normal;font-family:Arial;stroke-width:.0749992">t,</text><text x="119.722" y="25.29" stroke="transparent" style="font-style:normal;font-variant:normal;font-weight:400;font-stretch:normal;font-size:14.9998px;line-height:normal;font-family:Arial;stroke-width:.0749992">p,</text><text x="136.396" y="25.29" stroke="transparent" style="font-style:normal;font-variant:normal;font-weight:400;font-stretch:normal;font-size:14.9998px;line-height:normal;font-family:Arial;stroke-width:.0749992">кат.</text><path stroke="transparent" d="M228.144 31.548v-.52l.45-.26 18.195 10.503v1.04zM209.728 42.18l-.45-.78 18.416-10.631.45.26v.52z" style="stroke-width:.0749992"/><text x="222.727" y="14.92" stroke="transparent" style="font-style:normal;font-variant:normal;font-weight:400;font-stretch:normal;font-size:14.9998px;line-height:normal;font-family:Arial;stroke-width:.0749992">Cl</text><path stroke="transparent" d="M227.694 17.496h.9v13.273l-.45.26-.45-.26zM265.2 30.638l.45.78-18.861 10.893v-1.04z" style="stroke-width:.0749992"/><path stroke="#000" stroke-width=".9" fill="transparent" d="M220.892 50.45h-2.068m0 0V22.37m0 0h2.068m33.148 0h2.063m0 0v28.08m0 0h-2.062"/><text x="259.501" y="53.911" stroke="transparent" style="font-style:normal;font-variant:normal;font-weight:400;font-stretch:normal;font-size:14.9998px;line-height:normal;font-family:Arial;stroke-width:.0749992">n</text><text x="3.011" y="41.774" stroke="transparent" style="font-style:normal;font-variant:normal;font-weight:400;font-stretch:normal;font-size:14.9998px;line-height:normal;font-family:Arial;stroke-width:.0749992">n</text></svg>