<svg width="262.81" height="49.911" xmlns="http://www.w3.org/2000/svg"><path stroke="transparent" d="M30.467 21.622v1.04l-18.48 10.67-.45-.78ZM30.242 26.242l.45.779-16.762 9.678-.45-.78z" style="stroke-width:.0749992"/><text x="43.756" y="38.358" stroke="transparent" style="font-style:normal;font-variant:normal;font-weight:400;font-stretch:normal;font-size:14.9998px;line-height:normal;font-family:Arial;stroke-width:.0749992">Cl</text><path stroke="transparent" d="m42.947 28.828-.45.779-12.03-6.946v-1.039zM179.329 30.59H80.573v-.9h98.756z" style="stroke-width:.0749992"/><path stroke="transparent" d="m187.129 30.14-9 2.325s1.125-1.308 1.125-2.325c0-1.05-1.125-2.4-1.125-2.4l9 2.4" style="stroke-width:.0749992"/><path stroke="#000" stroke-width=".075" fill="transparent" d="m187.129 30.14-9 2.325s1.125-1.308 1.125-2.325c0-1.05-1.125-2.4-1.125-2.4l9 2.4"/><text x="103.222" y="21.29" stroke="transparent" style="font-style:normal;font-variant:normal;font-weight:400;font-stretch:normal;font-size:14.9998px;line-height:normal;font-family:Arial;stroke-width:.0749992">t,</text><text x="115.722" y="21.29" stroke="transparent" style="font-style:normal;font-variant:normal;font-weight:400;font-stretch:normal;font-size:14.9998px;line-height:normal;font-family:Arial;stroke-width:.0749992">p,</text><text x="132.396" y="21.29" stroke="transparent" style="font-style:normal;font-variant:normal;font-weight:400;font-stretch:normal;font-size:14.9998px;line-height:normal;font-family:Arial;stroke-width:.0749992">кат.</text><path stroke="transparent" d="M224.144 27.548v-.52l.45-.26 18.195 10.503v1.04zM205.728 38.18l-.45-.78 18.416-10.631.45.26v.52z" style="stroke-width:.0749992"/><text x="218.727" y="10.92" stroke="transparent" style="font-style:normal;font-variant:normal;font-weight:400;font-stretch:normal;font-size:14.9998px;line-height:normal;font-family:Arial;stroke-width:.0749992">Cl</text><path stroke="transparent" d="M223.694 13.496h.9v13.273l-.45.26-.45-.26zM261.2 26.638l.45.78-18.861 10.893v-1.04z" style="stroke-width:.0749992"/><path stroke="#000" stroke-width=".9" fill="transparent" d="M216.892 46.45h-2.068M214.824 46.45V18.37M214.824 18.37h2.068M250.04 18.37h2.063M252.103 18.37v28.08M252.103 46.45h-2.062"/><text x="255.501" y="49.911" stroke="transparent" style="font-style:normal;font-variant:normal;font-weight:400;font-stretch:normal;font-size:14.9998px;line-height:normal;font-family:Arial;stroke-width:.0749992">n</text><text x="-.989" y="37.774" stroke="transparent" style="font-style:normal;font-variant:normal;font-weight:400;font-stretch:normal;font-size:14.9998px;line-height:normal;font-family:Arial;stroke-width:.0749992">n</text></svg>