<svg width="102" height="32" xmlns="http://www.w3.org/2000/svg"><text stroke="transparent" transform="matrix(.05 0 0 .05 72.055 25.55)" style="font:200px&quot;Arial&quot;">
ONO</text><text stroke="transparent" transform="matrix(.05 0 0 .05 94.833 27.382)" style="font:150px&quot;Arial&quot;">
2</text><text stroke="transparent" transform="matrix(.05 0 0 .05 47.114 11.149)" style="font:200px&quot;Arial&quot;">
ONO</text><text stroke="transparent" transform="matrix(.05 0 0 .05 69.891 12.982)" style="font:150px&quot;Arial&quot;">
2</text><text stroke="transparent" transform="matrix(.05 0 0 .05 2.997 25.55)" style="font:200px&quot;Arial&quot;">
O</text><text stroke="transparent" transform="matrix(.05 0 0 .05 10.775 27.382)" style="font:150px&quot;Arial&quot;">
2</text><text stroke="transparent" transform="matrix(.05 0 0 .05 14.945 25.55)" style="font:200px&quot;Arial&quot;">
NO</text><path stroke="transparent" d="M63.475 29.484v-.693l7.83-4.52.3.519-8.13 4.694ZM51 22.284v-.346l.3-.173 12.175 7.026v.693L51 22.284Z" stroke-width=".05"/><path stroke="transparent" d="M50.7 12.866h.6v8.899l-.3.173-.3-.173v-8.9ZM38.525 29.484v-.693L50.7 21.765l.3.173v.346l-12.475 7.2ZM30.395 24.791l.3-.52 7.83 4.52v.693l-8.13-4.693Z" stroke-width=".05"/></svg>