<svg width="86" height="73" xmlns="http://www.w3.org/2000/svg"><path stroke="transparent" d="m55.825 43.477-.6-.347V29.127l.3-.173.3.173v14.35ZM43.4 50.652l-.3-.173v-.347l12.125-7.002.6.347L43.4 50.652ZM43.25 47.756l-.3-.52 9.84-5.683.3.52-9.84 5.683ZM30.37 43.477l.6-.347 12.13 7.002v.347l-.3.173-12.43-7.175Z" stroke-width=".05"/><path stroke="transparent" d="m30.37 29.127.3-.173.3.173V43.13l-.6.347v-14.35ZM32.955 30.445h.6v11.367h-.6V30.445Z" stroke-width=".05"/><path stroke="transparent" d="m42.8 21.606.3.173v.346l-12.13 7.002-.3-.173v-.346l12.13-7.002ZM43.1 22.125v-.346l.3-.173 12.125 7.002v.346l-.3.173L43.1 22.125ZM42.95 25.021l.3-.52 9.84 5.685-.3.519-9.84-5.684Z" stroke-width=".05"/><text stroke="transparent" transform="matrix(.05 0 0 .05 39.21 11.04)" style="font:200px&quot;Arial&quot;">
OH</text><path stroke="transparent" d="M42.8 12.757h.6v8.849l-.3.173-.3-.173v-8.85Z" stroke-width=".05"/><text stroke="transparent" transform="matrix(.05 0 0 .05 2.64 25.365)" style="font:200px&quot;Arial&quot;">
O</text><text stroke="transparent" transform="matrix(.05 0 0 .05 10.418 27.198)" style="font:150px&quot;Arial&quot;">
2</text><text stroke="transparent" transform="matrix(.05 0 0 .05 14.589 25.365)" style="font:200px&quot;Arial&quot;">
N</text><path stroke="transparent" d="m23.08 24.917.3-.52 7.29 4.21v.347l-.3.173-7.29-4.21Z" stroke-width=".05"/><text stroke="transparent" transform="matrix(.05 0 0 .05 64.385 25.365)" style="font:200px&quot;Arial&quot;">
NO</text><text stroke="transparent" transform="matrix(.05 0 0 .05 79.385 27.198)" style="font:150px&quot;Arial&quot;">
2</text><path stroke="transparent" d="m62.765 24.428.3.519-7.24 4.18-.3-.173v-.346l7.24-4.18Z" stroke-width=".05"/><text stroke="transparent" transform="matrix(.05 0 0 .05 39.487 68.49)" style="font:200px&quot;Arial&quot;">
NO</text><text stroke="transparent" transform="matrix(.05 0 0 .05 54.487 70.323)" style="font:150px&quot;Arial&quot;">
2</text><path stroke="transparent" d="M43.4 59.707h-.6v-9.055l.3-.173.3.173v9.055Z" stroke-width=".05"/></svg>