<svg width="86" height="68" xmlns="http://www.w3.org/2000/svg"><text stroke="transparent" transform="matrix(.05 0 0 .05 64.17 20.21)" style="font:200px&quot;Arial&quot;">
NO</text><text stroke="transparent" transform="matrix(.05 0 0 .05 79.17 22.044)" style="font:150px&quot;Arial&quot;">
2</text><path stroke="transparent" d="m55.61 38.374-.6-.347V23.973l.3-.173.3.173v14.4Z" stroke-width=".05"/><path stroke="transparent" d="M42.84 16.946v-.347l.3-.173 12.17 7.028v.346l-.3.173-12.17-7.027ZM42.69 19.853l.3-.52 9.88 5.703-.3.52-9.88-5.703ZM43.14 45.574l-.3-.173v-.347l12.17-7.027.6.347-12.47 7.2ZM42.99 42.667l-.3-.52 9.88-5.703.3.52-9.88 5.703Z" stroke-width=".05"/><path stroke="transparent" d="M42.84 45.054v.347l-.3.173-12.47-7.2.6-.347 12.17 7.027ZM30.07 23.973l.3-.173.3.173v14.054l-.6.347V23.973ZM32.66 25.297h.6v11.407h-.6V25.297Z" stroke-width=".05"/><path stroke="transparent" d="m30.67 23.973-.3-.173v-.346l12.17-7.028.3.173v.347l-12.17 7.027ZM62.55 19.274l.3.519-7.24 4.18-.3-.173v-.346l7.24-4.18ZM42.54 2.2h.6v14.226l-.3.173-.3-.173V2.2Z" stroke-width=".05"/><text stroke="transparent" transform="matrix(.05 0 0 .05 2.34 20.211)" style="font:200px&quot;Arial&quot;">
O</text><text stroke="transparent" transform="matrix(.05 0 0 .05 10.117 22.044)" style="font:150px&quot;Arial&quot;">
2</text><text stroke="transparent" transform="matrix(.05 0 0 .05 14.287 20.211)" style="font:200px&quot;Arial&quot;">
N</text><path stroke="transparent" d="m22.775 19.762.3-.519 7.295 4.21v.347l-.3.173-7.295-4.21Z" stroke-width=".05"/><text stroke="transparent" transform="matrix(.05 0 0 .05 39.229 63.411)" style="font:200px&quot;Arial&quot;">
NO</text><text stroke="transparent" transform="matrix(.05 0 0 .05 54.229 65.245)" style="font:150px&quot;Arial&quot;">
2</text><path stroke="transparent" d="M43.14 54.628h-.6v-9.054l.3-.173.3.173v9.054Z" stroke-width=".05"/></svg>