<svg width="53" height="52" xmlns="http://www.w3.org/2000/svg"><path stroke="transparent" d="M27.135 21.787v.693l-12.17 7.027-.3-.173v-.347l12.47-7.2Z" stroke-width=".05"/><text stroke="transparent" transform="matrix(.05 0 0 .05 35.72 32.944)" style="font:200px 'Arial'">
OH</text><path stroke="transparent" d="m35.265 26.48-.3.519-7.83-4.52v-.692l8.13 4.693Z" stroke-width=".05"/><text stroke="transparent" transform="matrix(.05 0 0 .05 23.248 11.345)" style="font:200px 'Arial'">
O</text><path stroke="transparent" d="M25.54 13.061h.6v9.82h-.6v-9.82ZM28.135 13.061h.6v9.82h-.6v-9.82Z" stroke-width=".05"/><text stroke="transparent" transform="matrix(.05 0 0 .05 11.056 47.344)" style="font:200px 'Arial'">
NH</text><text stroke="transparent" transform="matrix(.05 0 0 .05 25.5 49.178)" style="font:150px 'Arial'">
2</text><path stroke="transparent" d="M14.965 38.561h-.6v-9.054l.3-.173.3.173v9.054Z" stroke-width=".05"/><path stroke="transparent" d="m2.045 22.393.3-.52 12.32 7.114v.347l-.3.173-12.32-7.114Z" stroke-width=".05"/></svg>