<svg width="131" height="52" xmlns="http://www.w3.org/2000/svg"><path stroke="transparent" d="M105.135 21.787v.693l-12.17 7.027-.3-.173v-.347l12.47-7.2Z" stroke-width=".05"/><text stroke="transparent" transform="matrix(.05 0 0 .05 113.719 32.944)" style="font:200px 'Arial'">
OH</text><path stroke="transparent" d="m113.265 26.48-.3.519-7.83-4.52v-.692l8.13 4.693Z" stroke-width=".05"/><text stroke="transparent" transform="matrix(.05 0 0 .05 101.249 11.345)" style="font:200px 'Arial'">
O</text><path stroke="transparent" d="M103.54 13.061h.6v9.82h-.6v-9.82ZM106.135 13.061h.6v9.82h-.6v-9.82Z" stroke-width=".05"/><text stroke="transparent" transform="matrix(.05 0 0 .05 89.056 47.344)" style="font:200px 'Arial'">
NH</text><text stroke="transparent" transform="matrix(.05 0 0 .05 103.5 49.178)" style="font:150px 'Arial'">
2</text><path stroke="transparent" d="M92.965 38.561h-.6v-9.054l.3-.173.3.173v9.054ZM80.195 22.48v-.693l12.47 7.2v.347l-.3.173-12.17-7.027ZM67.725 29.68v-.693l12.47-7.2v.693l-12.47 7.2Z" stroke-width=".05"/><path stroke="transparent" d="M55.255 22.48v-.693l12.47 7.2v.693l-12.47-7.2Z" stroke-width=".05"/><text stroke="transparent" transform="matrix(.05 0 0 .05 39.172 32.944)" style="font:200px 'Arial'">
N</text><text stroke="transparent" transform="matrix(.05 0 0 .05 39.172 41.778)" style="font:200px 'Arial'">
H</text><path stroke="transparent" d="m47.96 26.693-.3-.52 7.595-4.386v.693l-7.295 4.213ZM30.315 22.48v-.693l7.54 4.355-.3.519-7.24-4.181Z" stroke-width=".05"/><text stroke="transparent" transform="matrix(.05 0 0 .05 2.839 32.944)" style="font:200px 'Arial'">
H</text><text stroke="transparent" transform="matrix(.05 0 0 .05 10.06 34.778)" style="font:150px 'Arial'">
2</text><text stroke="transparent" transform="matrix(.05 0 0 .05 14.231 32.944)" style="font:200px 'Arial'">
N</text><path stroke="transparent" d="m22.985 26.711-.3-.52 7.63-4.404v.693l-7.33 4.231Z" stroke-width=".05"/><text stroke="transparent" transform="matrix(.05 0 0 .05 26.702 11.345)" style="font:200px 'Arial'">
NH</text><path stroke="transparent" d="M28.715 12.911h.6v9.97h-.6v-9.97ZM31.31 12.911h.6v9.97h-.6v-9.97Z" stroke-width=".05"/></svg>