<svg width="82" height="52" xmlns="http://www.w3.org/2000/svg"><path stroke="transparent" d="M56.135 21.787v.693l-12.17 7.027-.3-.173v-.347l12.47-7.2Z" stroke-width=".05"/><text stroke="transparent" transform="matrix(.05 0 0 .05 64.72 32.944)" style="font:200px 'Arial'">
OH</text><path stroke="transparent" d="m64.265 26.48-.3.519-7.83-4.52v-.692l8.13 4.693Z" stroke-width=".05"/><text stroke="transparent" transform="matrix(.05 0 0 .05 52.248 11.345)" style="font:200px 'Arial'">
O</text><path stroke="transparent" d="M54.54 13.061h.6v9.82h-.6v-9.82ZM57.135 13.061h.6v9.82h-.6v-9.82Z" stroke-width=".05"/><text stroke="transparent" transform="matrix(.05 0 0 .05 40.056 47.344)" style="font:200px 'Arial'">
NH</text><text stroke="transparent" transform="matrix(.05 0 0 .05 54.5 49.178)" style="font:150px 'Arial'">
2</text><path stroke="transparent" d="M43.965 38.561h-.6v-9.054l.3-.173.3.173v9.054Z" stroke-width=".05"/><path stroke="transparent" d="M31.195 22.48v-.693l12.47 7.2v.347l-.3.173-12.17-7.027ZM19.025 29.507l-.6-.347 12.77-7.373v.693l-12.17 7.027Z" stroke-width=".05"/><text stroke="transparent" transform="matrix(.05 0 0 .05 2.365 25.744)" style="font:200px 'Arial'">
O</text><path stroke="transparent" d="m9.945 26.108.3-.52 8.63 4.982-.3.52-8.63-4.982ZM11.245 23.864l.3-.52 8.625 4.982-.3.519-8.625-4.981Z" stroke-width=".05"/><text stroke="transparent" transform="matrix(.05 0 0 .05 14.836 47.344)" style="font:200px 'Arial'">
OH</text><path stroke="transparent" d="M19.025 38.411h-.6V29.16l.6.347v8.904Z" stroke-width=".05"/></svg>