<svg width="93" height="52" xmlns="http://www.w3.org/2000/svg"><path stroke="transparent" d="M67.135 21.787v.693l-12.17 7.027-.3-.173v-.347l12.47-7.2Z" stroke-width=".05"/><text stroke="transparent" transform="matrix(.05 0 0 .05 75.72 32.944)" style="font:200px 'Arial'">
OH</text><path stroke="transparent" d="m75.265 26.48-.3.519-7.83-4.52v-.692l8.13 4.693Z" stroke-width=".05"/><text stroke="transparent" transform="matrix(.05 0 0 .05 63.248 11.345)" style="font:200px 'Arial'">
O</text><path stroke="transparent" d="M65.54 13.061h.6v9.82h-.6v-9.82ZM68.135 13.061h.6v9.82h-.6v-9.82Z" stroke-width=".05"/><text stroke="transparent" transform="matrix(.05 0 0 .05 51.056 47.344)" style="font:200px 'Arial'">
NH</text><text stroke="transparent" transform="matrix(.05 0 0 .05 65.5 49.178)" style="font:150px 'Arial'">
2</text><path stroke="transparent" d="M42.195 22.48v-.693l12.47 7.2v.347l-.3.173-12.17-7.027Z" stroke-width=".05"/><path stroke="transparent" d="M54.965 38.561h-.6v-9.054l.3-.173.3.173v9.054ZM29.725 29.68v-.693l12.47-7.2v.693l-12.47 7.2Z" stroke-width=".05"/><text stroke="transparent" transform="matrix(.05 0 0 .05 2.25 25.744)" style="font:200px 'Arial'">
H</text><text stroke="transparent" transform="matrix(.05 0 0 .05 9.473 27.578)" style="font:150px 'Arial'">
2</text><text stroke="transparent" transform="matrix(.05 0 0 .05 13.643 25.744)" style="font:200px 'Arial'">
N</text><path stroke="transparent" d="m22.1 25.277.3-.52 7.325 4.23v.693L22.1 25.277Z" stroke-width=".05"/><text stroke="transparent" transform="matrix(.05 0 0 .05 25.836 47.344)" style="font:200px 'Arial'">
O</text><path stroke="transparent" d="M31.32 38.411h-.6v-9.826h.6v9.826ZM28.73 38.411h-.6v-9.826h.6v9.826Z" stroke-width=".05"/></svg>