<svg width="76" height="52" xmlns="http://www.w3.org/2000/svg"><path stroke="transparent" d="M50.135 21.787v.693l-12.17 7.027-.3-.173v-.347l12.47-7.2Z" stroke-width=".05"/><text stroke="transparent" transform="matrix(.05 0 0 .05 58.72 32.944)" style="font:200px 'Arial'">
OH</text><path stroke="transparent" d="m58.265 26.48-.3.519-7.83-4.52v-.692l8.13 4.693Z" stroke-width=".05"/><text stroke="transparent" transform="matrix(.05 0 0 .05 46.248 11.345)" style="font:200px 'Arial'">
O</text><path stroke="transparent" d="M48.54 13.061h.6v9.82h-.6v-9.82ZM51.135 13.061h.6v9.82h-.6v-9.82Z" stroke-width=".05"/><text stroke="transparent" transform="matrix(.05 0 0 .05 34.056 47.344)" style="font:200px 'Arial'">
NH</text><text stroke="transparent" transform="matrix(.05 0 0 .05 48.5 49.178)" style="font:150px 'Arial'">
2</text><path stroke="transparent" d="M37.965 38.561h-.6v-9.054l.3-.173.3.173v9.054Z" stroke-width=".05"/><path stroke="transparent" d="M25.195 22.48v-.693l12.47 7.2v.347l-.3.173-12.17-7.027Z" stroke-width=".05"/><text stroke="transparent" transform="matrix(.05 0 0 .05 2.167 32.944)" style="font:200px 'Arial'">
HS</text><path stroke="transparent" d="m17.1 27.154-.3-.52 8.395-4.847v.693L17.1 27.154Z" stroke-width=".05"/></svg>