<svg width="106" height="52" xmlns="http://www.w3.org/2000/svg"><path stroke="transparent" d="M80.135 21.787v.693l-12.17 7.027-.3-.173v-.347l12.47-7.2Z" stroke-width=".05"/><text stroke="transparent" transform="matrix(.05 0 0 .05 88.72 32.944)" style="font:200px 'Arial'">
OH</text><path stroke="transparent" d="m88.265 26.48-.3.519-7.83-4.52v-.692l8.13 4.693Z" stroke-width=".05"/><text stroke="transparent" transform="matrix(.05 0 0 .05 76.249 11.345)" style="font:200px 'Arial'">
O</text><path stroke="transparent" d="M78.54 13.061h.6v9.82h-.6v-9.82ZM81.135 13.061h.6v9.82h-.6v-9.82ZM55.195 22.48v-.693l12.47 7.2v.347l-.3.173-12.17-7.027Z" stroke-width=".05"/><text stroke="transparent" transform="matrix(.05 0 0 .05 64.056 47.344)" style="font:200px 'Arial'">
NH</text><text stroke="transparent" transform="matrix(.05 0 0 .05 78.5 49.178)" style="font:150px 'Arial'">
2</text><path stroke="transparent" d="M67.965 38.561h-.6v-9.054l.3-.173.3.173v9.054ZM42.725 29.68v-.693l12.47-7.2v.693l-12.47 7.2ZM30.255 22.48v-.693l12.47 7.2v.693l-12.47-7.2Z" stroke-width=".05"/><text stroke="transparent" transform="matrix(.05 0 0 .05 2.78 32.944)" style="font:200px 'Arial'">
H</text><text stroke="transparent" transform="matrix(.05 0 0 .05 10.002 34.778)" style="font:150px 'Arial'">
2</text><text stroke="transparent" transform="matrix(.05 0 0 .05 14.172 32.944)" style="font:200px 'Arial'">
N</text><path stroke="transparent" d="m22.925 26.711-.3-.52 7.63-4.404v.693l-7.33 4.231Z" stroke-width=".05"/><text stroke="transparent" transform="matrix(.05 0 0 .05 26.366 11.345)" style="font:200px 'Arial'">
O</text><path stroke="transparent" d="M28.66 13.061h.6v9.82h-.6v-9.82ZM31.25 13.061h.6v9.82h-.6v-9.82Z" stroke-width=".05"/></svg>