<svg width="102" height="52" xmlns="http://www.w3.org/2000/svg"><path stroke="transparent" d="M76.135 21.787v.693l-12.17 7.027-.3-.173v-.347l12.47-7.2Z" stroke-width=".05"/><text stroke="transparent" transform="matrix(.05 0 0 .05 84.72 32.944)" style="font:200px 'Arial'">
OH</text><path stroke="transparent" d="m84.265 26.48-.3.519-7.83-4.52v-.692l8.13 4.693Z" stroke-width=".05"/><text stroke="transparent" transform="matrix(.05 0 0 .05 72.249 11.345)" style="font:200px 'Arial'">
O</text><path stroke="transparent" d="M74.54 13.061h.6v9.82h-.6v-9.82ZM77.135 13.061h.6v9.82h-.6v-9.82Z" stroke-width=".05"/><text stroke="transparent" transform="matrix(.05 0 0 .05 60.056 47.344)" style="font:200px 'Arial'">
NH</text><text stroke="transparent" transform="matrix(.05 0 0 .05 74.5 49.178)" style="font:150px 'Arial'">
2</text><path stroke="transparent" d="M51.195 22.48v-.693l12.47 7.2v.347l-.3.173-12.17-7.027ZM38.725 29.68v-.693l12.47-7.2v.693l-12.47 7.2ZM26.255 22.48v-.693l12.47 7.2v.693l-12.47-7.2Z" stroke-width=".05"/><text stroke="transparent" transform="matrix(.05 0 0 .05 2.673 32.944)" style="font:200px 'Arial'">
HO</text><path stroke="transparent" d="m18.41 27.009-.3-.52 8.145-4.702v.693l-7.845 4.529Z" stroke-width=".05"/><text stroke="transparent" transform="matrix(.05 0 0 .05 22.366 11.345)" style="font:200px 'Arial'">
O</text><path stroke="transparent" d="M24.66 13.061h.6v9.82h-.6v-9.82ZM27.25 13.061h.6v9.82h-.6v-9.82ZM63.965 38.561h-.6v-9.054l.3-.173.3.173v9.054Z" stroke-width=".05"/></svg>