<svg width="44" height="52" xmlns="http://www.w3.org/2000/svg"><path stroke="transparent" d="M18.135 21.787v.693l-12.17 7.027-.6-.347 12.77-7.373Z" stroke-width=".05"/><text stroke="transparent" transform="matrix(.05 0 0 .05 26.72 32.944)" style="font:200px 'Arial'">
OH</text><path stroke="transparent" d="m26.265 26.48-.3.519-7.83-4.52v-.692l8.13 4.693Z" stroke-width=".05"/><text stroke="transparent" transform="matrix(.05 0 0 .05 14.248 11.345)" style="font:200px 'Arial'">
O</text><path stroke="transparent" d="M16.54 13.061h.6v9.82h-.6v-9.82ZM19.135 13.061h.6v9.82h-.6v-9.82Z" stroke-width=".05"/><text stroke="transparent" transform="matrix(.05 0 0 .05 2.056 47.344)" style="font:200px 'Arial'">
NH</text><text stroke="transparent" transform="matrix(.05 0 0 .05 16.5 49.178)" style="font:150px 'Arial'">
2</text><path stroke="transparent" d="M5.965 38.561h-.6V29.16l.6.347v9.054Z" stroke-width=".05"/></svg>