<svg width="92" height="53" xmlns="http://www.w3.org/2000/svg"><path stroke="transparent" d="M66.135 21.787v.693l-12.17 7.027-.3-.173v-.347l12.47-7.2Z" stroke-width=".05"/><text stroke="transparent" transform="matrix(.05 0 0 .05 74.72 32.944)" style="font:200px 'Arial'">
OH</text><path stroke="transparent" d="m74.265 26.48-.3.519-7.83-4.52v-.692l8.13 4.693Z" stroke-width=".05"/><text stroke="transparent" transform="matrix(.05 0 0 .05 62.248 11.345)" style="font:200px 'Arial'">
O</text><path stroke="transparent" d="M64.54 13.061h.6v9.82h-.6v-9.82ZM67.135 13.061h.6v9.82h-.6v-9.82Z" stroke-width=".05"/><text stroke="transparent" transform="matrix(.05 0 0 .05 50.056 47.344)" style="font:200px 'Arial'">
NH</text><text stroke="transparent" transform="matrix(.05 0 0 .05 64.5 49.178)" style="font:150px 'Arial'">
2</text><path stroke="transparent" d="M41.195 22.48v-.693l12.47 7.2v.347l-.3.173-12.17-7.027ZM29.01 29.517l-.285-.183-.015-.337 12.485-7.21v.693L29.01 29.517Z" stroke-width=".05"/><path stroke="transparent" d="M53.965 38.561h-.6v-9.054l.3-.173.3.173v9.054Z" stroke-width=".05"/><text stroke="transparent" transform="matrix(.05 0 0 .05 11.959 27.087)" style="font:200px 'Arial'">
N</text><text stroke="transparent" transform="matrix(.05 0 0 .05 2.301 50.26)" style="font:200px 'Arial'">
HN</text><path stroke="transparent" d="m20.455 25.98.245-.548 8.01 3.565.015.337-.32.185-7.95-3.54ZM6.305 34.216l-.74-.077 5.65-6.276.445.401-5.355 5.952ZM9.345 34.713l-.445-.401 4.245-4.715.445.402-4.245 4.714Z" stroke-width=".05"/><path stroke="transparent" d="m10.325 41.185-.52.3-4.24-7.346.74.077 4.02 6.969ZM26.945 43.407l.55.496-9.575 2.035-.125-.587 9.15-1.944Z" stroke-width=".05"/><path stroke="transparent" d="m28.405 29.519.32-.185.285.183-1.515 14.386-.55-.496 1.46-13.888ZM25.65 30.904l.6.062-1.115 10.576-.595-.062 1.11-10.576Z" stroke-width=".05"/></svg>