<svg width="78" height="52" xmlns="http://www.w3.org/2000/svg"><path stroke="transparent" d="M52.135 21.787v.693l-12.17 7.027-.3-.173v-.347l12.47-7.2Z" stroke-width=".05"/><text stroke="transparent" transform="matrix(.05 0 0 .05 60.72 32.944)" style="font:200px 'Arial'">
OH</text><path stroke="transparent" d="m60.265 26.48-.3.519-7.83-4.52v-.692l8.13 4.693Z" stroke-width=".05"/><text stroke="transparent" transform="matrix(.05 0 0 .05 48.248 11.345)" style="font:200px 'Arial'">
O</text><path stroke="transparent" d="M50.54 13.061h.6v9.82h-.6v-9.82ZM53.135 13.061h.6v9.82h-.6v-9.82Z" stroke-width=".05"/><text stroke="transparent" transform="matrix(.05 0 0 .05 36.056 47.344)" style="font:200px 'Arial'">
NH</text><text stroke="transparent" transform="matrix(.05 0 0 .05 50.5 49.178)" style="font:150px 'Arial'">
2</text><path stroke="transparent" d="M27.195 22.48v-.346l.3-.174 12.17 7.027v.347l-.3.173-12.17-7.027ZM14.725 29.68v-.693l12.17-7.027.3.174v.346l-12.47 7.2Z" stroke-width=".05"/><path stroke="transparent" d="M39.965 38.561h-.6v-9.054l.3-.173.3.173v9.054ZM26.895 7.734h.6V21.96l-.3.174-.3-.174V7.734ZM2.105 22.393l.3-.52 12.32 7.114v.693l-12.62-7.287Z" stroke-width=".05"/></svg>