<svg width="78" height="52" xmlns="http://www.w3.org/2000/svg"><path stroke="transparent" d="M52.135 21.787v.693l-12.17 7.027-.3-.173v-.347l12.47-7.2Z" stroke-width=".05"/><text stroke="transparent" transform="matrix(.05 0 0 .05 60.72 32.944)" style="font:200px 'Arial'">
OH</text><path stroke="transparent" d="m60.265 26.48-.3.519-7.83-4.52v-.692l8.13 4.693Z" stroke-width=".05"/><text stroke="transparent" transform="matrix(.05 0 0 .05 48.248 11.345)" style="font:200px 'Arial'">
O</text><path stroke="transparent" d="M50.54 13.061h.6v9.82h-.6v-9.82ZM53.135 13.061h.6v9.82h-.6v-9.82Z" stroke-width=".05"/><text stroke="transparent" transform="matrix(.05 0 0 .05 36.056 47.344)" style="font:200px 'Arial'">
NH</text><text stroke="transparent" transform="matrix(.05 0 0 .05 50.5 49.178)" style="font:150px 'Arial'">
2</text><path stroke="transparent" d="M27.195 22.48v-.693l12.47 7.2v.347l-.3.173-12.17-7.027ZM15.025 29.507l-.3-.173v-.347l12.47-7.2v.693l-12.17 7.027ZM2.105 22.393l.3-.52 12.32 7.114v.347l-.3.173-12.32-7.114Z" stroke-width=".05"/><path stroke="transparent" d="M39.965 38.561h-.6v-9.054l.3-.173.3.173v9.054ZM15.025 43.734h-.6V29.507l.3-.173.3.173v14.227Z" stroke-width=".05"/></svg>