<svg width="118" height="52" xmlns="http://www.w3.org/2000/svg"><path stroke="transparent" d="M92.135 21.787v.693l-12.17 7.027-.3-.173v-.347l12.47-7.2Z" stroke-width=".05"/><text stroke="transparent" transform="matrix(.05 0 0 .05 100.719 32.944)" style="font:200px 'Arial'">
OH</text><path stroke="transparent" d="m100.265 26.48-.3.519-7.83-4.52v-.692l8.13 4.693Z" stroke-width=".05"/><text stroke="transparent" transform="matrix(.05 0 0 .05 88.249 11.345)" style="font:200px 'Arial'">
O</text><path stroke="transparent" d="M90.54 13.061h.6v9.82h-.6v-9.82ZM93.135 13.061h.6v9.82h-.6v-9.82Z" stroke-width=".05"/><text stroke="transparent" transform="matrix(.05 0 0 .05 76.056 47.344)" style="font:200px 'Arial'">
NH</text><text stroke="transparent" transform="matrix(.05 0 0 .05 90.5 49.178)" style="font:150px 'Arial'">
2</text><path stroke="transparent" d="M79.965 38.561h-.6v-9.054l.3-.173.3.173v9.054ZM67.195 22.48v-.693l12.47 7.2v.347l-.3.173-12.17-7.027Z" stroke-width=".05"/><path stroke="transparent" d="M54.725 29.68v-.693l12.47-7.2v.693l-12.47 7.2ZM42.255 22.48v-.693l12.47 7.2v.693l-12.47-7.2ZM29.785 29.68v-.693l12.47-7.2v.693l-12.47 7.2Z" stroke-width=".05"/><text stroke="transparent" transform="matrix(.05 0 0 .05 2.31 25.744)" style="font:200px 'Arial'">
H</text><text stroke="transparent" transform="matrix(.05 0 0 .05 9.532 27.578)" style="font:150px 'Arial'">
2</text><text stroke="transparent" transform="matrix(.05 0 0 .05 13.702 25.744)" style="font:200px 'Arial'">
N</text><path stroke="transparent" d="m22.16 25.277.3-.52 7.325 4.23v.693l-7.625-4.403Z" stroke-width=".05"/></svg>