<svg width="91" height="52" xmlns="http://www.w3.org/2000/svg"><path stroke="transparent" d="M65.135 21.787v.693l-12.17 7.027-.3-.173v-.347l12.47-7.2Z" stroke-width=".05"/><text stroke="transparent" transform="matrix(.05 0 0 .05 73.72 32.944)" style="font:200px 'Arial'">
OH</text><path stroke="transparent" d="m73.265 26.48-.3.519-7.83-4.52v-.692l8.13 4.693Z" stroke-width=".05"/><text stroke="transparent" transform="matrix(.05 0 0 .05 61.248 11.345)" style="font:200px 'Arial'">
O</text><path stroke="transparent" d="M63.54 13.061h.6v9.82h-.6v-9.82ZM66.135 13.061h.6v9.82h-.6v-9.82Z" stroke-width=".05"/><text stroke="transparent" transform="matrix(.05 0 0 .05 49.056 47.344)" style="font:200px 'Arial'">
NH</text><text stroke="transparent" transform="matrix(.05 0 0 .05 63.5 49.178)" style="font:150px 'Arial'">
2</text><path stroke="transparent" d="M52.965 38.561h-.6v-9.054l.3-.173.3.173v9.054Z" stroke-width=".05"/><path stroke="transparent" d="M40.195 22.48v-.693l12.47 7.2v.347l-.3.173-12.17-7.027ZM27.725 29.68v-.693l12.47-7.2v.693l-12.47 7.2Z" stroke-width=".05"/><text stroke="transparent" transform="matrix(.05 0 0 .05 11.919 25.744)" style="font:200px 'Arial'">
S</text><path stroke="transparent" d="m19.5 24.93.3-.52 7.925 4.577v.693L19.5 24.93ZM2.935 29.593l-.3-.52 8.065-4.657.3.52-8.065 4.657Z" stroke-width=".05"/></svg>