<svg width="91" height="54" xmlns="http://www.w3.org/2000/svg"><path stroke="transparent" d="M65.135 21.787v.693l-12.17 7.027-.3-.173v-.347l12.47-7.2Z" stroke-width=".05"/><text stroke="transparent" transform="matrix(.05 0 0 .05 73.72 32.944)" style="font:200px 'Arial'">
OH</text><path stroke="transparent" d="m73.265 26.48-.3.519-7.83-4.52v-.692l8.13 4.693Z" stroke-width=".05"/><text stroke="transparent" transform="matrix(.05 0 0 .05 61.248 11.345)" style="font:200px 'Arial'">
O</text><path stroke="transparent" d="M63.54 13.061h.6v9.82h-.6v-9.82ZM66.135 13.061h.6v9.82h-.6v-9.82ZM40.195 22.48v-.693l12.47 7.2v.347l-.3.173-12.17-7.027Z" stroke-width=".05"/><text stroke="transparent" transform="matrix(.05 0 0 .05 49.056 47.344)" style="font:200px 'Arial'">
NH</text><text stroke="transparent" transform="matrix(.05 0 0 .05 63.5 49.178)" style="font:150px 'Arial'">
2</text><path stroke="transparent" d="M52.965 38.561h-.6v-9.054l.3-.173.3.173v9.054ZM28.025 29.507l-.3-.173v-.347l12.47-7.2v.693l-12.17 7.027Z" stroke-width=".05"/><path stroke="transparent" d="M15.255 22.48v-.693l12.47 7.2v.347l-.3.173-12.17-7.027ZM15.105 25.386l.3-.52 9.88 5.704-.3.52-9.88-5.704ZM3.085 29.507l-.6-.347 12.77-7.373v.693l-12.17 7.027ZM3.085 43.56l-.6.347V29.16l.6.347V43.56ZM5.675 42.237h-.6V30.83h.6v11.407ZM15.255 50.587v.693l-12.77-7.373.6-.347 12.17 7.027ZM27.425 43.56l.6.347-12.77 7.373v-.693l12.17-7.027ZM24.985 41.977l.3.52-9.88 5.703-.3-.52 9.88-5.703Z" stroke-width=".05"/><path stroke="transparent" d="m27.425 29.507.3-.173.3.173v14.4l-.6-.347V29.507Z" stroke-width=".05"/></svg>