<svg width="64" height="50" xmlns="http://www.w3.org/2000/svg"><path stroke="transparent" d="M38.135 21.787v.693L25.95 29.517l-.285-.183-.015-.337 12.485-7.21Z" stroke-width=".05"/><text stroke="transparent" transform="matrix(.05 0 0 .05 46.72 32.944)" style="font:200px 'Arial'">
OH</text><path stroke="transparent" d="m46.265 26.48-.3.519-7.83-4.52v-.692l8.13 4.693Z" stroke-width=".05"/><text stroke="transparent" transform="matrix(.05 0 0 .05 34.248 11.345)" style="font:200px 'Arial'">
O</text><path stroke="transparent" d="M36.54 13.061h.6v9.82h-.6v-9.82ZM39.135 13.061h.6v9.82h-.6v-9.82Z" stroke-width=".05"/><text stroke="transparent" transform="matrix(.05 0 0 .05 20.55 47.266)" style="font:200px 'Arial'">
NH</text><path stroke="transparent" d="m12.59 23.839-.155-.725 13.215 5.883.015.337-.32.185-12.755-5.68ZM3.245 34.216l-.74-.077 9.93-11.025.155.725-9.345 10.377Z" stroke-width=".05"/><path stroke="transparent" d="m10.225 46.31-.3.677-7.42-12.848.74.077 6.98 12.093Z" stroke-width=".05"/><path stroke="transparent" d="m19.285 44.385.12.587-9.48 2.015.3-.678 9.06-1.924ZM25.345 29.519l.32-.185.285.183L25 38.56l-.6-.062.945-8.98Z" stroke-width=".05"/></svg>