<svg width="109" height="64" xmlns="http://www.w3.org/2000/svg"><path stroke="transparent" d="M82.47 21.453v.694L70.3 29.173 70 29v-.346l12.47-7.2Z" stroke-width=".05"/><text stroke="transparent" transform="matrix(.05 0 0 .05 91.053 32.611)" style="font:200px 'Arial'">
OH</text><path stroke="transparent" d="m90.6 26.146-.3.52-7.83-4.52v-.693l8.13 4.693Z" stroke-width=".05"/><text stroke="transparent" transform="matrix(.05 0 0 .05 78.582 11.011)" style="font:200px 'Arial'">
O</text><path stroke="transparent" d="M80.875 12.728h.6v9.82h-.6v-9.82ZM83.465 12.728h.6v9.82h-.6v-9.82ZM57.53 22.147v-.694l12.47 7.2V29l-.3.173-12.17-7.026Z" stroke-width=".05"/><text stroke="transparent" transform="matrix(.05 0 0 .05 66.389 47.011)" style="font:200px 'Arial'">
NH</text><text stroke="transparent" transform="matrix(.05 0 0 .05 80.833 48.844)" style="font:150px 'Arial'">
2</text><path stroke="transparent" d="M70.3 38.228h-.6v-9.055L70 29l.3.173v9.055ZM45.36 29.173l-.3-.173-.045-.322 12.515-7.225v.694l-12.17 7.026Z" stroke-width=".05"/><text stroke="transparent" transform="matrix(.05 0 0 .05 28.758 52.152)" style="font:200px 'Arial'">
N</text><text stroke="transparent" transform="matrix(.05 0 0 .05 28.758 60.985)" style="font:200px 'Arial'">
H</text><path stroke="transparent" d="m31.28 25.619-.13-.346.205-.255 13.66 3.66.045.322-.3.23-13.48-3.611ZM23.675 37.33l-.37.02-.16-.3 7.66-11.795.345.018.13.346-7.605 11.712ZM22.15 34.921l-.505-.326 6.265-9.642.5.327-6.26 9.641Z" stroke-width=".05"/><path stroke="transparent" d="m28.715 43.552-.465.378-5.085-6.28.14-.3.37-.02 5.04 6.222ZM44.76 43.178l.6.404-7.895 3.21-.225-.555 7.52-3.059Z" stroke-width=".05"/><path stroke="transparent" d="m44.76 29.23.3-.23.3.173v14.409l-.6-.404V29.23ZM42.17 30.986h.6v10.653h-.6V30.986ZM24.43 12.743l.365-.6 6.56 12.875-.205.255-.345-.018-6.375-12.512Z" stroke-width=".05"/><path stroke="transparent" d="m10.4 12.743-.335-.6h14.73l-.365.6H10.4ZM11.685 15.331v-.6h11.34v.6h-11.34Z" stroke-width=".05"/><path stroke="transparent" d="m2.735 25.282-.69-.018 8.02-13.121.335.6-7.665 12.539Z" stroke-width=".05"/><path stroke="transparent" d="m9.105 37.05-.36.6-6.7-12.386.69.018 6.37 11.768ZM10.665 34.735l-.53.286-5.16-9.53.53-.286 5.16 9.53Z" stroke-width=".05"/><path stroke="transparent" d="m23.145 37.05.16.3-.14.3H8.745l.36-.6h14.04Z" stroke-width=".05"/></svg>