<svg width="114" height="57" xmlns="http://www.w3.org/2000/svg"><path stroke="transparent" d="M88.135 21.787v.693l-12.17 7.027-.3-.173v-.347l12.47-7.2Z" stroke-width=".05"/><text stroke="transparent" transform="matrix(.05 0 0 .05 96.72 32.944)" style="font:200px 'Arial'">
OH</text><path stroke="transparent" d="m96.265 26.48-.3.519-7.83-4.52v-.692l8.13 4.693Z" stroke-width=".05"/><text stroke="transparent" transform="matrix(.05 0 0 .05 84.249 11.345)" style="font:200px 'Arial'">
O</text><path stroke="transparent" d="M86.54 13.061h.6v9.82h-.6v-9.82ZM89.135 13.061h.6v9.82h-.6v-9.82Z" stroke-width=".05"/><text stroke="transparent" transform="matrix(.05 0 0 .05 72.056 47.344)" style="font:200px 'Arial'">
NH</text><text stroke="transparent" transform="matrix(.05 0 0 .05 86.5 49.178)" style="font:150px 'Arial'">
2</text><path stroke="transparent" d="M63.195 22.48v-.693l12.47 7.2v.347l-.3.173-12.17-7.027Z" stroke-width=".05"/><path stroke="transparent" d="M75.965 38.561h-.6v-9.054l.3-.173.3.173v9.054ZM51.025 29.507l-.3-.173v-.347l12.47-7.2v.693l-12.17 7.027ZM38.255 22.48v-.693l12.47 7.2v.347l-.3.173-12.17-7.027ZM38.105 25.386l.3-.52 9.88 5.704-.3.52-9.88-5.704ZM26.085 29.507l-.6-.347 12.77-7.373v.693l-12.17 7.027Z" stroke-width=".05"/><path stroke="transparent" d="m26.085 43.56-.3.174-.3-.174v-14.4l.6.347V43.56ZM28.675 42.237h-.6V30.83h.6v11.407ZM38.255 50.587v.693l-12.47-7.2v-.346l.3-.174 12.17 7.027Z" stroke-width=".05"/><path stroke="transparent" d="m50.425 43.56.6.347-12.77 7.373v-.693l12.17-7.027ZM47.985 41.977l.3.52-9.88 5.703-.3-.52 9.88-5.703Z" stroke-width=".05"/><path stroke="transparent" d="m50.425 29.507.3-.173.3.173v14.4l-.6-.347V29.507Z" stroke-width=".05"/><text stroke="transparent" transform="matrix(.05 0 0 .05 2.202 54.544)" style="font:200px 'Arial'">
HO</text><path stroke="transparent" d="m17.94 48.609-.3-.52 7.845-4.529.3.174v.346l-7.845 4.529Z" stroke-width=".05"/></svg>