<svg width="66" height="52" xmlns="http://www.w3.org/2000/svg"><path stroke="transparent" d="M40.135 21.787v.693l-12.17 7.027-.3-.173v-.347l12.47-7.2Z" stroke-width=".05"/><text stroke="transparent" transform="matrix(.05 0 0 .05 48.72 32.944)" style="font:200px 'Arial'">
OH</text><path stroke="transparent" d="m48.265 26.48-.3.519-7.83-4.52v-.692l8.13 4.693Z" stroke-width=".05"/><text stroke="transparent" transform="matrix(.05 0 0 .05 36.248 11.345)" style="font:200px 'Arial'">
O</text><path stroke="transparent" d="M38.54 13.061h.6v9.82h-.6v-9.82ZM41.135 13.061h.6v9.82h-.6v-9.82Z" stroke-width=".05"/><text stroke="transparent" transform="matrix(.05 0 0 .05 24.056 47.344)" style="font:200px 'Arial'">
NH</text><text stroke="transparent" transform="matrix(.05 0 0 .05 38.5 49.178)" style="font:150px 'Arial'">
2</text><path stroke="transparent" d="M27.965 38.561h-.6v-9.054l.3-.173.3.173v9.054Z" stroke-width=".05"/><path stroke="transparent" d="M15.195 22.48v-.346l.3-.174 12.17 7.027v.347l-.3.173-12.17-7.027Z" stroke-width=".05"/><path stroke="transparent" d="m2.875 29.593-.3-.52 12.32-7.113.3.174v.346l-12.32 7.113Z" stroke-width=".05"/><path stroke="transparent" d="M14.895 7.734h.6V21.96l-.3.174-.3-.174V7.734Z" stroke-width=".05"/></svg>