<?xml version="1.0" encoding="UTF-8" standalone="no"?>
<svg
   width="76"
   height="52"
   version="1.1"
   id="svg24"
   sodipodi:docname="cysteine.svg"
   inkscape:version="1.2 (dc2aedaf03, 2022-05-15)"
   xmlns:inkscape="http://www.inkscape.org/namespaces/inkscape"
   xmlns:sodipodi="http://sodipodi.sourceforge.net/DTD/sodipodi-0.dtd"
   xmlns="http://www.w3.org/2000/svg"
   xmlns:svg="http://www.w3.org/2000/svg">
  <defs
     id="defs28" />
  <sodipodi:namedview
     id="namedview26"
     pagecolor="#ffffff"
     bordercolor="#999999"
     borderopacity="1"
     inkscape:showpageshadow="0"
     inkscape:pageopacity="0"
     inkscape:pagecheckerboard="0"
     inkscape:deskcolor="#d1d1d1"
     showgrid="false"
     inkscape:zoom="4.5384615"
     inkscape:cx="31.949153"
     inkscape:cy="26"
     inkscape:window-width="2560"
     inkscape:window-height="1017"
     inkscape:window-x="-8"
     inkscape:window-y="-8"
     inkscape:window-maximized="1"
     inkscape:current-layer="svg24" />
  <path
     stroke="transparent"
     d="M50.135 21.787v.693l-12.17 7.027-.3-.173v-.347l12.47-7.2Z"
     stroke-width=".05"
     id="path2" />
  <text
     stroke="transparent"
     transform="matrix(.05 0 0 .05 58.72 32.944)"
     style="font:200px 'Arial'"
     id="text4">
OH</text>
  <path
     stroke="transparent"
     d="m58.265 26.48-.3.519-7.83-4.52v-.692l8.13 4.693Z"
     stroke-width=".05"
     id="path6" />
  <text
     stroke="transparent"
     transform="matrix(.05 0 0 .05 46.248 11.345)"
     style="font:200px 'Arial'"
     id="text8">
O</text>
  <path
     stroke="transparent"
     d="M48.54 13.061h.6v9.82h-.6v-9.82ZM51.135 13.061h.6v9.82h-.6v-9.82Z"
     stroke-width=".05"
     id="path10" />
  <text
     stroke="transparent"
     transform="matrix(.05 0 0 .05 34.056 47.344)"
     style="font:200px 'Arial'"
     id="text12">
NH</text>
  <text
     stroke="transparent"
     transform="matrix(.05 0 0 .05 48.5 49.178)"
     style="font:150px 'Arial'"
     id="text14">
2</text>
  <path
     stroke="transparent"
     d="M37.965 38.561h-.6v-9.054l.3-.173.3.173v9.054Z"
     stroke-width=".05"
     id="path16" />
  <path
     stroke="transparent"
     d="M25.195 22.48v-.693l12.47 7.2v.347l-.3.173-12.17-7.027Z"
     stroke-width=".05"
     id="path18" />
  <text
     stroke="transparent"
     transform="matrix(.05 0 0 .05 2.167 32.944)"
     style="font:200px 'Arial'"
     id="text20">
HS</text>
  <path
     stroke="transparent"
     d="m17.1 27.154-.3-.52 8.395-4.847v.693L17.1 27.154Z"
     stroke-width=".05"
     id="path22" />
</svg>
