<svg width="55" height="48" xmlns="http://www.w3.org/2000/svg"><path stroke="transparent" d="m27.53 38.57-.6-.346V24.22l.3-.173.3.173v14.35Z" stroke-width=".05"/><path stroke="transparent" d="M14.805 45.918v-.692l12.125-7.002.6.346-12.725 7.348ZM14.955 42.849l-.3-.52 9.845-5.683.3.52-9.845 5.683Z" stroke-width=".05"/><path stroke="transparent" d="m2.075 38.57.6-.346 12.13 7.002v.692L2.075 38.57ZM2.075 23.874l.6.346v14.004l-.6.346V23.874ZM4.66 25.538h.6v11.368h-.6V25.538Z" stroke-width=".05"/><path stroke="transparent" d="M14.805 16.526v.692L2.675 24.22l-.6-.346 12.73-7.348ZM14.805 17.218v-.692L27.23 23.7v.346l-.3.173-12.125-7.002ZM14.655 20.114l.3-.52L24.8 25.28l-.3.519-9.845-5.684ZM52.235 23.787l-.3.52-12.275-7.089v-.346l.3-.173 12.275 7.088Z" stroke-width=".05"/><path stroke="transparent" d="M39.36 2.522h.6v14.177l-.3.173-.3-.173V2.522ZM39.36 16.699l.3.173v.346L27.53 24.22l-.3-.173v-.346l12.13-7.002Z" stroke-width=".05"/></svg>