<svg width="43" height="49" xmlns="http://www.w3.org/2000/svg"><path stroke="transparent" d="m15.965 16.809-.3.173-.3-.173V2.632h.6v14.177Z" stroke-width=".05"/><path stroke="transparent" d="m28.395 23.987-.6.347-12.13-7.006v-.346l.3-.173 12.43 7.178Z" stroke-width=".05"/><path stroke="transparent" d="m28.395 38.337-.3.173-.3-.173V24.334l.6-.347v14.35ZM25.81 37.019h-.6V25.652h.6v11.367Z" stroke-width=".05"/><path stroke="transparent" d="M15.67 46.032v-.693l12.125-7.002.3.173v.347L15.67 46.032Z" stroke-width=".05"/><path stroke="transparent" d="m2.94 38.684.6-.347 12.13 7.002v.693L2.94 38.684ZM5.675 37.279l.3-.52 9.845 5.684-.3.52-9.845-5.684Z" stroke-width=".05"/><path stroke="transparent" d="m2.94 23.984.6.346v14.007l-.6.347v-14.7ZM3.54 24.33l-.6-.346 12.425-7.175.3.173v.346L3.54 24.33ZM5.97 25.907l-.3-.519 9.845-5.683.3.519-9.845 5.683ZM40.675 45.426l-.3.519-12.28-7.088v-.347l.3-.173 12.28 7.089Z" stroke-width=".05"/></svg>