<svg width="43" height="48" xmlns="http://www.w3.org/2000/svg"><path stroke="transparent" d="m15.95 16.635-.3.174-.3-.174V2.459h.6v14.176Z" stroke-width=".05"/><path stroke="transparent" d="M28.08 23.637v.346l-.3.173-12.13-7.001v-.346l.3-.174 12.13 7.002Z" stroke-width=".05"/><path stroke="transparent" d="m28.38 38.507-.6-.347V24.156l.3-.173.3.173v14.35ZM25.795 36.842h-.6V25.474h.6v11.368Z" stroke-width=".05"/><path stroke="transparent" d="M15.65 45.855v-.693l12.13-7.002.6.347-12.73 7.348ZM2.925 38.507l.6-.347 12.125 7.002v.693L2.925 38.507ZM5.655 37.102l.3-.52 9.845 5.684-.3.52-9.845-5.684Z" stroke-width=".05"/><path stroke="transparent" d="m2.925 23.81.6.346V38.16l-.6.347V23.81Z" stroke-width=".05"/><path stroke="transparent" d="m3.525 24.156-.6-.346 12.425-7.175.3.174v.346L3.525 24.156ZM5.955 25.734l-.3-.519 9.845-5.684.3.52-9.845 5.683ZM40.355 16.549l.3.519-12.275 7.088-.3-.173v-.346l12.275-7.088Z" stroke-width=".05"/></svg>