<svg width="30" height="63" xmlns="http://www.w3.org/2000/svg"><path stroke="transparent" d="m15.3 16.809-.3.173-.3-.173V2.632h.6v14.177Z" stroke-width=".05"/><path stroke="transparent" d="m27.73 23.983-.6.347L15 17.328v-.346l.3-.173 12.43 7.174Z" stroke-width=".05"/><path stroke="transparent" d="m27.73 38.68-.6-.347V24.33l.6-.347V38.68ZM25.145 37.015h-.6V25.648h.6v11.367ZM15.3 45.859l-.3-.174v-.346l12.13-7.006.6.347-12.43 7.179ZM2.27 38.684l.6-.347L15 45.339v.346l-.3.174-12.43-7.175ZM5.005 37.279l.3-.52 9.845 5.684-.3.519-9.845-5.683Z" stroke-width=".05"/><path stroke="transparent" d="m2.275 23.983.6.347-.005 14.007-.6.347.005-14.701ZM2.875 24.33l-.6-.347L14.7 16.809l.3.173v.346L2.875 24.33ZM5.305 25.908l-.3-.52 9.845-5.683.3.519-9.845 5.684ZM15.3 60.035h-.6V45.859l.3-.174.3.174v14.176Z" stroke-width=".05"/></svg>