<svg width="56" height="35" xmlns="http://www.w3.org/2000/svg"><path stroke="transparent" d="M15.69 32.08v-.693l12.13-7.001.6.346-12.73 7.348ZM2.965 24.732l.6-.346 12.125 7.001v.693L2.965 24.732ZM5.695 23.327l.3-.52 9.845 5.684-.3.52-9.845-5.684Z" stroke-width=".05"/><path stroke="transparent" d="m2.965 10.036.6.346v14.004l-.6.346V10.036Z" stroke-width=".05"/><path stroke="transparent" d="M15.69 2.687v.693L3.565 10.382l-.6-.346L15.69 2.687ZM15.54 5.757l.3.519-9.845 5.684-.3-.52 9.845-5.683ZM28.12 9.862v.347l-.3.173L15.69 3.38v-.693l12.43 7.175Z" stroke-width=".05"/><path stroke="transparent" d="m27.82 10.382.3-.173.3.173v14.35l-.6-.346V10.382ZM25.235 11.7h.6v11.367h-.6V11.7Z" stroke-width=".05"/><path stroke="transparent" d="M40.59 2.662v.693l-12.17 7.027-.3-.173v-.347l12.47-7.2ZM53.21 9.949l-.3.52-12.32-7.114v-.693l12.62 7.287ZM51.915 12.194l-.3.519L40.44 6.262l.3-.52 11.175 6.452Z" stroke-width=".05"/></svg>