<svg width="42" height="34" xmlns="http://www.w3.org/2000/svg"><path stroke="transparent" d="m27.61 24.374-.6-.347V9.973l.3-.173.3.173v14.4Z" stroke-width=".05"/><path stroke="transparent" d="M14.84 2.946v-.693l12.47 7.2V9.8l-.3.173-12.17-7.027ZM14.69 5.853l.3-.52 9.88 5.703-.3.52-9.88-5.703ZM14.84 31.747v-.693l12.17-7.027.6.347-12.77 7.373ZM14.99 28.667l-.3-.52 9.88-5.703.3.52-9.88 5.703ZM14.84 31.054v.693L2.07 24.374l.6-.347 12.17 7.027Z" stroke-width=".05"/><path stroke="transparent" d="m2.07 9.627.6.346v14.054l-.6.347V9.627ZM4.66 11.297h.6v11.407h-.6V11.297Z" stroke-width=".05"/><path stroke="transparent" d="m2.67 9.973-.6-.346 12.77-7.374v.693L2.67 9.973ZM39.63 2.34l.3.52-12.32 7.113-.3-.173v-.346L39.63 2.34Z" stroke-width=".05"/></svg>