<svg xmlns="http://www.w3.org/2000/svg" xml:space="preserve" width="371.926" height="148.299" viewBox="0 0 98.405 39.238"><path fill="none" d="M23.824 104.706h97.602v38.434H23.824Z" style="fill:#000;fill-opacity:0;stroke:#000;stroke-width:.803675;stroke-linecap:round;stroke-linejoin:round;stroke-dasharray:none" transform="translate(-23.423 -104.304)"/><path d="M23.795 123.354s10.93-.221 15.051-.084c4.282.143 5.757.701 10.032.96 2.11.127 4.22.274 6.334.278 1.826.003 3.649-.132 5.472-.223 3.784-.188 7.557-.676 11.346-.667 2.039.005 4.07.252 6.104.39 2.413.162 4.819.446 7.236.512 2.723.076 8.173-.127 8.173-.127 2.791-.044 6.584-.497 8.008-.657 2.662-.299 3.056-.187 4.58-.09 1.35.085 2.69.473 4.016.59 1.328.118 2.622.117 3.934.119 1.283.002 2.568-.03 3.85-.105 1.119-.065 3.349-.299 3.349-.299" style="fill:none;stroke:#000;stroke-width:.7;stroke-linecap:round;stroke-linejoin:round;stroke-dasharray:none;stroke-opacity:1" transform="translate(-23.423 -104.304)"/></svg>