<svg xmlns="http://www.w3.org/2000/svg" xml:space="preserve" width="371.927" height="148.301" viewBox="0 0 98.406 39.238"><path fill="none" d="M-13.796 164.169h97.602v38.434h-97.602z" style="fill:#000;fill-opacity:0;stroke:#000;stroke-width:.803678;stroke-linecap:round;stroke-linejoin:round;stroke-dasharray:none" transform="translate(14.198 -163.767)"/><path d="M-13.358 184.015s5.369-.603 5.592-3.3c.106-1.285.466-1.546 1.037-.134.488 1.207.896 2.981 1.733 1.225.488-1.024.72 2.625.858 5.376.11 2.202 1.117 3.026 1.439-1.77.336-5.022-1.402-7.75 1.844-9.256 1.853-.86 1.731.799 2.679.563.85-.21 1.385.342 2.399 1.678.856 1.128 1.581 2.866 1.807 5.776M6.06 184.178s5.368-.604 5.591-3.301c.107-1.285.467-1.546 1.038-.134.488 1.207.896 2.981 1.733 1.226.488-1.025.72 2.624.858 5.376.11 2.2 1.117 3.025 1.438-1.77.337-5.023-1.4-7.75 1.845-9.257 1.852-.86 1.731.799 2.679.564.85-.212 1.385.341 2.399 1.677.856 1.128 1.581 2.866 1.807 5.776M25.46 184.34s5.368-.604 5.591-3.301c.107-1.286.467-1.546 1.037-.135.489 1.208.897 2.982 1.734 1.226.488-1.024.72 2.625.857 5.376.11 2.201 1.118 3.026 1.44-1.77.336-5.022-1.402-7.75 1.844-9.256 1.852-.86 1.731.799 2.678.563.851-.21 1.386.342 2.4 1.678.856 1.128 1.581 2.865 1.807 5.776M44.877 184.502s5.37-.604 5.592-3.301c.106-1.285.467-1.546 1.037-.134.488 1.207.897 2.981 1.733 1.225.489-1.024.72 2.625.858 5.377.11 2.2 1.118 3.025 1.44-1.77.336-5.023-1.402-7.75 1.844-9.257 1.852-.86 1.73.799 2.678.564.851-.212 1.386.341 2.4 1.677.855 1.128 1.581 2.866 1.807 5.776M64.277 184.67s5.368-.603 5.591-3.3c.107-1.286.467-1.547 1.038-.135.488 1.208.896 2.981 1.733 1.226.488-1.024.72 2.625.858 5.376.11 2.201 1.117 3.026 1.439-1.77.336-5.023-1.402-7.75 1.844-9.256 1.853-.86 1.731.798 2.679.563.85-.211 1.385.341 2.399 1.678.856 1.128 1.581 2.865 1.807 5.775" style="fill:none;fill-opacity:.0766773;stroke:#000;stroke-width:.7;stroke-linecap:round;stroke-linejoin:round;stroke-dasharray:none;stroke-opacity:1" transform="translate(14.198 -163.767)"/></svg>