<svg xmlns="http://www.w3.org/2000/svg" xml:space="preserve" width="371.927" height="148.301" viewBox="0 0 98.406 39.238"><g transform="translate(134.642 -249.772)"><path fill="none" d="M-134.24 250.174h97.602v38.434h-97.602z" style="fill:#000;fill-opacity:0;stroke:#000;stroke-width:.803678;stroke-linecap:round;stroke-linejoin:round;stroke-dasharray:none;stroke-opacity:1"/><circle cx="-110.839" cy="269.391" r="10.79" style="fill:none;fill-opacity:1;stroke:#000;stroke-width:.7;stroke-linecap:round;stroke-linejoin:round;stroke-dasharray:none;stroke-opacity:1"/><ellipse cx="-110.839" cy="269.391" rx="21.317" ry="11.195" style="fill:none;fill-opacity:1;stroke:#040000;stroke-width:.7;stroke-linecap:round;stroke-linejoin:round;stroke-dasharray:none;stroke-opacity:1"/><circle cx="-60.039" cy="269.391" r="10.79" style="fill:none;fill-opacity:1;stroke:#000;stroke-width:.7;stroke-linecap:round;stroke-linejoin:round;stroke-dasharray:none;stroke-opacity:1"/><ellipse cx="-60.039" cy="269.391" rx="21.317" ry="11.195" style="fill:none;fill-opacity:1;stroke:#040000;stroke-width:.7;stroke-linecap:round;stroke-linejoin:round;stroke-dasharray:none;stroke-opacity:1"/><circle cx="-110.839" cy="269.391" r="4.797" style="fill:#000500;fill-opacity:1;stroke:none;stroke-width:.586198;stroke-linecap:round;stroke-linejoin:round;stroke-dasharray:none;stroke-opacity:1"/><path fill="#f06" d="M-57.538 265.29c.795.45 1.556.973 1.928 1.69.372.721.35 1.644.211 2.488-.133.844-.383 1.605-.711 2.4-.328.794-.739 1.61-1.4 2.05-.667.438-1.578.5-2.439.405-.855-.1-1.655-.355-2.26-.833-.606-.472-1.012-1.161-1.467-1.856-.461-.694-.978-1.394-1.078-2.15-.1-.75.211-1.566.633-2.327.423-.761.95-1.467 1.656-1.967.705-.505 1.583-.805 2.439-.766.855.039 1.688.416 2.488.866z" style="fill:#000;fill-opacity:1;stroke-width:.0555515"/></g></svg>