<svg xmlns="http://www.w3.org/2000/svg" xml:space="preserve" width="371.926" height="148.299" viewBox="0 0 98.405 39.238"><path fill="none" d="M25.59 161.854h97.602v38.434H25.59Z" style="fill:#000;fill-opacity:0;stroke:#000;stroke-width:.803675;stroke-linecap:round;stroke-linejoin:round;stroke-dasharray:none;stroke-opacity:1" transform="translate(-25.188 -161.452)"/><g style="stroke:#000;stroke-width:.7;stroke-dasharray:none;stroke-opacity:1"><path d="M25.851 181.198s.194 1.908 1.497-.447c.705-1.274.922-2.116 1.15-2.08.245.04.34.73.675 2.027.334 1.298.596 2.485.92 2.788.325.304.62-.232 1.124-2.144 1.068-4.043 1.048-2.62 1.683-.91.622 1.674.526 2.21 1.338.108.813-2.109.532-1.697 1.838 1.445.625 1.506.96 2.353 1.416 2.181.443-.167.932-1.327 1.553-2.928.623-1.604.504-1.235 1.347-3.892M40.397 177.356c.135.054.819 7.856 2.643 4.413.726-1.336.813-1.453.99-2.17.147-.593.277-.66.475-.633.198.026.331.356.467.676.136.32.336.78.526 1.188.191.407.368.867.511 1.245.144.377.316.794.497.95.18.156.32.098.532-.166.255-.315.524-.671 1.02-1.537.3-.522.735-1.127.918-1.629.183-.502.219-.848.323-1.146.133-.382.3-.366.45-.149.5.68 1.018 1.703 1.543 2.644.525.94.943 1.864 1.344 1.648.433-.128 1.574-1.668 1.738-1.995.164-.328.29-.799.29-1.208 0-.41.044-.93 1.15-1.057.488-.113.874.6.994 1.129.174.764.438 1.75.758 2.643.103.294.196.548.316.667.12.12.307.11.513-.14 1.667-2.267 1.269-5.846 1.732-1.438.285 2.83.729 2.447 1.543.34.265-.582.336-.75.489-1.189.153-.438.288-1.37.417-1.578.128-.207.236-.224.427-.111.317.225.635.762 1.039 1.324.425.592.642 1.317.768 1.98.053.234.186.547.421.708.236.161.596.188.916.211.32.024.799.008 1.106-.17.307-.18.419-.541.615-.989 0 0 .55-4.852 1.66-1.824 1.111 3.029 1.345 2.374 1.66.246.316-2.128.663-2.828 1.988-.105 1.327 2.725 1.965 3.378 2.935.023.421-1.455.851-2.61 1.533-2.253.554.29 1.085 1.076 1.882 2.674 1.705 3.42 2.217 2.95 3.297.83 1.013-1.988 1.376-2.476 2.444.082 1.113 2.664 1.052 1.263 1.894-.62.842-1.882.205-4.748 2.163-.128.786 1.84 1.226 2.637 1.565 2.486.326-.145.875-1.16 1.406-2.07.583-1 .998-1.798 1.168-2.192.353-.816.897-.765 1.217.677.748 2.133 1.112.807 1.313.222.113-.33.274-.618.509-.64.421-.041.531.484.863 1.718.402 1.353.777 1.463 1.123 1.169.308-.262.729-1.056.917-1.591.186-.528.592-1.11.873-1.19.28-.081.746.07 1.403 1.198.507.818.727 1.147 1.127 1.106.32-.034.422-.52.472-.929.231-2.151 1.501-1.083 2.577-.301 1.292.84 1.958 1.483 2.458 1.376.503-.108.781-.728.915-1.111 1.524-3.415 2.219-1.177 3.014.676.21.493.297.746.49 1.148.194.401.355 1.059.569 1.186.214.127.572-.082.792-.448.874-1.577 1.857-3.135 2.416-4.398.21-.48.465-.844.732-.575.298.3.51 1.057.859 2.303.462 1.649.5 2.176.884 2.244.285.05.46-.445 1.175-1.64.573-.96.707-1.525.992-1.772.298-.257.612-.183.993.347.203.284.749 1.008.937 1.248.19.24.129-.03.129-.03" style="fill:none;stroke:#000;stroke-width:.7;stroke-linecap:round;stroke-linejoin:round;stroke-dasharray:none;stroke-opacity:1" transform="translate(-25.188 -161.452)"/></g></svg>