<svg xmlns="http://www.w3.org/2000/svg" xml:space="preserve" width="371.926" height="148.299" viewBox="0 0 98.405 39.238"><path fill="none" d="M23.947 61.873h97.601v38.434H23.947Z" style="fill:#000;fill-opacity:0;stroke:#000;stroke-width:.803675;stroke-linecap:round;stroke-linejoin:round;stroke-dasharray:none" transform="translate(-23.545 -61.471)"/><path d="M35.46 88.893c.123.05 1.002-6.762 8.21-8.255 3.794-.786 5.033-.117 7.874-4.42 1.571-2.38 3.699-1.867 5.13-1.969l10.623-.334M84.38 88.673c.122.05.942-6.486 8.15-7.98 3.793-.785 5.033-.117 7.874-4.42 1.571-2.379 3.698-1.866 5.13-1.968l10.623-.334M67.325 74.082c.094 2.792.88 10.697 2.586 12.931 1.422 1.861 2.498 1.732 5.432 1.732 2.444 0 4.79.14 9.046-.056M116.217 74.123c.095 2.792 1.056 10.574 2.587 12.931 1.067 1.645 2.124 1.417 2.384 1.536" style="fill:none;stroke:#000;stroke-width:1.5;stroke-linecap:round;stroke-linejoin:round;stroke-opacity:1" transform="translate(-23.545 -61.471)"/><path d="M24.444 88.897H35.45" style="fill:none;stroke:#000;stroke-width:1.50734;stroke-linecap:round;stroke-linejoin:round;stroke-opacity:1" transform="translate(-23.545 -61.471)"/></svg>