<svg xmlns="http://www.w3.org/2000/svg" xml:space="preserve" width="336.572" height="136.06" viewBox="0 0 89.051 35.999"><g fill="none"><path d="M28.001 89.547h88.251v35.199H28.001z" style="fill:#ed333b;fill-opacity:0;stroke:#000;stroke-width:.8;stroke-linecap:round;stroke-linejoin:round;stroke-dasharray:none;stroke-opacity:1" transform="translate(-27.601 -89.147)"/><path d="M28.001 107.147s1.848-21.217 3.304-.098c1.455 21.119 3.657-1.455 3.657-1.455s1.573-17.973 3.028-.118 2.674 8.927 3.933-.393c1.258-9.32 1.73-11.209 3.146 2.32s2.084 8.613 3.5-1.337 1.81-12.9 3.382 1.258c1.573 14.158 2.189 7.972 3.619-2.163 1.516-10.751 1.651-9.438 2.91.865 1.258 10.304 1.494 15.299 3.618.63 2.124-14.67 1.888-9.36 3.421.786 1.534 10.147 1.298 12.35 3.461-1.14s1.888-7.551 3.304 1.652c1.415 9.202 1.061 13.096 3.264-.158 2.202-13.253 1.534-12.152 3.657.944 2.124 13.096 2.4 7.866 3.304-2.006.904-9.87 1.887-13.174 3.54 3.147 1.657 16.38 3.145-2.675 3.145-2.675s1.691-19.663 3.265.236c1.575 19.933 3.46.079 3.46.079s1.652-20.372 3.383.079c1.73 20.45 3.539-.708 3.539-.708s1.888-19.231 3.303.196c1.416 19.428 3.068 2.753 3.068 2.753.419-.93 1.756-25.322 4.13-.118 1.482 15.739 2.881-1.198 2.91-.393" style="fill:#000;fill-opacity:0;stroke:#000;stroke-width:.8;stroke-linecap:round;stroke-linejoin:round;stroke-dasharray:none;stroke-opacity:1" transform="translate(-27.601 -89.147)"/></g></svg>