<svg xmlns="http://www.w3.org/2000/svg" xml:space="preserve" width="371.927" height="148.301" viewBox="0 0 98.406 39.238"><g transform="translate(134.642 -249.772)"><path fill="none" d="M-134.24 250.174h97.602v38.434h-97.602z" style="fill:#000;fill-opacity:0;stroke:#000;stroke-width:.803678;stroke-linecap:round;stroke-linejoin:round;stroke-dasharray:none;stroke-opacity:1"/><circle cx="-110.839" cy="269.391" r="3.775" style="fill:#000;fill-opacity:1;stroke:none;stroke-width:.461253;stroke-linecap:round;stroke-linejoin:round;stroke-dasharray:none;stroke-opacity:1"/><circle cx="-110.839" cy="269.391" r="10.79" style="fill:none;fill-opacity:1;stroke:#000;stroke-width:.7;stroke-linecap:round;stroke-linejoin:round;stroke-dasharray:none;stroke-opacity:1"/><ellipse cx="-110.839" cy="269.391" rx="21.317" ry="11.195" style="fill:none;fill-opacity:1;stroke:#040000;stroke-width:.7;stroke-linecap:round;stroke-linejoin:round;stroke-dasharray:none;stroke-opacity:1"/><circle cx="-60.039" cy="269.391" r="10.79" style="fill:none;fill-opacity:1;stroke:#000;stroke-width:.7;stroke-linecap:round;stroke-linejoin:round;stroke-dasharray:none;stroke-opacity:1"/><ellipse cx="-60.039" cy="269.391" rx="21.317" ry="11.195" style="fill:none;fill-opacity:1;stroke:#040000;stroke-width:.7;stroke-linecap:round;stroke-linejoin:round;stroke-dasharray:none;stroke-opacity:1"/><path fill="#f06" d="M-58.18 266.343c.59.334 1.157.722 1.433 1.255.277.537.26 1.222.157 1.85-.099.628-.285 1.194-.528 1.784-.244.59-.55 1.198-1.041 1.524-.496.326-1.173.372-1.813.301-.636-.074-1.23-.264-1.68-.619-.45-.351-.752-.863-1.09-1.38-.344-.516-.728-1.036-.802-1.597-.074-.558.157-1.165.47-1.73.315-.566.707-1.09 1.231-1.463.525-.375 1.177-.598 1.813-.57.636.03 1.256.31 1.85.645z" style="fill:#000;fill-opacity:1;stroke-width:.0412955"/></g></svg>