<svg width="188" height="27" xmlns="http://www.w3.org/2000/svg"><text stroke="transparent" transform="matrix(.05 0 0 .05 2.333 20.414)" style="font:200px 'Inter'">
CuO</text><text stroke="transparent" transform="matrix(.05 0 0 .05 46.427 10.667)" style="font:200px 'Inter'">
X</text><text stroke="transparent" transform="matrix(.05 0 0 .05 76.632 20.414)" style="font:200px 'Inter'">
Cu</text><path stroke="transparent" d="M63 18.053H31.325v-.6H63Z" stroke-width=".05"/><path stroke="transparent" d="m68.2 17.753-6 1.55s.75-.872.75-1.55c0-.7-.75-1.6-.75-1.6l6 1.6" stroke-width=".05"/><path stroke="#000" fill="transparent" d="m68.2 17.753-6 1.55s.75-.872.75-1.55c0-.7-.75-1.6-.75-1.6l6 1.6" stroke-width=".05"/><path stroke="transparent" d="M129.52 18.053H97.845v-.6h31.675Z" stroke-width=".05"/><path stroke="transparent" d="m134.72 17.753-6 1.55s.75-.872.75-1.55c0-.7-.75-1.6-.75-1.6l6 1.6" stroke-width=".05"/><path stroke="#000" fill="transparent" d="m134.72 17.753-6 1.55s.75-.872.75-1.55c0-.7-.75-1.6-.75-1.6l6 1.6" stroke-width=".05"/><text stroke="transparent" transform="matrix(.05 0 0 .05 143.152 19.61)" style="font:200px 'Inter'">
Cu(NO</text><text stroke="transparent" transform="matrix(.05 0 0 .05 174.263 21.443)" style="font:150px 'Inter'">
3</text><text stroke="transparent" transform="matrix(.05 0 0 .05 178.433 19.61)" style="font:200px 'Inter'">
)</text><text stroke="transparent" transform="matrix(.05 0 0 .05 181.762 21.443)" style="font:150px 'Inter'">
2</text><text stroke="transparent" transform="matrix(.05 0 0 .05 112.947 10.667)" style="font:200px 'Inter'">
Y</text></svg>