<svg xmlns="http://www.w3.org/2000/svg" width="246.613" height="16.907"><text xml:space="preserve" style="font-variant:normal;font-size:11.9552px;font-family:&quot;Inter V&quot;;-inkscape-font-specification:Inter-Regular-Identity-H;writing-mode:lr-tb;fill:#000;fill-opacity:1;fill-rule:nonzero;stroke:none" transform="matrix(1.33333 0 0 1.33333 1.328 13.081)"><tspan x="0 7.0177026" y="0">Fe</tspan></text><text xml:space="preserve" style="font-variant:normal;font-size:7.9701px;font-family:&quot;Inter V&quot;;-inkscape-font-specification:Inter-Regular-Identity-H;writing-mode:lr-tb;fill:#000;fill-opacity:1;fill-rule:nonzero;stroke:none" transform="matrix(1.33333 0 0 1.33333 19.963 15.472)"><tspan x="0" y="0">2</tspan></text><text xml:space="preserve" style="font-variant:normal;font-size:11.9552px;font-family:&quot;Inter V&quot;;-inkscape-font-specification:Inter-Regular-Identity-H;writing-mode:lr-tb;fill:#000;fill-opacity:1;fill-rule:nonzero;stroke:none" transform="matrix(1.33333 0 0 1.33333 27.059 13.081)"><tspan x="0" y="0">O</tspan></text><text xml:space="preserve" style="font-variant:normal;font-size:7.9701px;font-family:&quot;Inter V&quot;;-inkscape-font-specification:Inter-Regular-Identity-H;writing-mode:lr-tb;fill:#000;fill-opacity:1;fill-rule:nonzero;stroke:none" transform="matrix(1.33333 0 0 1.33333 39.195 15.472)"><tspan x="0" y="0">3</tspan></text><text xml:space="preserve" style="font-variant:normal;font-size:11.9552px;font-family:&quot;Inter V&quot;;-inkscape-font-specification:Inter-Regular-Identity-H;writing-mode:lr-tb;fill:#000;fill-opacity:1;fill-rule:nonzero;stroke:none" transform="matrix(1.33333 0 0 1.33333 53.761 13.081)"><tspan x="0" y="0">+</tspan></text><text xml:space="preserve" style="font-variant:normal;font-size:11.9552px;font-family:&quot;Inter V&quot;;-inkscape-font-specification:Inter-Regular-Identity-H;writing-mode:lr-tb;fill:#000;fill-opacity:1;fill-rule:nonzero;stroke:none" transform="matrix(1.33333 0 0 1.33333 71.408 13.081)"><tspan x="0" y="0">C</tspan></text><text xml:space="preserve" style="font-variant:normal;font-size:11.9552px;font-family:&quot;Inter V&quot;;-inkscape-font-specification:Inter-Regular-Identity-H;writing-mode:lr-tb;fill:#000;fill-opacity:1;fill-rule:nonzero;stroke:none" transform="matrix(1.33333 0 0 1.33333 83 13.081)"><tspan x="0" y="0">O</tspan></text><path d="M118.179 3.26z" style="fill:#00adef;fill-opacity:1;fill-rule:nonzero;stroke:none" transform="matrix(1.33333 0 0 -1.33333 1.328 13.081)"/><path d="M82.313 3.26h21.537" style="fill:none;stroke:#000;stroke-width:.79701;stroke-linecap:butt;stroke-linejoin:miter;stroke-miterlimit:10;stroke-dasharray:none;stroke-opacity:1" transform="matrix(1.33333 0 0 -1.33333 1.328 13.081)"/><path d="M5.9 0 2.325 1.435 4.124 0l-1.8-1.435Z" style="fill:#000;fill-opacity:1;fill-rule:nonzero;stroke:#000;stroke-width:.79701;stroke-linecap:butt;stroke-linejoin:round;stroke-miterlimit:10;stroke-dasharray:none;stroke-opacity:1" transform="matrix(1.33333 0 0 -1.33333 134.56 8.734)"/><text xml:space="preserve" style="font-variant:normal;font-size:11.9552px;font-family:&quot;Inter V&quot;;-inkscape-font-specification:Inter-Regular-Identity-H;writing-mode:lr-tb;fill:#000;fill-opacity:1;fill-rule:nonzero;stroke:none" transform="matrix(1.33333 0 0 1.33333 158.9 13.081)"><tspan x="0 7.0177026" y="0">Fe</tspan></text><text xml:space="preserve" style="font-variant:normal;font-size:11.9552px;font-family:&quot;Inter V&quot;;-inkscape-font-specification:Inter-Regular-Identity-H;writing-mode:lr-tb;fill:#000;fill-opacity:1;fill-rule:nonzero;stroke:none" transform="matrix(1.33333 0 0 1.33333 177.535 13.081)"><tspan x="0" y="0">O</tspan></text><text xml:space="preserve" style="font-variant:normal;font-size:11.9552px;font-family:&quot;Inter V&quot;;-inkscape-font-specification:Inter-Regular-Identity-H;writing-mode:lr-tb;fill:#000;fill-opacity:1;fill-rule:nonzero;stroke:none" transform="matrix(1.33333 0 0 1.33333 196.812 13.081)"><tspan x="0" y="0">+</tspan></text><text xml:space="preserve" style="font-variant:normal;font-size:11.9552px;font-family:&quot;Inter V&quot;;-inkscape-font-specification:Inter-Regular-Identity-H;writing-mode:lr-tb;fill:#000;fill-opacity:1;fill-rule:nonzero;stroke:none" transform="matrix(1.33333 0 0 1.33333 214.459 13.081)"><tspan x="0" y="0">C</tspan></text><text xml:space="preserve" style="font-variant:normal;font-size:11.9552px;font-family:&quot;Inter V&quot;;-inkscape-font-specification:Inter-Regular-Identity-H;writing-mode:lr-tb;fill:#000;fill-opacity:1;fill-rule:nonzero;stroke:none" transform="matrix(1.33333 0 0 1.33333 226.05 13.081)"><tspan x="0" y="0">O</tspan></text><text xml:space="preserve" style="font-variant:normal;font-size:7.9701px;font-family:&quot;Inter V&quot;;-inkscape-font-specification:Inter-Regular-Identity-H;writing-mode:lr-tb;fill:#000;fill-opacity:1;fill-rule:nonzero;stroke:none" transform="matrix(1.33333 0 0 1.33333 238.187 15.472)"><tspan x="0" y="0">2</tspan></text></svg>