<?xml version="1.0" standalone="no" ?>
<!DOCTYPE svg PUBLIC "-//W3C//DTD SVG 1.1//EN" "http://www.w3.org/Graphics/SVG/1.1/DTD/svg11.dtd">
<svg width="510px" height="36px" viewBox="0 0 510 36" style="background-color: #ffffffff" xmlns="http://www.w3.org/2000/svg" xmlns:xlink="http://www.w3.org/1999/xlink" version="1.1" >
<path stroke="transparent" fill="#000000" transform="matrix(0.05 0 0 0.05 -505 -215)" d="M 10169.9,4803.27 L 10157.9,4810.2 L 10157.9,4515.27 L 10169.9,4522.2 L 10169.9,4803.27 Z " />
<path stroke="transparent" fill="#000000" transform="matrix(0.05 0 0 0.05 -505 -215)" d="M 10221.8,4776.81 L 10209.8,4776.81 L 10209.8,4548.67 L 10221.8,4548.67 L 10221.8,4776.81 Z " />
<path stroke="transparent" fill="#000000" transform="matrix(0.05 0 0 0.05 -505 -215)" d="M 10413.3,4943.81 L 10413.3,4957.67 L 10157.9,4810.2 L 10169.9,4803.27 L 10413.3,4943.81 Z " />
<path stroke="transparent" fill="#000000" transform="matrix(0.05 0 0 0.05 -505 -215)" d="M 10656.7,4803.27 L 10668.7,4810.2 L 10413.3,4957.67 L 10413.3,4943.81 L 10656.7,4803.27 Z " />
<path stroke="transparent" fill="#000000" transform="matrix(0.05 0 0 0.05 -505 -215)" d="M 10607.9,4771.61 L 10613.9,4782 L 10416.3,4896.07 L 10410.3,4885.68 L 10607.9,4771.61 Z " />
<path stroke="transparent" fill="#000000" transform="matrix(0.05 0 0 0.05 -505 -215)" d="M 10656.7,4522.2 L 10668.7,4515.27 L 10668.7,4810.2 L 10656.7,4803.27 L 10656.7,4522.2 Z " />
<path stroke="transparent" fill="#000000" transform="matrix(0.05 0 0 0.05 -505 -215)" d="M 10413.3,4381.67 L 10413.3,4367.81 L 10668.7,4515.27 L 10656.7,4522.2 L 10413.3,4381.67 Z " />
<path stroke="transparent" fill="#000000" transform="matrix(0.05 0 0 0.05 -505 -215)" d="M 10410.3,4439.79 L 10416.3,4429.4 L 10613.9,4543.47 L 10607.9,4553.86 L 10410.3,4439.79 Z " />
<path stroke="transparent" fill="#000000" transform="matrix(0.05 0 0 0.05 -505 -215)" d="M 10169.9,4522.2 L 10157.9,4515.27 L 10413.3,4367.81 L 10413.3,4381.67 L 10169.9,4522.2 Z " />
<path stroke="transparent" fill="#000000" transform="matrix(0.05 0 0 0.05 -505 -215)" d="M 11470.8,4668.74 L 10970.7,4668.74 L 10970.7,4656.74 L 11470.8,4656.74 Z " />
<path stroke="transparent" fill="#000000" transform="matrix(0.05 0 0 0.05 -505 -215)" d="M 11574.7,4662.74 C 11574.7,4662.74 11454.8,4693.74 11454.8,4693.74 C 11454.8,4693.74 11469.8,4676.3 11469.8,4662.74 C 11469.8,4648.74 11454.8,4630.74 11454.8,4630.74 C 11454.8,4630.74 11574.7,4662.74 11574.7,4662.74 C 11574.7,4662.74 11574.7,4662.74 11574.7,4662.74 " />
<path stroke="#000000" stroke-width="1" fill="transparent" transform="matrix(0.05 0 0 0.05 -505 -215)" d="M 11574.7,4662.74 C 11574.7,4662.74 11454.8,4693.74 11454.8,4693.74 C 11454.8,4693.74 11469.8,4676.3 11469.8,4662.74 C 11469.8,4648.74 11454.8,4630.74 11454.8,4630.74 C 11454.8,4630.74 11574.7,4662.74 11574.7,4662.74 C 11574.7,4662.74 11574.7,4662.74 11574.7,4662.74 " />
<path stroke="transparent" fill="#000000" transform="matrix(0.05 0 0 0.05 -505 -215)" d="M 11888.7,4803.27 L 11876.7,4810.2 L 11876.7,4515.27 L 11888.7,4522.2 L 11888.7,4803.27 Z " />
<path stroke="transparent" fill="#000000" transform="matrix(0.05 0 0 0.05 -505 -215)" d="M 11940.6,4776.81 L 11928.6,4776.81 L 11928.6,4548.67 L 11940.6,4548.67 L 11940.6,4776.81 Z " />
<path stroke="transparent" fill="#000000" transform="matrix(0.05 0 0 0.05 -505 -215)" d="M 12132.2,4943.81 L 12132.2,4957.67 L 11876.7,4810.2 L 11888.7,4803.27 L 12132.2,4943.81 Z " />
<path stroke="transparent" fill="#000000" transform="matrix(0.05 0 0 0.05 -505 -215)" d="M 12375.6,4803.27 L 12387.6,4810.2 L 12132.2,4957.67 L 12132.2,4943.81 L 12375.6,4803.27 Z " />
<path stroke="transparent" fill="#000000" transform="matrix(0.05 0 0 0.05 -505 -215)" d="M 12326.7,4771.61 L 12332.7,4782 L 12135.2,4896.07 L 12129.2,4885.68 L 12326.7,4771.61 Z " />
<path stroke="transparent" fill="#000000" transform="matrix(0.05 0 0 0.05 -505 -215)" d="M 12375.6,4522.2 L 12381.6,4518.74 L 12387.6,4522.2 L 12387.6,4810.2 L 12375.6,4803.27 L 12375.6,4522.2 Z " />
<path stroke="transparent" fill="#000000" transform="matrix(0.05 0 0 0.05 -505 -215)" d="M 12132.2,4381.67 L 12132.2,4367.81 L 12381.6,4511.81 L 12381.6,4518.74 L 12375.6,4522.2 L 12132.2,4381.67 Z " />
<path stroke="transparent" fill="#000000" transform="matrix(0.05 0 0 0.05 -505 -215)" d="M 12129.2,4439.79 L 12135.2,4429.4 L 12332.7,4543.47 L 12326.7,4553.86 L 12129.2,4439.79 Z " />
<path stroke="transparent" fill="#000000" transform="matrix(0.05 0 0 0.05 -505 -215)" d="M 11888.7,4522.2 L 11876.7,4515.27 L 12132.2,4367.81 L 12132.2,4381.67 L 11888.7,4522.2 Z " />
<path stroke="transparent" fill="#000000" transform="matrix(0.05 0 0 0.05 -505 -215)" d="M 12631,4367.81 L 12631,4381.67 L 12387.6,4522.2 L 12381.6,4518.74 L 12381.6,4511.81 L 12631,4367.81 Z " />
<path stroke="transparent" fill="#000000" transform="matrix(0.05 0 0 0.05 -505 -215)" d="M 12883.4,4513.54 L 12877.4,4523.93 L 12631,4381.67 L 12631,4367.81 L 12883.4,4513.54 Z " />
<path stroke="transparent" fill="#000000" transform="matrix(0.05 0 0 0.05 -505 -215)" d="M 12857.5,4558.44 L 12851.5,4568.83 L 12628,4439.79 L 12634,4429.4 L 12857.5,4558.44 Z " />
<path stroke="transparent" fill="#000000" transform="matrix(0.05 0 0 0.05 -505 -215)" d="M 13685.4,4668.74 L 13185.4,4668.74 L 13185.4,4656.74 L 13685.4,4656.74 Z " />
<path stroke="transparent" fill="#000000" transform="matrix(0.05 0 0 0.05 -505 -215)" d="M 13789.4,4662.74 C 13789.4,4662.74 13669.4,4693.74 13669.4,4693.74 C 13669.4,4693.74 13684.4,4676.3 13684.4,4662.74 C 13684.4,4648.74 13669.4,4630.74 13669.4,4630.74 C 13669.4,4630.74 13789.4,4662.74 13789.4,4662.74 C 13789.4,4662.74 13789.4,4662.74 13789.4,4662.74 " />
<path stroke="#000000" stroke-width="1" fill="transparent" transform="matrix(0.05 0 0 0.05 -505 -215)" d="M 13789.4,4662.74 C 13789.4,4662.74 13669.4,4693.74 13669.4,4693.74 C 13669.4,4693.74 13684.4,4676.3 13684.4,4662.74 C 13684.4,4648.74 13669.4,4630.74 13669.4,4630.74 C 13669.4,4630.74 13789.4,4662.74 13789.4,4662.74 C 13789.4,4662.74 13789.4,4662.74 13789.4,4662.74 " />
<path stroke="transparent" fill="#000000" transform="matrix(0.05 0 0 0.05 -505 -215)" d="M 14353.8,4685.79 L 14359.8,4696.18 L 14097.4,4847.67 L 14091.4,4837.27 L 14353.8,4685.79 Z " />
<path stroke="transparent" fill="#000000" transform="matrix(0.05 0 0 0.05 -505 -215)" d="M 14379.7,4730.69 L 14385.7,4741.08 L 14123.3,4892.56 L 14117.3,4882.17 L 14379.7,4730.69 Z " />
<path stroke="transparent" fill="#000000" transform="matrix(0.05 0 0 0.05 -505 -215)" d="M 14606.2,4857.99 L 14606.2,4871.84 L 14350.8,4724.38 L 14362.8,4717.45 L 14606.2,4857.99 Z " />
<path stroke="transparent" fill="#000000" transform="matrix(0.05 0 0 0.05 -505 -215)" d="M 14350.8,4432.92 L 14362.8,4432.92 L 14362.8,4717.45 L 14350.8,4724.38 L 14350.8,4432.92 Z " />
<text x="0" y="0" stroke="transparent" fill="#000000" transform="matrix(0.05 0 0 0.05 233.892 24.657)" style="font:normal normal normal 200px 'Arial'" >
O</text>
<path stroke="transparent" fill="#000000" transform="matrix(0.05 0 0 0.05 -505 -215)" d="M 14762.8,4767.56 L 14768.8,4777.95 L 14606.2,4871.84 L 14606.2,4857.99 L 14762.8,4767.56 Z " />
<path stroke="transparent" fill="#000000" transform="matrix(0.05 0 0 0.05 -505 -215)" d="M 15108,4859.72 L 15102,4870.11 L 14942.4,4777.96 L 14948.4,4767.57 L 15108,4859.72 Z " />
<path stroke="transparent" fill="#000000" transform="matrix(0.05 0 0 0.05 -505 -215)" d="M 15910,4668.74 L 15410,4668.74 L 15410,4656.74 L 15910,4656.74 Z " />
<path stroke="transparent" fill="#000000" transform="matrix(0.05 0 0 0.05 -505 -215)" d="M 16014,4662.74 C 16014,4662.74 15894,4693.74 15894,4693.74 C 15894,4693.74 15909,4676.3 15909,4662.74 C 15909,4648.74 15894,4630.74 15894,4630.74 C 15894,4630.74 16014,4662.74 16014,4662.74 C 16014,4662.74 16014,4662.74 16014,4662.74 " />
<path stroke="#000000" stroke-width="1" fill="transparent" transform="matrix(0.05 0 0 0.05 -505 -215)" d="M 16014,4662.74 C 16014,4662.74 15894,4693.74 15894,4693.74 C 15894,4693.74 15909,4676.3 15909,4662.74 C 15909,4648.74 15894,4630.74 15894,4630.74 C 15894,4630.74 16014,4662.74 16014,4662.74 C 16014,4662.74 16014,4662.74 16014,4662.74 " />
<path stroke="transparent" fill="#000000" transform="matrix(0.05 0 0 0.05 -505 -215)" d="M 16568.4,4739.92 L 16568.4,4753.78 L 16322,4896.05 L 16316,4885.65 L 16568.4,4739.92 Z " />
<path stroke="transparent" fill="#000000" transform="matrix(0.05 0 0 0.05 -505 -215)" d="M 16817.9,4883.92 L 16817.9,4897.78 L 16568.4,4753.78 L 16568.4,4739.92 L 16817.9,4883.92 Z " />
<path stroke="transparent" fill="#000000" transform="matrix(0.05 0 0 0.05 -505 -215)" d="M 17067.3,4739.92 L 17067.3,4753.78 L 16817.9,4897.78 L 16817.9,4883.92 L 17067.3,4739.92 Z " />
<path stroke="transparent" fill="#000000" transform="matrix(0.05 0 0 0.05 -505 -215)" d="M 17316.7,4883.92 L 17316.7,4897.78 L 17067.3,4753.78 L 17067.3,4739.92 L 17316.7,4883.92 Z " />
<path stroke="transparent" fill="#000000" transform="matrix(0.05 0 0 0.05 -505 -215)" d="M 17566.1,4739.92 L 17566.1,4753.78 L 17316.7,4897.78 L 17316.7,4883.92 L 17566.1,4739.92 Z " />
<text x="0" y="0" stroke="transparent" fill="#000000" transform="matrix(0.05 0 0 0.05 381.887 33.1536)" style="font:normal normal normal 200px 'Arial'" >
OH</text>
<path stroke="transparent" fill="#000000" transform="matrix(0.05 0 0 0.05 -505 -215)" d="M 17728.7,4833.77 L 17722.7,4844.17 L 17566.1,4753.78 L 17566.1,4739.92 L 17728.7,4833.77 Z " />
<text x="0" y="0" stroke="transparent" fill="#000000" transform="matrix(0.05 0 0 0.05 369.416 11.5536)" style="font:normal normal normal 200px 'Arial'" >
O</text>
<path stroke="transparent" fill="#000000" transform="matrix(0.05 0 0 0.05 -505 -215)" d="M 17534.2,4565.41 L 17546.2,4565.41 L 17546.2,4761.81 L 17534.2,4761.81 L 17534.2,4565.41 Z " />
<path stroke="transparent" fill="#000000" transform="matrix(0.05 0 0 0.05 -505 -215)" d="M 17586,4565.41 L 17598,4565.41 L 17598,4761.81 L 17586,4761.81 L 17586,4565.41 Z " />
<path stroke="transparent" fill="#000000" transform="matrix(0.05 0 0 0.05 -505 -215)" d="M 18839.7,4668.74 L 18339.7,4668.74 L 18339.7,4656.74 L 18839.7,4656.74 Z " />
<path stroke="transparent" fill="#000000" transform="matrix(0.05 0 0 0.05 -505 -215)" d="M 18943.7,4662.74 C 18943.7,4662.74 18823.7,4693.74 18823.7,4693.74 C 18823.7,4693.74 18838.7,4676.3 18838.7,4662.74 C 18838.7,4648.74 18823.7,4630.74 18823.7,4630.74 C 18823.7,4630.74 18943.7,4662.74 18943.7,4662.74 C 18943.7,4662.74 18943.7,4662.74 18943.7,4662.74 " />
<path stroke="#000000" stroke-width="1" fill="transparent" transform="matrix(0.05 0 0 0.05 -505 -215)" d="M 18943.7,4662.74 C 18943.7,4662.74 18823.7,4693.74 18823.7,4693.74 C 18823.7,4693.74 18838.7,4676.3 18838.7,4662.74 C 18838.7,4648.74 18823.7,4630.74 18823.7,4630.74 C 18823.7,4630.74 18943.7,4662.74 18943.7,4662.74 C 18943.7,4662.74 18943.7,4662.74 18943.7,4662.74 " />
<path stroke="transparent" fill="#000000" transform="matrix(0.05 0 0 0.05 -505 -215)" d="M 19257.7,4803.27 L 19245.7,4810.2 L 19245.7,4515.27 L 19257.7,4522.2 L 19257.7,4803.27 Z " />
<path stroke="transparent" fill="#000000" transform="matrix(0.05 0 0 0.05 -505 -215)" d="M 19309.6,4776.81 L 19297.6,4776.81 L 19297.6,4548.67 L 19309.6,4548.67 L 19309.6,4776.81 Z " />
<path stroke="transparent" fill="#000000" transform="matrix(0.05 0 0 0.05 -505 -215)" d="M 19501.2,4943.81 L 19501.2,4957.67 L 19245.7,4810.2 L 19257.7,4803.27 L 19501.2,4943.81 Z " />
<path stroke="transparent" fill="#000000" transform="matrix(0.05 0 0 0.05 -505 -215)" d="M 19744.6,4803.27 L 19750.6,4806.74 L 19750.6,4813.67 L 19501.2,4957.67 L 19501.2,4943.81 L 19744.6,4803.27 Z " />
<path stroke="transparent" fill="#000000" transform="matrix(0.05 0 0 0.05 -505 -215)" d="M 19695.7,4771.61 L 19701.7,4782 L 19504.2,4896.07 L 19498.2,4885.68 L 19695.7,4771.61 Z " />
<path stroke="transparent" fill="#000000" transform="matrix(0.05 0 0 0.05 -505 -215)" d="M 19744.6,4522.2 L 19750.6,4518.74 L 19756.6,4522.2 L 19756.6,4803.27 L 19750.6,4806.74 L 19744.6,4803.27 L 19744.6,4522.2 Z " />
<path stroke="transparent" fill="#000000" transform="matrix(0.05 0 0 0.05 -505 -215)" d="M 19501.2,4381.67 L 19501.2,4367.81 L 19750.6,4511.81 L 19750.6,4518.74 L 19744.6,4522.2 L 19501.2,4381.67 Z " />
<path stroke="transparent" fill="#000000" transform="matrix(0.05 0 0 0.05 -505 -215)" d="M 19498.2,4439.79 L 19504.2,4429.4 L 19701.7,4543.47 L 19695.7,4553.86 L 19498.2,4439.79 Z " />
<path stroke="transparent" fill="#000000" transform="matrix(0.05 0 0 0.05 -505 -215)" d="M 19257.7,4522.2 L 19245.7,4515.27 L 19501.2,4367.81 L 19501.2,4381.67 L 19257.7,4522.2 Z " />
<path stroke="transparent" fill="#000000" transform="matrix(0.05 0 0 0.05 -505 -215)" d="M 20000,4943.81 L 20000,4957.67 L 19750.6,4813.67 L 19750.6,4806.74 L 19756.6,4803.27 L 20000,4943.81 Z " />
<path stroke="transparent" fill="#000000" transform="matrix(0.05 0 0 0.05 -505 -215)" d="M 20243.4,4803.27 L 20255.4,4810.2 L 20000,4957.67 L 20000,4943.81 L 20243.4,4803.27 Z " />
<path stroke="transparent" fill="#000000" transform="matrix(0.05 0 0 0.05 -505 -215)" d="M 20194.6,4771.61 L 20200.6,4782 L 20003,4896.07 L 19997,4885.68 L 20194.6,4771.61 Z " />
<path stroke="transparent" fill="#000000" transform="matrix(0.05 0 0 0.05 -505 -215)" d="M 20243.4,4522.2 L 20255.4,4515.27 L 20255.4,4810.2 L 20243.4,4803.27 L 20243.4,4522.2 Z " />
<path stroke="transparent" fill="#000000" transform="matrix(0.05 0 0 0.05 -505 -215)" d="M 20000,4381.67 L 20000,4367.81 L 20255.4,4515.27 L 20243.4,4522.2 L 20000,4381.67 Z " />
<path stroke="transparent" fill="#000000" transform="matrix(0.05 0 0 0.05 -505 -215)" d="M 19997,4439.79 L 20003,4429.4 L 20200.6,4543.47 L 20194.6,4553.86 L 19997,4439.79 Z " />
<path stroke="transparent" fill="#000000" transform="matrix(0.05 0 0 0.05 -505 -215)" d="M 19756.6,4522.2 L 19750.6,4518.74 L 19750.6,4511.81 L 20000,4367.81 L 20000,4381.67 L 19756.6,4522.2 Z " />
</svg>
