<svg xmlns="http://www.w3.org/2000/svg" width="258.773" height="14.314"><text xml:space="preserve" style="font-variant:normal;font-size:11.9552px;font-family:&quot;IBM Plex Sans&quot;;-inkscape-font-specification:IBMPlexSans-Identity-H;writing-mode:lr-tb;fill:#000;fill-opacity:1;fill-rule:nonzero;stroke:none" transform="matrix(1.33333 0 0 1.33333 -1.482 11.796)"><tspan x="0 8.4523268" y="0">Na</tspan></text><text xml:space="preserve" style="font-variant:normal;font-size:7.9701px;font-family:&quot;IBM Plex Sans&quot;;-inkscape-font-specification:IBMPlexSans-Identity-H;writing-mode:lr-tb;fill:#000;fill-opacity:1;fill-rule:nonzero;stroke:none" transform="matrix(1.33333 0 0 1.33333 18.299 14.186)"><tspan x="0" y="0">2</tspan></text><text xml:space="preserve" style="font-variant:normal;font-size:11.9552px;font-family:&quot;IBM Plex Sans&quot;;-inkscape-font-specification:IBMPlexSans-Identity-H;writing-mode:lr-tb;fill:#000;fill-opacity:1;fill-rule:nonzero;stroke:none" transform="matrix(1.33333 0 0 1.33333 25.339 11.796)"><tspan x="0" y="0">C</tspan></text><text xml:space="preserve" style="font-variant:normal;font-size:11.9552px;font-family:&quot;IBM Plex Sans&quot;;-inkscape-font-specification:IBMPlexSans-Identity-H;writing-mode:lr-tb;fill:#000;fill-opacity:1;fill-rule:nonzero;stroke:none" transform="matrix(1.33333 0 0 1.33333 35.239 11.796)"><tspan x="0" y="0">O</tspan></text><text xml:space="preserve" style="font-variant:normal;font-size:7.9701px;font-family:&quot;IBM Plex Sans&quot;;-inkscape-font-specification:IBMPlexSans-Identity-H;writing-mode:lr-tb;fill:#000;fill-opacity:1;fill-rule:nonzero;stroke:none" transform="matrix(1.33333 0 0 1.33333 46.524 14.186)"><tspan x="0" y="0">3</tspan></text><text xml:space="preserve" style="font-variant:normal;font-weight:400;font-size:11.9552px;font-family:CMR12;-inkscape-font-specification:CMR12;writing-mode:lr-tb;fill:#000;fill-opacity:1;fill-rule:nonzero;stroke:none" transform="matrix(1.33333 0 0 1.33333 65.296 11.796)"><tspan x="0" y="0">+</tspan></text><text xml:space="preserve" style="font-variant:normal;font-size:11.9552px;font-family:&quot;IBM Plex Sans&quot;;-inkscape-font-specification:IBMPlexSans-Identity-H;writing-mode:lr-tb;fill:#000;fill-opacity:1;fill-rule:nonzero;stroke:none" transform="matrix(1.33333 0 0 1.33333 89.168 11.796)"><tspan x="0 7.4241791" y="0">Ca</tspan></text><text xml:space="preserve" style="font-variant:normal;font-size:11.9552px;font-family:&quot;IBM Plex Sans&quot;;-inkscape-font-specification:IBMPlexSans-Identity-H;writing-mode:lr-tb;fill:#000;fill-opacity:1;fill-rule:nonzero;stroke:none" transform="matrix(1.33333 0 0 1.33333 107.579 11.796)"><tspan x="0" y="0">C</tspan></text><text xml:space="preserve" style="font-variant:normal;font-size:11.9552px;font-family:&quot;IBM Plex Sans&quot;;-inkscape-font-specification:IBMPlexSans-Identity-H;writing-mode:lr-tb;fill:#000;fill-opacity:1;fill-rule:nonzero;stroke:none" transform="matrix(1.33333 0 0 1.33333 117.478 11.796)"><tspan x="0" y="0">O</tspan></text><text xml:space="preserve" style="font-variant:normal;font-size:7.9701px;font-family:&quot;IBM Plex Sans&quot;;-inkscape-font-specification:IBMPlexSans-Identity-H;writing-mode:lr-tb;fill:#000;fill-opacity:1;fill-rule:nonzero;stroke:none" transform="matrix(1.33333 0 0 1.33333 128.763 14.186)"><tspan x="0" y="0">3</tspan></text><text xml:space="preserve" style="font-variant:normal;font-weight:400;font-size:11.9552px;font-family:CMR12;-inkscape-font-specification:CMR12;writing-mode:lr-tb;fill:#000;fill-opacity:1;fill-rule:nonzero;stroke:none" transform="matrix(1.33333 0 0 1.33333 147.535 11.796)"><tspan x="0" y="0">+</tspan></text><text xml:space="preserve" style="font-variant:normal;font-size:11.9552px;font-family:&quot;IBM Plex Sans&quot;;-inkscape-font-specification:IBMPlexSans-Identity-H;writing-mode:lr-tb;fill:#000;fill-opacity:1;fill-rule:nonzero;stroke:none" transform="matrix(1.33333 0 0 1.33333 171.407 11.796)"><tspan x="0 6.945971" y="0">Si</tspan></text><text xml:space="preserve" style="font-variant:normal;font-size:11.9552px;font-family:&quot;IBM Plex Sans&quot;;-inkscape-font-specification:IBMPlexSans-Identity-H;writing-mode:lr-tb;fill:#000;fill-opacity:1;fill-rule:nonzero;stroke:none" transform="matrix(1.33333 0 0 1.33333 184.652 11.796)"><tspan x="0" y="0">O</tspan></text><text xml:space="preserve" style="font-variant:normal;font-size:7.9701px;font-family:&quot;IBM Plex Sans&quot;;-inkscape-font-specification:IBMPlexSans-Identity-H;writing-mode:lr-tb;fill:#000;fill-opacity:1;fill-rule:nonzero;stroke:none" transform="matrix(1.33333 0 0 1.33333 195.939 14.186)"><tspan x="0" y="0">2</tspan></text><path d="M195.192 3.084Z" style="fill:#00adef;fill-opacity:1;fill-rule:nonzero;stroke:none" transform="matrix(1.33333 0 0 -1.33333 -1.482 11.796)"/><path d="M165.304 3.084h16.97" style="fill:none;stroke:#000;stroke-width:.79701;stroke-linecap:butt;stroke-linejoin:miter;stroke-miterlimit:10;stroke-dasharray:none;stroke-opacity:1" transform="matrix(1.33333 0 0 -1.33333 -1.482 11.796)"/><path d="M0 3.088 3.088 0 0-3.088" style="fill:none;stroke:#000;stroke-width:.79701;stroke-linecap:butt;stroke-linejoin:miter;stroke-miterlimit:10;stroke-dasharray:none;stroke-opacity:1" transform="matrix(1.33333 0 0 -1.33333 237.964 7.683)"/></svg>