<svg width="178" height="16" xmlns="http://www.w3.org/2000/svg"><text stroke="transparent" transform="matrix(.05 0 0 .05 2.333 10.667)" style="font:200px&quot;Arial&quot;">
Na</text><text stroke="transparent" transform="matrix(.05 0 0 .05 15.116 12.5)" style="font:150px&quot;Arial&quot;">
2</text><text stroke="transparent" transform="matrix(.05 0 0 .05 19.286 10.667)" style="font:200px&quot;Arial&quot;">
CO</text><text stroke="transparent" transform="matrix(.05 0 0 .05 34.286 12.5)" style="font:150px&quot;Arial&quot;">
3</text><text stroke="transparent" transform="matrix(.05 0 0 .05 61.16 10.667)" style="font:200px&quot;Arial&quot;">
CaCO</text><text stroke="transparent" transform="matrix(.05 0 0 .05 88.943 12.5)" style="font:150px&quot;Arial&quot;">
3</text><text stroke="transparent" transform="matrix(.05 0 0 .05 115.818 10.667)" style="font:200px&quot;Arial&quot;">
SiO</text><text stroke="transparent" transform="matrix(.05 0 0 .05 132.489 12.5)" style="font:150px&quot;Arial&quot;">
2</text><path stroke="transparent" d="M170.093 8.306h-25v-.6h25Z" stroke-width=".05"/><path stroke="transparent" d="m175.293 8.006-6 1.55s.75-.872.75-1.55c0-.7-.75-1.6-.75-1.6l6 1.6" stroke-width=".05"/><path stroke="#000" fill="transparent" d="m175.293 8.006-6 1.55s.75-.872.75-1.55c0-.7-.75-1.6-.75-1.6l6 1.6" stroke-width=".05"/><text stroke="transparent" transform="matrix(.05 0 0 .05 101.547 9.367)" style="font:200px&quot;Arial&quot;">
+</text><text stroke="transparent" transform="matrix(.05 0 0 .05 46.89 9.367)" style="font:200px&quot;Arial&quot;">
+</text></svg>