<svg width="48" height="23" xmlns="http://www.w3.org/2000/svg"><path stroke="transparent" d="M20.47 4.453v.694L8.15 12.26l-.3-.52 12.62-7.287Z" stroke-width=".05"/><path stroke="#000" stroke-width=".6000000000000001" fill="transparent" d="M12.35 19.534a.492.492 0 0 0 .19-.67.492.492 0 0 0-.675-.171.49.49 0 0 1-.675-.171.492.492 0 0 1 .19-.671.5.5 0 0 0 .19-.671.498.498 0 0 0-.68-.171.493.493 0 0 1-.675-.171.492.492 0 0 1 .19-.671.492.492 0 0 0 .19-.671.492.492 0 0 0-.675-.171.492.492 0 0 1-.675-.17.492.492 0 0 1 .19-.671.492.492 0 0 0 .19-.671.493.493 0 0 0-.675-.171.498.498 0 0 1-.68-.171.5.5 0 0 1 .19-.672.491.491 0 0 0 .19-.67.49.49 0 0 0-.675-.171.492.492 0 0 1-.675-.171.492.492 0 0 1 .19-.671.492.492 0 0 0 .19-.671.492.492 0 0 0-.675-.171.491.491 0 0 1-.675-.17.492.492 0 0 1 .19-.671.5.5 0 0 0 .19-.672.498.498 0 0 0-.68-.17.493.493 0 0 1-.675-.171.492.492 0 0 1 .19-.671.491.491 0 0 0 .19-.671.492.492 0 0 0-.675-.171.492.492 0 0 1-.675-.171.492.492 0 0 1 .19-.671.496.496 0 0 0 .19-.671.498.498 0 0 0-.68-.171.493.493 0 0 1-.675-.17"/><path stroke="transparent" d="M32.94 11.654v.693l-12.47-7.2v-.694l12.47 7.2ZM45.26 4.54l.3.52-12.62 7.287v-.693L45.26 4.54ZM43.965 2.296l.3.519L33.09 9.267l-.3-.52 11.175-6.451Z" stroke-width=".05"/></svg>