<svg width="61" height="35" xmlns="http://www.w3.org/2000/svg"><path stroke="transparent" d="M20.47 3.453v.694L8.15 11.26l-.3-.52 12.62-7.287Z" stroke-width=".05"/><path stroke="#000" stroke-width=".6000000000000001" fill="transparent" d="M12.35 18.534a.492.492 0 0 0 .19-.67.492.492 0 0 0-.675-.171.49.49 0 0 1-.675-.171.492.492 0 0 1 .19-.671.5.5 0 0 0 .19-.671.498.498 0 0 0-.68-.171.493.493 0 0 1-.675-.171.492.492 0 0 1 .19-.671.492.492 0 0 0 .19-.671.492.492 0 0 0-.675-.171.492.492 0 0 1-.675-.17.492.492 0 0 1 .19-.671.492.492 0 0 0 .19-.671.493.493 0 0 0-.675-.171.498.498 0 0 1-.68-.171.5.5 0 0 1 .19-.672.491.491 0 0 0 .19-.67.49.49 0 0 0-.675-.171.492.492 0 0 1-.675-.171.492.492 0 0 1 .19-.671.492.492 0 0 0 .19-.671.492.492 0 0 0-.675-.171.491.491 0 0 1-.675-.17.492.492 0 0 1 .19-.671.5.5 0 0 0 .19-.672.498.498 0 0 0-.68-.17.493.493 0 0 1-.675-.171.492.492 0 0 1 .19-.671.491.491 0 0 0 .19-.671.492.492 0 0 0-.675-.171.492.492 0 0 1-.675-.171.492.492 0 0 1 .19-.671.496.496 0 0 0 .19-.671.498.498 0 0 0-.68-.171.493.493 0 0 1-.675-.17"/><path stroke="transparent" d="M32.94 10.654V11l-.3.173-12.17-7.026v-.694l12.47 7.2Z" stroke-width=".05"/><path stroke="transparent" d="m33.24 25.227-.6.346v-14.4l.3-.173.3.173v14.054ZM35.835 23.904h-.6V12.497h.6v11.407ZM45.41 32.253v.694l-12.77-7.374.6-.346 12.17 7.026ZM57.585 25.227l.6.346-12.775 7.374v-.694l12.175-7.026ZM55.14 23.644l.3.52-9.88 5.703-.3-.52 9.88-5.703Z" stroke-width=".05"/><path stroke="transparent" d="m57.585 11.173.6-.346v14.746l-.6-.346V11.173ZM45.41 4.147v-.694l12.775 7.374-.6.346L45.41 4.147ZM45.26 7.053l.3-.52 9.88 5.703-.3.52-9.88-5.703Z" stroke-width=".05"/><path stroke="transparent" d="m33.24 11.173-.3-.173v-.346l12.47-7.2v.693l-12.17 7.026Z" stroke-width=".05"/></svg>