<svg width="50.682" height="12.058" xmlns="http://www.w3.org/2000/svg"><path stroke="transparent" d="M13.122.977v.693l-8.88 5.126-.3-.52z" style="stroke-width:.05"/><path stroke="transparent" d="M25.592 8.177v.693l-12.47-7.2V.977ZM38.062.977v.693l-12.47 7.2v-.693zM50.682 8.264l-.3.52-12.32-7.114V.977Z" style="stroke-width:.05"/><path stroke="#000" stroke-width=".6" fill="transparent" d="M8.14 11.798c.48-.276.654-.863.4-1.31-.26-.447-.856-.586-1.336-.31-.48.276-1.075.137-1.335-.31-.255-.447-.08-1.034.4-1.31.48-.276.655-.862.4-1.31-.26-.446-.855-.585-1.335-.31-.48.277-1.075.138-1.335-.309-.255-.447-.08-1.034.4-1.31.48-.276.655-.863.4-1.31-.26-.447-.855-.585-1.335-.31-.48.277-1.075.138-1.335-.31-.255-.446-.08-1.033.4-1.309.48-.276.655-.863.4-1.31C2.67.323 2.074.185 1.594.46 1.114.738.52.599.26.15" style="fill:none"/></svg>