<svg width="48" height="43" xmlns="http://www.w3.org/2000/svg"><path stroke="transparent" d="m20.17 24.627.3.173v.347L8.15 32.26l-.3-.52 12.32-7.113Z" stroke-width=".05"/><path stroke="#000" stroke-width=".6000000000000001" fill="transparent" d="M12.35 39.534a.492.492 0 0 0 .19-.67.492.492 0 0 0-.675-.171.49.49 0 0 1-.675-.171.492.492 0 0 1 .19-.671.5.5 0 0 0 .19-.671.498.498 0 0 0-.68-.171.493.493 0 0 1-.675-.171.492.492 0 0 1 .19-.671.492.492 0 0 0 .19-.671.492.492 0 0 0-.675-.171.492.492 0 0 1-.675-.17.492.492 0 0 1 .19-.671.492.492 0 0 0 .19-.672.493.493 0 0 0-.675-.17.498.498 0 0 1-.68-.171.5.5 0 0 1 .19-.672.491.491 0 0 0 .19-.67.49.49 0 0 0-.675-.171.492.492 0 0 1-.675-.171.492.492 0 0 1 .19-.671.492.492 0 0 0 .19-.671.492.492 0 0 0-.675-.171.491.491 0 0 1-.675-.17.492.492 0 0 1 .19-.671.5.5 0 0 0 .19-.672.498.498 0 0 0-.68-.17.493.493 0 0 1-.675-.171.492.492 0 0 1 .19-.671.491.491 0 0 0 .19-.671.492.492 0 0 0-.675-.171.492.492 0 0 1-.675-.171.492.492 0 0 1 .19-.671.496.496 0 0 0 .19-.671.498.498 0 0 0-.68-.171.493.493 0 0 1-.675-.17"/><path stroke="transparent" d="M32.94 31.654v.693l-12.47-7.2V24.8l.3-.173 12.17 7.027ZM33.09 28.747l-.3.52-9.875-5.703.3-.52 9.875 5.703ZM45.11 24.627l.6.346-12.77 7.374v-.693l12.17-7.027Z" stroke-width=".05"/><path stroke="transparent" d="m45.11 10.573.6-.346v14.746l-.6-.346V10.573ZM42.52 11.897h.6v11.406h-.6V11.897ZM32.94 3.547v-.694l12.77 7.374-.6.346-12.17-7.026Z" stroke-width=".05"/><path stroke="transparent" d="m20.77 10.573-.6-.346 12.77-7.374v.694l-12.17 7.026ZM23.215 12.157l-.3-.52 9.875-5.704.3.52-9.875 5.704Z" stroke-width=".05"/><path stroke="transparent" d="m20.77 24.627-.3.173-.3-.173v-14.4l.6.346v14.054Z" stroke-width=".05"/></svg>