<svg width="48" height="40" xmlns="http://www.w3.org/2000/svg"><path stroke="transparent" d="M20.47 21.453v.694L8.15 29.26l-.3-.52 12.62-7.287Z" stroke-width=".05"/><path stroke="#000" stroke-width=".6000000000000001" fill="transparent" d="M12.35 36.534a.492.492 0 0 0 .19-.67.492.492 0 0 0-.675-.171.49.49 0 0 1-.675-.171.492.492 0 0 1 .19-.671.5.5 0 0 0 .19-.671.498.498 0 0 0-.68-.171.493.493 0 0 1-.675-.171.492.492 0 0 1 .19-.671.492.492 0 0 0 .19-.671.492.492 0 0 0-.675-.171.492.492 0 0 1-.675-.17.492.492 0 0 1 .19-.671.492.492 0 0 0 .19-.672.493.493 0 0 0-.675-.17.498.498 0 0 1-.68-.171.5.5 0 0 1 .19-.672.491.491 0 0 0 .19-.67.49.49 0 0 0-.675-.171.492.492 0 0 1-.675-.171.492.492 0 0 1 .19-.671.492.492 0 0 0 .19-.671.492.492 0 0 0-.675-.171.491.491 0 0 1-.675-.17.492.492 0 0 1 .19-.671.5.5 0 0 0 .19-.672.498.498 0 0 0-.68-.17.493.493 0 0 1-.675-.171.492.492 0 0 1 .19-.671.491.491 0 0 0 .19-.671.492.492 0 0 0-.675-.171.492.492 0 0 1-.675-.171.492.492 0 0 1 .19-.671.496.496 0 0 0 .19-.671.498.498 0 0 0-.68-.171.493.493 0 0 1-.675-.17"/><path stroke="transparent" d="M32.94 28.654v.693l-12.47-7.2v-.694l12.47 7.2ZM45.26 21.54l.3.52-12.62 7.287v-.693l12.32-7.114Z" stroke-width=".05"/><text stroke="transparent" transform="matrix(.05 0 0 .05 16.582 11.011)" style="font:200px 'Arial'">
O</text><path stroke="transparent" d="M18.875 12.728h.6v9.82h-.6v-9.82ZM21.465 12.728h.6v9.82h-.6v-9.82Z" stroke-width=".05"/></svg>