<svg width="36" height="35" xmlns="http://www.w3.org/2000/svg"><path stroke="transparent" d="m20.17 16.627.3.173v.347L8.15 24.26l-.3-.52 12.32-7.113Z" stroke-width=".05"/><path stroke="#000" stroke-width=".6000000000000001" fill="transparent" d="M12.35 31.534a.492.492 0 0 0 .19-.67.492.492 0 0 0-.675-.171.49.49 0 0 1-.675-.171.492.492 0 0 1 .19-.671.5.5 0 0 0 .19-.671.498.498 0 0 0-.68-.171.493.493 0 0 1-.675-.171.492.492 0 0 1 .19-.671.492.492 0 0 0 .19-.671.492.492 0 0 0-.675-.171.492.492 0 0 1-.675-.17.492.492 0 0 1 .19-.671.492.492 0 0 0 .19-.672.493.493 0 0 0-.675-.17.498.498 0 0 1-.68-.171.5.5 0 0 1 .19-.672.491.491 0 0 0 .19-.67.49.49 0 0 0-.675-.171.492.492 0 0 1-.675-.171.492.492 0 0 1 .19-.671.492.492 0 0 0 .19-.671.492.492 0 0 0-.675-.171.491.491 0 0 1-.675-.17.492.492 0 0 1 .19-.671.5.5 0 0 0 .19-.672.498.498 0 0 0-.68-.17.493.493 0 0 1-.675-.171.492.492 0 0 1 .19-.671.491.491 0 0 0 .19-.671.492.492 0 0 0-.675-.171.492.492 0 0 1-.675-.171.492.492 0 0 1 .19-.671.496.496 0 0 0 .19-.671.498.498 0 0 0-.68-.171.493.493 0 0 1-.675-.17"/><path stroke="transparent" d="m33.09 23.74-.3.52-12.32-7.113V16.8h.6l12.02 6.94ZM20.17 2.4h.6v13.88l-.3.52-.3-.173V2.4Z" stroke-width=".05"/><path stroke="transparent" d="m32.79 9.34.3.52-12.02 6.94h-.6l.3-.52 12.02-6.94Z" stroke-width=".05"/></svg>