<svg width="36" height="22" xmlns="http://www.w3.org/2000/svg"><path stroke="transparent" d="M20.47 3.453v.694L8.15 11.26l-.3-.52 12.62-7.287ZM33.09 10.74l-.3.52-12.32-7.113v-.694l12.62 7.287ZM31.795 12.985l-.3.52L20.32 7.053l.3-.52 11.175 6.452Z" stroke-width=".05"/><path stroke="#000" stroke-width=".6000000000000001" fill="transparent" d="M12.35 18.534a.492.492 0 0 0 .19-.67.492.492 0 0 0-.675-.171.49.49 0 0 1-.675-.171.492.492 0 0 1 .19-.671.5.5 0 0 0 .19-.671.498.498 0 0 0-.68-.171.493.493 0 0 1-.675-.171.492.492 0 0 1 .19-.671.492.492 0 0 0 .19-.671.492.492 0 0 0-.675-.171.492.492 0 0 1-.675-.17.492.492 0 0 1 .19-.671.492.492 0 0 0 .19-.671.493.493 0 0 0-.675-.171.498.498 0 0 1-.68-.171.5.5 0 0 1 .19-.672.491.491 0 0 0 .19-.67.49.49 0 0 0-.675-.171.492.492 0 0 1-.675-.171.492.492 0 0 1 .19-.671.492.492 0 0 0 .19-.671.492.492 0 0 0-.675-.171.491.491 0 0 1-.675-.17.492.492 0 0 1 .19-.671.5.5 0 0 0 .19-.672.498.498 0 0 0-.68-.17.493.493 0 0 1-.675-.171.492.492 0 0 1 .19-.671.491.491 0 0 0 .19-.671.492.492 0 0 0-.675-.171.492.492 0 0 1-.675-.171.492.492 0 0 1 .19-.671.496.496 0 0 0 .19-.671.498.498 0 0 0-.68-.171.493.493 0 0 1-.675-.17"/></svg>