<svg width="61" height="61" xmlns="http://www.w3.org/2000/svg"><path stroke="transparent" d="m6.495 51.027-.6.346V36.627l.6.346v14.054ZM9.09 49.704h-.6V38.297h.6v11.407Z" stroke-width=".05"/><path stroke="transparent" d="M18.665 58.053v.694l-12.77-7.374.6-.346 12.17 7.026ZM30.835 51.027l.6.346-12.77 7.374v-.694l12.17-7.026ZM28.395 49.444l.3.52-9.88 5.703-.3-.52 9.88-5.703Z" stroke-width=".05"/><path stroke="transparent" d="m30.835 36.973.3-.173.3.173v14.4l-.6-.346V36.973ZM18.665 29.947V29.6l.3-.173 12.17 7.027v.346l-.3.173-12.17-7.026ZM18.515 32.853l.3-.52 9.88 5.703-.3.52-9.88-5.703Z" stroke-width=".05"/><path stroke="transparent" d="m6.495 36.973-.6-.346 12.47-7.2.3.173v.347l-12.17 7.026ZM18.365 15.027l.6.346v14.054l-.3.173-.3-.173v-14.4Z" stroke-width=".05"/><text stroke="transparent" transform="matrix(.05 0 0 .05 39.997 33.211)" style="font:200px 'Arial'">
NH</text><text stroke="transparent" transform="matrix(.05 0 0 .05 54.441 35.044)" style="font:150px 'Arial'">
2</text><path stroke="transparent" d="m38.38 32.274.295.519-7.24 4.18-.3-.173v-.346l7.245-4.18Z" stroke-width=".05"/><text stroke="transparent" transform="matrix(.05 0 0 .05 2.307 11.611)" style="font:200px 'Arial'">
O</text><path stroke="transparent" d="m9.89 11.975.3-.52 8.625 4.981-.3.52-8.625-4.981ZM11.185 9.73l.3-.52 8.63 4.982-.3.52-8.63-4.982Z" stroke-width=".05"/><text stroke="transparent" transform="matrix(.05 0 0 .05 27.248 11.611)" style="font:200px 'Arial'">
OH</text><path stroke="transparent" d="m26.5 10.332.3.52-7.835 4.521-.6-.346 8.135-4.695Z" stroke-width=".05"/></svg>