<?xml version="1.0" standalone="no" ?>
<!DOCTYPE svg PUBLIC "-//W3C//DTD SVG 1.1//EN" "http://www.w3.org/Graphics/SVG/1.1/DTD/svg11.dtd">
<svg width="89px" height="49px" viewBox="0 0 89 49" xmlns="http://www.w3.org/2000/svg" xmlns:xlink="http://www.w3.org/1999/xlink" version="1.1" >
<path stroke="transparent" fill="#000000" transform="matrix(0.05 0 0 0.05 -549 -140)" d="M 11742.7,3222.41 L 11742.7,3236.26 L 11493.3,3380.26 L 11493.3,3366.41 L 11742.7,3222.41 Z " />
<path stroke="transparent" fill="#000000" transform="matrix(0.05 0 0 0.05 -549 -140)" d="M 11992.2,3366.41 L 11992.2,3380.26 L 11742.7,3236.26 L 11742.7,3222.41 L 11992.2,3366.41 Z " />
<path stroke="transparent" fill="#000000" transform="matrix(0.05 0 0 0.05 -549 -140)" d="M 11995.2,3308.28 L 11989.2,3318.67 L 11765.7,3189.63 L 11771.7,3179.24 L 11995.2,3308.28 Z " />
<path stroke="transparent" fill="#000000" transform="matrix(0.05 0 0 0.05 -549 -140)" d="M 12241.6,3222.41 L 12241.6,3236.26 L 11992.2,3380.26 L 11992.2,3366.41 L 12241.6,3222.41 Z " />
<text x="0" y="0" stroke="transparent" fill="#000000" transform="matrix(0.05 0 0 0.05 2.0848 25.0778)" style="font:normal normal normal 200px 'Arial'" >
HO</text>
<path stroke="transparent" fill="#000000" transform="matrix(0.05 0 0 0.05 -549 -140)" d="M 11330.7,3286.37 L 11336.7,3275.98 L 11493.3,3366.41 L 11493.3,3380.26 L 11330.7,3286.37 Z " />
<text x="0" y="0" stroke="transparent" fill="#000000" transform="matrix(0.05 0 0 0.05 21.7778 46.6778)" style="font:normal normal normal 200px 'Arial'" >
O</text>
<path stroke="transparent" fill="#000000" transform="matrix(0.05 0 0 0.05 -549 -140)" d="M 11525.3,3554.89 L 11513.3,3554.89 L 11513.3,3358.37 L 11525.3,3358.37 L 11525.3,3554.89 Z " />
<path stroke="transparent" fill="#000000" transform="matrix(0.05 0 0 0.05 -549 -140)" d="M 11473.4,3554.89 L 11461.4,3554.89 L 11461.4,3358.37 L 11473.4,3358.37 L 11473.4,3554.89 Z " />
<text x="0" y="0" stroke="transparent" fill="#000000" transform="matrix(0.05 0 0 0.05 71.6608 32.2778)" style="font:normal normal normal 200px 'Arial'" >
OH</text>
<path stroke="transparent" fill="#000000" transform="matrix(0.05 0 0 0.05 -549 -140)" d="M 12404.1,3316.26 L 12398.1,3326.65 L 12241.6,3236.26 L 12241.6,3222.41 L 12404.1,3316.26 Z " />
<text x="0" y="0" stroke="transparent" fill="#000000" transform="matrix(0.05 0 0 0.05 59.1901 10.6778)" style="font:normal normal normal 200px 'Arial'" >
O</text>
<path stroke="transparent" fill="#000000" transform="matrix(0.05 0 0 0.05 -549 -140)" d="M 12209.7,3047.89 L 12221.7,3047.89 L 12221.7,3244.3 L 12209.7,3244.3 L 12209.7,3047.89 Z " />
<path stroke="transparent" fill="#000000" transform="matrix(0.05 0 0 0.05 -549 -140)" d="M 12261.5,3047.89 L 12273.5,3047.89 L 12273.5,3244.3 L 12261.5,3244.3 L 12261.5,3047.89 Z " />
</svg>
