<svg width="54" height="49" xmlns="http://www.w3.org/2000/svg"><path stroke="transparent" d="M27.805 21.12v.693l-12.17 7.027-.3-.174v-.346l12.47-7.2Z" stroke-width=".05"/><text stroke="transparent" transform="matrix(.05 0 0 .05 36.386 32.278)" style="font:200px 'Arial'">
OH</text><path stroke="transparent" d="m35.93 25.813-.3.52-7.825-4.52v-.693l8.125 4.693Z" stroke-width=".05"/><text stroke="transparent" transform="matrix(.05 0 0 .05 23.915 10.678)" style="font:200px 'Arial'">
O</text><path stroke="transparent" d="M26.21 12.395h.6v9.82h-.6v-9.82ZM28.8 12.395h.6v9.82h-.6v-9.82ZM2.715 21.726l.3-.519 12.32 7.113v.346l-.3.174-12.32-7.114Z" stroke-width=".05"/><text stroke="transparent" transform="matrix(.05 0 0 .05 11.444 46.678)" style="font:200px 'Arial'">
OH</text><path stroke="transparent" d="M15.635 37.745h-.6V28.84l.3-.174.3.174v8.905Z" stroke-width=".05"/></svg>