<svg width="77" height="35" xmlns="http://www.w3.org/2000/svg"><path stroke="transparent" d="M50.805 21.12v.693l-12.47 7.2v-.693l12.47-7.2Z" stroke-width=".05"/><text stroke="transparent" transform="matrix(.05 0 0 .05 59.386 32.278)" style="font:200px 'Arial'">
OH</text><path stroke="transparent" d="m58.93 25.813-.3.52-7.825-4.52v-.693l8.125 4.693Z" stroke-width=".05"/><text stroke="transparent" transform="matrix(.05 0 0 .05 46.915 10.678)" style="font:200px 'Arial'">
O</text><path stroke="transparent" d="M49.21 12.395h.6v9.82h-.6v-9.82ZM51.8 12.395h.6v9.82h-.6v-9.82ZM25.865 21.813v-.693l12.47 7.2v.693l-12.47-7.2Z" stroke-width=".05"/><text stroke="transparent" transform="matrix(.05 0 0 .05 2.28 32.278)" style="font:200px 'Arial'">
HO</text><path stroke="transparent" d="m18.02 26.341-.3-.519 8.145-4.702v.693l-7.845 4.528Z" stroke-width=".05"/><text stroke="transparent" transform="matrix(.05 0 0 .05 21.974 10.678)" style="font:200px 'Arial'">
O</text><path stroke="transparent" d="M24.265 12.395h.6v9.82h-.6v-9.82ZM26.86 12.395h.6v9.82h-.6v-9.82Z" stroke-width=".05"/></svg>