<svg width="54" height="46" xmlns="http://www.w3.org/2000/svg"><path stroke="transparent" d="M27.805 21.12v.693l-12.17 7.027-.6-.347 12.77-7.373Z" stroke-width=".05"/><text stroke="transparent" transform="matrix(.05 0 0 .05 36.386 32.278)" style="font:200px 'Arial'">
OH</text><path stroke="transparent" d="m35.93 25.813-.3.52-7.825-4.52v-.693l8.125 4.693Z" stroke-width=".05"/><text stroke="transparent" transform="matrix(.05 0 0 .05 23.915 10.678)" style="font:200px 'Arial'">
O</text><path stroke="transparent" d="M26.21 12.395h.6v9.82h-.6v-9.82ZM28.8 12.395h.6v9.82h-.6v-9.82ZM2.065 22.849l.3-.52 13.12 7.575-.3.519-13.12-7.574ZM3.36 20.604l.3-.52 13.12 7.575-.3.519-13.12-7.574Z" stroke-width=".05"/><path stroke="transparent" d="M15.635 43.067h-.6V28.493l.6.347v14.227Z" stroke-width=".05"/></svg>