<svg width="65" height="49" xmlns="http://www.w3.org/2000/svg"><path stroke="transparent" d="M38.805 21.12v.693l-12.47 7.2v-.693l12.47-7.2Z" stroke-width=".05"/><text stroke="transparent" transform="matrix(.05 0 0 .05 47.386 32.278)" style="font:200px 'Arial'">
OH</text><path stroke="transparent" d="m46.93 25.813-.3.52-7.825-4.52v-.693l8.125 4.693Z" stroke-width=".05"/><text stroke="transparent" transform="matrix(.05 0 0 .05 34.915 10.678)" style="font:200px 'Arial'">
O</text><path stroke="transparent" d="M37.21 12.395h.6v9.82h-.6v-9.82ZM39.8 12.395h.6v9.82h-.6v-9.82Z" stroke-width=".05"/><text stroke="transparent" transform="matrix(.05 0 0 .05 2.751 25.078)" style="font:200px 'Arial'">
HO</text><path stroke="transparent" d="m18.2 24.319.3-.52 7.835 4.521v.693L18.2 24.319Z" stroke-width=".05"/><text stroke="transparent" transform="matrix(.05 0 0 .05 22.444 46.678)" style="font:200px 'Arial'">
O</text><path stroke="transparent" d="M27.93 37.745h-.6v-9.827h.6v9.827ZM25.335 37.745h-.6v-9.827h.6v9.827Z" stroke-width=".05"/></svg>