<?xml version="1.0" standalone="no" ?>
<!DOCTYPE svg PUBLIC "-//W3C//DTD SVG 1.1//EN" "http://www.w3.org/Graphics/SVG/1.1/DTD/svg11.dtd">
<svg width="54px" height="49px" viewBox="0 0 54 49" xmlns="http://www.w3.org/2000/svg" xmlns:xlink="http://www.w3.org/1999/xlink" version="1.1" >
<path stroke="transparent" fill="#000000" transform="matrix(0.05 0 0 0.05 -691 -86)" d="M 14129.4,2285.91 L 14129.4,2299.76 L 13877.9,2154.53 L 13883.9,2144.14 L 14129.4,2285.91 Z " />
<path stroke="transparent" fill="#000000" transform="matrix(0.05 0 0 0.05 -691 -86)" d="M 14378,2142.41 L 14378,2156.26 L 14129.4,2299.76 L 14129.4,2285.91 L 14378,2142.41 Z " />
<text x="0" y="0" stroke="transparent" fill="#000000" transform="matrix(0.05 0 0 0.05 24.0093 10.7278)" style="font:normal normal normal 200px 'Arial'" >
O</text>
<path stroke="transparent" fill="#000000" transform="matrix(0.05 0 0 0.05 -691 -86)" d="M 14346.1,1968.89 L 14358.1,1968.89 L 14358.1,2164.25 L 14346.1,2164.25 L 14346.1,1968.89 Z " />
<path stroke="transparent" fill="#000000" transform="matrix(0.05 0 0 0.05 -691 -86)" d="M 14397.8,1968.89 L 14409.8,1968.89 L 14409.8,2164.25 L 14397.8,2164.25 L 14397.8,1968.89 Z " />
<text x="0" y="0" stroke="transparent" fill="#000000" transform="matrix(0.05 0 0 0.05 36.4368 32.2528)" style="font:normal normal normal 200px 'Arial'" >
OH</text>
<path stroke="transparent" fill="#000000" transform="matrix(0.05 0 0 0.05 -691 -86)" d="M 14539.7,2235.76 L 14533.7,2246.15 L 14378,2156.26 L 14378,2142.41 L 14539.7,2235.76 Z " />
<text x="0" y="0" stroke="transparent" fill="#000000" transform="matrix(0.05 0 0 0.05 11.5819 46.6028)" style="font:normal normal normal 200px 'Arial'" >
O</text>
<path stroke="transparent" fill="#000000" transform="matrix(0.05 0 0 0.05 -691 -86)" d="M 14161.2,2473.39 L 14149.2,2473.39 L 14149.2,2277.92 L 14161.2,2277.92 L 14161.2,2473.39 Z " />
<path stroke="transparent" fill="#000000" transform="matrix(0.05 0 0 0.05 -691 -86)" d="M 14109.6,2473.39 L 14097.6,2473.39 L 14097.6,2277.92 L 14109.6,2277.92 L 14109.6,2473.39 Z " />
</svg>
