<svg width="79" height="35" xmlns="http://www.w3.org/2000/svg"><path stroke="transparent" d="M52.805 21.12v.693l-12.47 7.2v-.693l12.47-7.2Z" stroke-width=".05"/><text stroke="transparent" transform="matrix(.05 0 0 .05 61.386 32.278)" style="font:200px 'Arial'">
OH</text><path stroke="transparent" d="m60.93 25.813-.3.52-7.825-4.52v-.693l8.125 4.693Z" stroke-width=".05"/><text stroke="transparent" transform="matrix(.05 0 0 .05 48.915 10.678)" style="font:200px 'Arial'">
O</text><path stroke="transparent" d="M51.21 12.395h.6v9.82h-.6v-9.82ZM53.8 12.395h.6v9.82h-.6v-9.82ZM27.865 21.813v-.693l12.47 7.2v.693l-12.47-7.2Z" stroke-width=".05"/><path stroke="transparent" d="M15.39 29.013v-.693l12.475-7.2v.693l-12.475 7.2ZM2.77 21.726l.3-.519 12.32 7.113v.693L2.77 21.726Z" stroke-width=".05"/></svg>