<svg xmlns="http://www.w3.org/2000/svg" width="229.261" height="64.222"><text xml:space="preserve" style="font-variant:normal;font-weight:400;font-size:11.9552px;font-family:&quot;IBM Plex Sans&quot;;-inkscape-font-specification:IBMPlexSans;writing-mode:lr-tb;fill:#000;fill-opacity:1;fill-rule:nonzero;stroke:none" transform="matrix(1.33333 0 0 1.33333 -1.227 48.051)"><tspan x="0" y="0">5</tspan></text><path d="M36.238 11.955c0 8.578-6.953 15.531-15.53 15.531-8.578 0-15.532-6.953-15.532-15.53 0-8.578 6.954-15.532 15.531-15.532 8.578 0 15.531 6.954 15.531 15.531M0 0l20.707-11.955M20.707-11.955 41.415 0M41.415 0v23.91M41.415 23.91 20.707 35.867M20.707 35.866 0 23.911M0 23.91V0" style="fill:none;stroke:#000;stroke-width:.3985;stroke-linecap:butt;stroke-linejoin:miter;stroke-miterlimit:10;stroke-dasharray:none;stroke-opacity:1" transform="matrix(1.33333 0 0 -1.33333 11.26 48.051)"/><text xml:space="preserve" style="font-variant:normal;font-weight:400;font-size:11.9552px;font-family:CMR12;-inkscape-font-specification:CMR12;writing-mode:lr-tb;fill:#000;fill-opacity:1;fill-rule:nonzero;stroke:none" transform="matrix(1.33333 0 0 1.33333 78.475 48.051)"><tspan x="0" y="0">+</tspan></text><text xml:space="preserve" style="font-variant:normal;font-size:11.9552px;font-family:&quot;IBM Plex Sans&quot;;-inkscape-font-specification:IBMPlexSans-Identity-H;writing-mode:lr-tb;fill:#000;fill-opacity:1;fill-rule:nonzero;stroke:none" transform="matrix(1.33333 0 0 1.33333 102.347 48.051)"><tspan x="0 7.8067455" y="0">Br</tspan></text><text xml:space="preserve" style="font-variant:normal;font-size:7.9701px;font-family:&quot;IBM Plex Sans&quot;;-inkscape-font-specification:IBMPlexSans-Identity-H;writing-mode:lr-tb;fill:#000;fill-opacity:1;fill-rule:nonzero;stroke:none" transform="matrix(1.33333 0 0 1.33333 118.606 50.442)"><tspan x="0" y="0">2</tspan></text><path d="M172.866 3.084Z" style="fill:#00adef;fill-opacity:1;fill-rule:nonzero;stroke:none" transform="matrix(1.33333 0 0 -1.33333 -1.227 48.051)"/><path d="M107.112 3.084h52.837" style="fill:none;stroke:#000;stroke-width:.79701;stroke-linecap:butt;stroke-linejoin:miter;stroke-miterlimit:10;stroke-dasharray:none;stroke-opacity:1" transform="matrix(1.33333 0 0 -1.33333 -1.227 48.051)"/><path d="M0 3.088 3.088 0 0-3.088" style="fill:none;stroke:#000;stroke-width:.79701;stroke-linecap:butt;stroke-linejoin:miter;stroke-miterlimit:10;stroke-dasharray:none;stroke-opacity:1" transform="matrix(1.33333 0 0 -1.33333 208.451 43.939)"/><text xml:space="preserve" style="font-variant:normal;font-weight:400;font-size:11.9552px;font-family:&quot;IBM Plex Sans&quot;;-inkscape-font-specification:IBMPlexSans;writing-mode:lr-tb;fill:#000;fill-opacity:1;fill-rule:nonzero;stroke:none" transform="matrix(1.33333 0 0 1.33333 150.127 37.435)"><tspan x="0 4.1962752" y="0">t,</tspan></text><text xml:space="preserve" style="font-variant:normal;font-size:11.9552px;font-family:&quot;IBM Plex Sans&quot;;-inkscape-font-specification:IBMPlexSans-Identity-H;writing-mode:lr-tb;fill:#000;fill-opacity:1;fill-rule:nonzero;stroke:none" transform="matrix(1.33333 0 0 1.33333 163.82 37.435)"><tspan x="0 6.6829567" y="0">Fe</tspan></text><text xml:space="preserve" style="font-variant:normal;font-size:11.9552px;font-family:&quot;IBM Plex Sans&quot;;-inkscape-font-specification:IBMPlexSans-Identity-H;writing-mode:lr-tb;fill:#000;fill-opacity:1;fill-rule:nonzero;stroke:none" transform="matrix(1.33333 0 0 1.33333 181.48 37.435)"><tspan x="0 7.8067455" y="0">Br</tspan></text><text xml:space="preserve" style="font-variant:normal;font-size:7.9701px;font-family:&quot;IBM Plex Sans&quot;;-inkscape-font-specification:IBMPlexSans-Identity-H;writing-mode:lr-tb;fill:#000;fill-opacity:1;fill-rule:nonzero;stroke:none" transform="matrix(1.33333 0 0 1.33333 197.74 39.826)"><tspan x="0" y="0">3</tspan></text></svg>