<svg width="240.002" height="46.44" xmlns="http://www.w3.org/2000/svg"><path stroke="transparent" d="M20.12 39.903v1.109L0 29.393l.48-.83zM40.008 28.423v1.109L20.12 41.012v-1.109z" style="stroke-width:.08"/><text x="33.783" y="11.795" stroke="transparent" style="font-style:normal;font-variant:normal;font-weight:400;font-stretch:normal;font-size:16px;line-height:normal;font-family:Inter;stroke-width:.08">O</text><path stroke="transparent" d="M37.456 14.542h.96v15.629h-.96zM41.592 14.542h.96v15.629h-.96z" style="stroke-width:.08"/><text x="53.667" y="46.235" stroke="transparent" style="font-style:normal;font-variant:normal;font-weight:400;font-stretch:normal;font-size:16px;line-height:normal;font-family:Inter;stroke-width:.08">ONa</text><path stroke="transparent" d="m52.944 35.892-.48.831-12.456-7.191v-1.109z" style="stroke-width:.08"/><text x="100.056" y="24.446" stroke="transparent" style="font-style:normal;font-variant:normal;font-weight:400;font-stretch:normal;font-size:16px;line-height:normal;font-family:Inter;stroke-width:.08">+</text><text x="122.891" y="26.574" stroke="transparent" style="font-style:normal;font-variant:normal;font-weight:400;font-stretch:normal;font-size:15.92px;line-height:normal;font-family:Inter;stroke-width:.08">NaOH</text><path stroke="transparent" d="M231.672 22.749h-51.056v-.96h51.056z" style="stroke-width:.08"/><path stroke="transparent" d="m239.992 22.269-9.6 2.48s1.2-1.396 1.2-2.48c0-1.12-1.2-2.56-1.2-2.56l9.6 2.56" style="stroke-width:.08"/><path stroke="#000" stroke-width=".08" fill="transparent" d="m239.992 22.269-9.6 2.48s1.2-1.396 1.2-2.48c0-1.12-1.2-2.56-1.2-2.56l9.6 2.56"/><text x="204.773" y="13.973" stroke="transparent" style="font-style:normal;font-variant:normal;font-weight:400;font-stretch:normal;font-size:15.92px;line-height:normal;font-family:Inter;stroke-width:.08">t</text><text x="209.195" y="8.224" stroke="transparent" style="font-style:normal;font-variant:normal;font-weight:400;font-stretch:normal;font-size:11.94px;line-height:normal;font-family:Inter;stroke-width:.08">o</text></svg>