<svg width="536.795" height="15.087" xmlns="http://www.w3.org/2000/svg"><text x="-1.227" y="11.637" stroke="transparent" style="font-style:normal;font-variant:normal;font-weight:400;font-stretch:normal;font-size:15.9997px;line-height:normal;font-family:Inter;stroke-width:.0799984">метан</text><text x="120.671" y="11.636" stroke="transparent" style="font-style:normal;font-variant:normal;font-weight:400;font-stretch:normal;font-size:15.9997px;line-height:normal;font-family:Inter;stroke-width:.0799984">X</text><text x="342.458" y="12.064" stroke="transparent" style="font-style:normal;font-variant:normal;font-weight:400;font-stretch:normal;font-size:15.9997px;line-height:normal;font-family:Inter;stroke-width:.0799984">Y</text><text x="205.824" y="11.637" stroke="transparent" style="font-style:normal;font-variant:normal;font-weight:400;font-stretch:normal;font-size:15.9997px;line-height:normal;font-family:Inter;stroke-width:.0799984">этаналь</text><text x="427.548" y="11.814" stroke="transparent" style="font-style:normal;font-variant:normal;font-weight:400;font-stretch:normal;font-size:15.9997px;line-height:normal;font-family:Inter;stroke-width:.0799984">пропилацетат</text><path stroke="transparent" d="M97.73 7.844H59.972v-.96h37.76Z" style="stroke-width:.0799984"/><path stroke="transparent" d="m106.05 7.364-9.6 2.48s1.2-1.394 1.2-2.48c0-1.12-1.2-2.56-1.2-2.56l9.6 2.56" style="stroke-width:.0799984"/><path stroke="#000" stroke-width=".08" fill="transparent" d="m106.05 7.364-9.6 2.48s1.2-1.394 1.2-2.48c0-1.12-1.2-2.56-1.2-2.56l9.6 2.56"/><path stroke="transparent" d="M183.312 8.153h-37.759v-.96h37.76z" style="stroke-width:.0799984"/><path stroke="transparent" d="m191.632 7.673-9.6 2.48s1.2-1.395 1.2-2.48c0-1.12-1.2-2.56-1.2-2.56l9.6 2.56" style="stroke-width:.0799984"/><path stroke="#000" stroke-width=".08" fill="transparent" d="m191.632 7.673-9.6 2.48s1.2-1.395 1.2-2.48c0-1.12-1.2-2.56-1.2-2.56l9.6 2.56"/><path stroke="transparent" d="M319.532 7.87h-37.76v-.96h37.76z" style="stroke-width:.0799984"/><path stroke="transparent" d="m327.852 7.39-9.6 2.48s1.2-1.394 1.2-2.48c0-1.12-1.2-2.56-1.2-2.56l9.6 2.56" style="stroke-width:.0799984"/><path stroke="#000" stroke-width=".08" fill="transparent" d="m327.852 7.39-9.6 2.48s1.2-1.394 1.2-2.48c0-1.12-1.2-2.56-1.2-2.56l9.6 2.56"/><path stroke="transparent" d="M405.445 7.903h-37.76v-.96h37.76z" style="stroke-width:.0799984"/><path stroke="transparent" d="m413.764 7.423-9.6 2.48s1.2-1.395 1.2-2.48c0-1.12-1.2-2.56-1.2-2.56l9.6 2.56" style="stroke-width:.0799984"/><path stroke="#000" stroke-width=".08" fill="transparent" d="m413.764 7.423-9.6 2.48s1.2-1.395 1.2-2.48c0-1.12-1.2-2.56-1.2-2.56l9.6 2.56"/></svg>