<svg width="462.452" height="15.087" xmlns="http://www.w3.org/2000/svg"><text x="-1.227" y="11.637" stroke="transparent" style="font-style:normal;font-variant:normal;font-weight:400;font-stretch:normal;font-size:15.9997px;line-height:normal;font-family:Inter;stroke-width:.0799984">метан</text><text x="101.89" y="11.636" stroke="transparent" style="font-style:normal;font-variant:normal;font-weight:400;font-stretch:normal;font-size:15.9997px;line-height:normal;font-family:Inter;stroke-width:.0799984">X</text><text x="286.263" y="12.064" stroke="transparent" style="font-style:normal;font-variant:normal;font-weight:400;font-stretch:normal;font-size:15.9997px;line-height:normal;font-family:Inter;stroke-width:.0799984">Y</text><text x="168.02" y="11.637" stroke="transparent" style="font-style:normal;font-variant:normal;font-weight:400;font-stretch:normal;font-size:15.9997px;line-height:normal;font-family:Inter;stroke-width:.0799984">этаналь</text><text x="353.204" y="11.814" stroke="transparent" style="font-style:normal;font-variant:normal;font-weight:400;font-stretch:normal;font-size:15.9997px;line-height:normal;font-family:Inter;stroke-width:.0799984">пропилацетат</text><path stroke="transparent" d="M78.95 7.844H60.035v-.96H78.95z" style="stroke-width:.0566206"/><path stroke="transparent" d="m87.27 7.364-9.6 2.48s1.2-1.394 1.2-2.48c0-1.12-1.2-2.56-1.2-2.56l9.6 2.56" style="stroke-width:.0799984"/><path stroke="#000" stroke-width=".08" fill="transparent" d="m87.27 7.364-9.6 2.48s1.2-1.394 1.2-2.48c0-1.12-1.2-2.56-1.2-2.56l9.6 2.56"/><path stroke="transparent" d="M145.489 7.844h-18.915v-.96h18.915z" style="stroke-width:.0566206"/><path stroke="transparent" d="m153.809 7.364-9.6 2.48s1.2-1.394 1.2-2.48c0-1.12-1.2-2.56-1.2-2.56l9.6 2.56" style="stroke-width:.0799984"/><path stroke="#000" stroke-width=".08" fill="transparent" d="m153.809 7.364-9.6 2.48s1.2-1.394 1.2-2.48c0-1.12-1.2-2.56-1.2-2.56l9.6 2.56"/><path stroke="transparent" d="M262.903 7.844h-18.915v-.96h18.915z" style="stroke-width:.0566206"/><path stroke="transparent" d="m271.223 7.364-9.6 2.48s1.2-1.394 1.2-2.48c0-1.12-1.2-2.56-1.2-2.56l9.6 2.56" style="stroke-width:.0799984"/><path stroke="#000" stroke-width=".08" fill="transparent" d="m271.223 7.364-9.6 2.48s1.2-1.394 1.2-2.48c0-1.12-1.2-2.56-1.2-2.56l9.6 2.56"/><path stroke="transparent" d="M330.87 7.844h-18.914v-.96h18.915z" style="stroke-width:.0566206"/><path stroke="transparent" d="m339.19 7.364-9.6 2.48s1.2-1.394 1.2-2.48c0-1.12-1.2-2.56-1.2-2.56l9.6 2.56" style="stroke-width:.0799984"/><path stroke="#000" stroke-width=".08" fill="transparent" d="m339.19 7.364-9.6 2.48s1.2-1.394 1.2-2.48c0-1.12-1.2-2.56-1.2-2.56l9.6 2.56"/></svg>