<?xml version="1.0" standalone="no" ?>
<!DOCTYPE svg PUBLIC "-//W3C//DTD SVG 1.1//EN" "http://www.w3.org/Graphics/SVG/1.1/DTD/svg11.dtd">
<svg width="173px" height="27px" viewBox="0 0 173 27" xmlns="http://www.w3.org/2000/svg" xmlns:xlink="http://www.w3.org/1999/xlink" version="1.1" >
<text x="0" y="0" stroke="transparent" fill="#000000" transform="matrix(0.05 0 0 0.05 2 19.8847)" style="font:normal normal normal 200px 'Inter'" >
CH</text>
<text x="0" y="0" stroke="transparent" fill="#000000" transform="matrix(0.05 0 0 0.05 16.4444 21.7181)" style="font:normal normal normal 150px 'Inter'" >
3</text>
<text x="0" y="0" stroke="transparent" fill="#000000" transform="matrix(0.05 0 0 0.05 20.6146 19.8847)" style="font:normal normal normal 200px 'Inter'" >
CH</text>
<text x="0" y="0" stroke="transparent" fill="#000000" transform="matrix(0.05 0 0 0.05 35.059 21.7181)" style="font:normal normal normal 150px 'Inter'" >
2</text>
<text x="0" y="0" stroke="transparent" fill="#000000" transform="matrix(0.05 0 0 0.05 39.2292 19.8847)" style="font:normal normal normal 200px 'Inter'" >
COONa</text>
<text x="0" y="0" stroke="transparent" fill="#000000" transform="matrix(0.05 0 0 0.05 83.2227 19.2722)" style="font:normal normal normal 200px 'Inter'" >
+</text>
<text x="0" y="0" stroke="transparent" fill="#000000" transform="matrix(0.05 0 0 0.05 97.494 20.5722)" style="font:normal normal normal 200px 'Inter'" >
NaOH</text>
<path stroke="transparent" fill="#000000" transform="matrix(0.05 0 0 0.05 -588 -196)" d="M 15073.2,4284.22 L 14434.2,4284.22 L 14434.2,4272.22 L 15073.2,4272.22 Z " />
<path stroke="transparent" fill="#000000" transform="matrix(0.05 0 0 0.05 -588 -196)" d="M 15177.2,4278.22 C 15177.2,4278.22 15057.2,4309.22 15057.2,4309.22 C 15057.2,4309.22 15072.2,4291.78 15072.2,4278.22 C 15072.2,4264.22 15057.2,4246.22 15057.2,4246.22 C 15057.2,4246.22 15177.2,4278.22 15177.2,4278.22 C 15177.2,4278.22 15177.2,4278.22 15177.2,4278.22 " />
<path stroke="#000000" stroke-width="1" fill="transparent" transform="matrix(0.05 0 0 0.05 -588 -196)" d="M 15177.2,4278.22 C 15177.2,4278.22 15057.2,4309.22 15057.2,4309.22 C 15057.2,4309.22 15072.2,4291.78 15072.2,4278.22 C 15072.2,4264.22 15057.2,4246.22 15057.2,4246.22 C 15057.2,4246.22 15177.2,4278.22 15177.2,4278.22 C 15177.2,4278.22 15177.2,4278.22 15177.2,4278.22 " />
<text x="0" y="0" stroke="transparent" fill="#000000" transform="matrix(0.05 0 0 0.05 148.81 12.6667)" style="font:normal normal normal 200px 'Inter'" >
t</text>
<text x="0" y="0" stroke="transparent" fill="#000000" transform="matrix(0.05 0 0 0.05 151.587 9.05556)" style="font:normal normal normal 150px 'Inter'" >
o</text>
</svg>
