<svg width="123.667" height="123.667" viewBox="0 0 32.72 32.72" xmlns="http://www.w3.org/2000/svg"><g transform="translate(-90.946 -80.825)"><circle style="fill:none;fill-opacity:.319588;stroke:#000;stroke-width:.08712;stroke-linecap:round;stroke-linejoin:round;stroke-dasharray:none;stroke-opacity:1" cx="37.578" cy="96.855" r="13.097"/><path style="fill:#62a0ea;fill-opacity:.971134;stroke-width:.00283203;stroke-linecap:round;stroke-linejoin:round;stroke-opacity:0" d="m43.791 87.946.002-2.62-2.27 1.31a2.62 2.62 0 0 0 2.268 1.31z"/><path style="fill:none;stroke:#000;stroke-width:.0873124px;stroke-linecap:butt;stroke-linejoin:miter;stroke-opacity:1" d="m24.481 96.482 19.312-11.155v23.056"/><circle style="fill:#000;fill-opacity:1;stroke:none;stroke-width:.0335643;stroke-linecap:round;stroke-linejoin:round;stroke-dasharray:none;stroke-opacity:1" cx="43.793" cy="85.327" r=".165"/><g transform="matrix(.33 0 0 .33 -44.516 58.107)"><path style="fill:#62a0ea;fill-opacity:.971134;stroke-width:.0085819;stroke-linecap:round;stroke-linejoin:round;stroke-opacity:0" d="m144.143 111.681-3.969 6.874h7.938a7.938 7.938 0 0 0-3.97-6.874zM136.205 125.43l3.97-6.875h-7.938a7.938 7.938 0 0 0 3.968 6.874z"/><path style="fill:none;stroke:#000;stroke-width:.264136px;stroke-linecap:butt;stroke-linejoin:miter;stroke-opacity:1" d="m120.33 152.926 39.688-68.741M100.487 118.555h79.375"/><circle style="fill:#000;fill-opacity:1;stroke:none;stroke-width:.10171;stroke-linecap:round;stroke-linejoin:round;stroke-dasharray:none;stroke-opacity:1" cx="140.174" cy="118.555" r=".5"/></g><path style="fill:#62a0ea;fill-opacity:.971134;stroke-width:.00283203;stroke-linecap:round;stroke-linejoin:round;stroke-opacity:0" d="m.538 135.048-1.31 2.269h2.62a2.62 2.62 0 0 0-1.31-2.269z"/><path style="fill:#62a0ea;fill-opacity:1;stroke-width:.00283203;stroke-linecap:round;stroke-linejoin:round;stroke-opacity:0" d="m2.954 130.849 1.31-2.268h-2.62a2.62 2.62 0 0 0 1.31 2.268z"/><path style="fill:none;stroke:#000;stroke-width:.0871651px;stroke-linecap:butt;stroke-linejoin:miter;stroke-opacity:1" d="M-11.355 128.58h26.194M-4.807 144.29 8.29 121.607M-11.355 137.317h26.194"/><circle style="fill:#000;fill-opacity:1;stroke:none;stroke-width:.0335644;stroke-linecap:round;stroke-linejoin:round;stroke-dasharray:none;stroke-opacity:1" cx="4.264" cy="128.581" r=".165"/><circle style="fill:#000;fill-opacity:1;stroke:none;stroke-width:.0335644;stroke-linecap:round;stroke-linejoin:round;stroke-dasharray:none;stroke-opacity:1" cx="-.772" cy="137.317" r=".165"/><path style="fill:#cdab8f;fill-opacity:1;stroke:none;stroke-width:.198001;stroke-linecap:round;stroke-linejoin:round;stroke-dasharray:none;stroke-opacity:1" d="M41.72 129.89a2.62 2.62 0 0 0 .351-1.31h-2.619l-1.31 2.269a2.62 2.62 0 0 0 3.578-.959z"/><path style="fill:#62a0ea;fill-opacity:.971134;stroke-width:.00283203;stroke-linecap:round;stroke-linejoin:round;stroke-opacity:0" d="m35.726 135.048-1.31 2.269h2.62a2.62 2.62 0 0 0-1.31-2.269z"/><path style="fill:none;stroke:#000;stroke-width:.0871651px;stroke-linecap:butt;stroke-linejoin:miter;stroke-opacity:1" d="M23.833 128.58h26.194M30.381 144.29l13.097-22.684M23.833 137.317h26.194"/><circle style="fill:#000;fill-opacity:1;stroke:none;stroke-width:.0335644;stroke-linecap:round;stroke-linejoin:round;stroke-dasharray:none;stroke-opacity:1" cx="39.452" cy="128.581" r=".165"/><circle style="fill:#000;fill-opacity:1;stroke:none;stroke-width:.0335644;stroke-linecap:round;stroke-linejoin:round;stroke-dasharray:none;stroke-opacity:1" cx="34.416" cy="137.317" r=".165"/><g transform="translate(-39.89 15.226)"><path style="fill:#cdab8f;fill-opacity:1;stroke:none;stroke-width:.198;stroke-linecap:round;stroke-linejoin:round;stroke-dasharray:none;stroke-opacity:1" d="M109.74 116.413a2.62 2.62 0 0 0-.352 1.31h2.62l1.31-2.269a2.62 2.62 0 0 0-3.579.959z"/><path style="fill:#62a0ea;fill-opacity:.971134;stroke-width:.00283203;stroke-linecap:round;stroke-linejoin:round;stroke-opacity:0" d="m113.317 115.454-1.31 2.269h2.62a2.62 2.62 0 0 0-1.31-2.269z"/><path style="fill:none;stroke:#000;stroke-width:.0871651px;stroke-linecap:butt;stroke-linejoin:miter;stroke-opacity:1" d="m105.46 129.065 13.096-22.685M98.91 117.723h26.194"/><circle style="fill:#000;fill-opacity:1;stroke:none;stroke-width:.0335644;stroke-linecap:round;stroke-linejoin:round;stroke-dasharray:none;stroke-opacity:1" cx="112.008" cy="117.723" r=".165"/></g><g transform="matrix(.33 0 0 .33 31.155 62.163)"><path style="fill:#62a0ea;fill-opacity:.971134;stroke-width:.0085819;stroke-linecap:round;stroke-linejoin:round;stroke-opacity:0" d="m120.48 112.49-3.968 6.874h7.937a7.938 7.938 0 0 0-3.969-6.874zM135.74 86.017l-3.969 6.874h7.938a7.938 7.938 0 0 0-3.969-6.874z"/><path style="fill:none;stroke:#000;stroke-width:.264136px;stroke-linecap:butt;stroke-linejoin:miter;stroke-opacity:1" d="M84.441 92.891h79.375M104.285 140.498l39.687-68.74M84.441 119.364h79.375"/><circle style="fill:#000;fill-opacity:1;stroke:none;stroke-width:.10171;stroke-linecap:round;stroke-linejoin:round;stroke-dasharray:none;stroke-opacity:1" cx="116.512" cy="119.364" r=".5"/><circle style="fill:#000;fill-opacity:1;stroke:none;stroke-width:.10171;stroke-linecap:round;stroke-linejoin:round;stroke-dasharray:none;stroke-opacity:1" cx="131.771" cy="92.891" r=".5"/></g><g transform="translate(-.212 1.31)"><circle style="fill:none;fill-opacity:.319588;stroke:#000;stroke-width:.08712;stroke-linecap:round;stroke-linejoin:round;stroke-dasharray:none;stroke-opacity:1" cx="107.517" cy="95.876" r="13.097"/><path style="fill:#62a0ea;fill-opacity:1;stroke:none;stroke-width:.198;stroke-linecap:round;stroke-linejoin:round;stroke-dasharray:none;stroke-opacity:1" d="M109.786 97.185a2.62 2.62 0 0 0 .35-1.31h-2.619l-1.31 2.27a2.62 2.62 0 0 0 3.579-.96z"/><path style="fill:none;stroke:#000;stroke-width:.0873124px;stroke-linecap:butt;stroke-linejoin:miter;stroke-opacity:1" d="m100.969 107.218 6.548-11.342h13.097"/><circle style="fill:#000;fill-opacity:1;stroke:none;stroke-width:.0335643;stroke-linecap:round;stroke-linejoin:round;stroke-dasharray:none;stroke-opacity:1" cx="107.517" cy="95.876" r=".165"/></g></g></svg>