<svg width="58" height="40" xmlns="http://www.w3.org/2000/svg"><text stroke="transparent" transform="matrix(.05 0 0 .05 36.743 11.549)" style="font:200px&quot;Arial&quot;">
NH</text><text stroke="transparent" transform="matrix(.05 0 0 .05 51.188 13.382)" style="font:150px&quot;Arial&quot;">
2</text><path stroke="transparent" d="m28.185 15.311-.3-.173v-.347l7.24-4.18.3.52-7.24 4.18Z" stroke-width=".05"/><path stroke="transparent" d="m28.185 29.712-.6-.347V15.311l.3-.173.3.173v14.4ZM15.415 37.084v-.692l12.17-7.027.6.347-12.77 7.372ZM15.565 34.005l-.3-.52 9.875-5.703.3.52-9.875 5.703Z" stroke-width=".05"/><path stroke="transparent" d="m2.64 29.712.6-.347 12.175 7.027v.692L2.64 29.711Z" stroke-width=".05"/><path stroke="transparent" d="m2.64 14.964.6.347v14.054l-.6.347V14.964ZM5.235 16.635h.6V28.04h-.6V16.635Z" stroke-width=".05"/><path stroke="transparent" d="M15.415 7.591v.693L3.24 15.311l-.6-.347 12.775-7.373Z" stroke-width=".05"/><path stroke="transparent" d="M15.415 8.284v-.693l12.47 7.2v.347l-.3.173-12.17-7.027ZM15.265 11.19l.3-.519 9.875 5.704-.3.519-9.875-5.703Z" stroke-width=".05"/></svg>