<svg width="429.562" height="19.651" xmlns="http://www.w3.org/2000/svg"><defs><path id="a" d="M-21.998 44.729h318.971v81.759H-21.998Z"/><path id="b" d="M-21.998 44.729h318.971v81.759H-21.998Z"/></defs><path stroke="transparent" d="M228.082 13.748h-37.497v-.9h37.498z" stroke-width=".075"/><path stroke="transparent" d="m235.882 13.298-9 2.325s1.125-1.308 1.125-2.325c0-1.05-1.125-2.4-1.125-2.4l9 2.4" stroke-width=".075"/><path stroke="#000" fill="transparent" d="m235.882 13.298-9 2.325s1.125-1.308 1.125-2.325c0-1.05-1.125-2.4-1.125-2.4l9 2.4" stroke-width=".05"/><text xml:space="preserve" style="font-size:14.6667px;line-height:1.25;font-family:Inter;-inkscape-font-specification:&quot;Inter, Normal&quot;;font-variant-ligatures:none;white-space:pre;shape-inside:url(#a);display:inline" transform="translate(20.706 -40.568)"><tspan x="-21.998" y="58.302">Na₂CO₃  +  CaCO₃  +  SiO₂</tspan></text><text xml:space="preserve" style="font-size:14.6667px;line-height:1.25;font-family:Inter;-inkscape-font-specification:&quot;Inter, Normal&quot;;font-variant-ligatures:none;white-space:pre;shape-inside:url(#b);display:inline" transform="translate(266.836 -40.568)"><tspan x="-21.998" y="58.302">Na₂O⋅CaO⋅6SiO₂  +  2CO₂<tspan style="font-family:&quot;Cambria Math&quot;;-inkscape-font-specification:&quot;Cambria Math&quot;">↑</tspan></tspan></text><text xml:space="preserve" style="font-size:14.6667px;line-height:1.25;font-family:Inter;-inkscape-font-specification:&quot;Inter, Normal&quot;;font-variant-ligatures:none" x="203.573" y="10.75"><tspan x="203.573" y="10.75" style="font-style:normal;font-variant:normal;font-weight:400;font-stretch:normal;font-size:14.6667px;font-family:Inter;-inkscape-font-specification:Inter">t°</tspan></text></svg>