<svg width="428.368" height="14.028" xmlns="http://www.w3.org/2000/svg"><defs><path id="c" d="M58.661 69.294h209.347v85.426H58.661z"/><path id="a" d="M-21.998 44.729h318.971v81.759H-21.998z"/><path id="b" d="M-21.998 44.729h318.971v81.759H-21.998z"/></defs><path stroke="transparent" d="M228.082 7.014h-37.497v-.9h37.498z" stroke-width=".075"/><path stroke="transparent" d="m235.882 6.564-9 2.325s1.125-1.308 1.125-2.325c0-1.05-1.125-2.4-1.125-2.4l9 2.4" stroke-width=".075"/><path stroke="#000" fill="transparent" d="m235.882 6.564-9 2.325s1.125-1.308 1.125-2.325c0-1.05-1.125-2.4-1.125-2.4l9 2.4" stroke-width=".05"/><text xml:space="preserve" style="font-size:14.6667px;line-height:1.25;font-family:Inter;-inkscape-font-specification:&quot;Inter, Normal&quot;;font-variant-ligatures:none;white-space:pre;shape-inside:url(#a)" transform="translate(20.706 -47.302)"><tspan x="-21.998" y="58.302">Na<tspan style="font-size:65%;baseline-shift:sub">2</tspan>CO<tspan style="font-size:65%;baseline-shift:sub">3</tspan>  +  CaCO<tspan style="font-size:65%;baseline-shift:sub">3</tspan>  +  SiO<tspan style="font-size:65%;baseline-shift:sub">2</tspan></tspan></text><text xml:space="preserve" style="font-size:14.6667px;line-height:1.25;font-family:Inter;-inkscape-font-specification:&quot;Inter, Normal&quot;;font-variant-ligatures:none;white-space:pre;shape-inside:url(#b)" transform="translate(266.836 -47.302)"><tspan x="-21.998" y="58.302">Na<tspan style="font-size:65%;baseline-shift:sub">2</tspan>O⋅CaO⋅6SiO<tspan style="font-size:65%;baseline-shift:sub">2</tspan>  +  2CO<tspan style="font-size:65%;baseline-shift:sub">2</tspan><tspan style="font-family:&quot;Cambria Math&quot;;-inkscape-font-specification:&quot;Cambria Math&quot;">↑</tspan></tspan></text></svg>