<svg xmlns="http://www.w3.org/2000/svg" width="339.307" height="17.213"><text xml:space="preserve" style="font-variant:normal;font-size:11.9552px;font-family:&quot;Inter V&quot;;-inkscape-font-specification:Inter-Regular-Identity-H;writing-mode:lr-tb;fill:#000;fill-opacity:1;fill-rule:nonzero;stroke:none" transform="matrix(1.33333 0 0 1.33333 1.328 13.077)"><tspan x="0" y="0">2</tspan></text><text xml:space="preserve" style="font-variant:normal;font-size:11.9552px;font-family:&quot;Inter V&quot;;-inkscape-font-specification:Inter-Regular-Identity-H;writing-mode:lr-tb;fill:#000;fill-opacity:1;fill-rule:nonzero;stroke:none" transform="matrix(1.33333 0 0 1.33333 10.975 13.077)"><tspan x="0" y="0">C</tspan></text><text xml:space="preserve" style="font-variant:normal;font-size:11.9552px;font-family:&quot;Inter V&quot;;-inkscape-font-specification:Inter-Regular-Identity-H;writing-mode:lr-tb;fill:#000;fill-opacity:1;fill-rule:nonzero;stroke:none" transform="matrix(1.33333 0 0 1.33333 22.567 13.077)"><tspan x="0" y="0">O</tspan></text><text xml:space="preserve" style="font-variant:normal;font-size:7.9701px;font-family:&quot;Inter V&quot;;-inkscape-font-specification:Inter-Regular-Identity-H;writing-mode:lr-tb;fill:#000;fill-opacity:1;fill-rule:nonzero;stroke:none" transform="matrix(1.33333 0 0 1.33333 39.185 15.468)"><tspan x="0 3.6582758 8.1534119" y="0">газ</tspan></text><text xml:space="preserve" style="font-variant:normal;font-size:11.9552px;font-family:&quot;Inter V&quot;;-inkscape-font-specification:Inter-Regular-Identity-H;writing-mode:lr-tb;fill:#000;fill-opacity:1;fill-rule:nonzero;stroke:none" transform="matrix(1.33333 0 0 1.33333 63.112 13.077)"><tspan x="0" y="0">+</tspan></text><text xml:space="preserve" style="font-variant:normal;font-size:11.9552px;font-family:&quot;Inter V&quot;;-inkscape-font-specification:Inter-Regular-Identity-H;writing-mode:lr-tb;fill:#000;fill-opacity:1;fill-rule:nonzero;stroke:none" transform="matrix(1.33333 0 0 1.33333 80.759 13.077)"><tspan x="0" y="0">O</tspan></text><text xml:space="preserve" style="font-variant:normal;font-size:7.9701px;font-family:&quot;Inter V&quot;;-inkscape-font-specification:Inter-Regular-Identity-H;writing-mode:lr-tb;fill:#000;fill-opacity:1;fill-rule:nonzero;stroke:none" transform="matrix(1.33333 0 0 1.33333 92.895 15.468)"><tspan x="0 8.1773224 11.835599 16.330734" y="0">2газ</tspan></text><path d="M137.271 3.26z" style="fill:#00adef;fill-opacity:1;fill-rule:nonzero;stroke:none" transform="matrix(1.33333 0 0 -1.33333 1.328 13.077)"/><path d="M101.405 3.26h21.537" style="fill:none;stroke:#000;stroke-width:.79701;stroke-linecap:butt;stroke-linejoin:miter;stroke-miterlimit:10;stroke-dasharray:none;stroke-opacity:1" transform="matrix(1.33333 0 0 -1.33333 1.328 13.077)"/><path d="M5.9 0 2.325 1.435 4.124 0l-1.8-1.435Z" style="fill:#000;fill-opacity:1;fill-rule:nonzero;stroke:#000;stroke-width:.79701;stroke-linecap:butt;stroke-linejoin:round;stroke-miterlimit:10;stroke-dasharray:none;stroke-opacity:1" transform="matrix(1.33333 0 0 -1.33333 160.017 8.73)"/><text xml:space="preserve" style="font-variant:normal;font-size:11.9552px;font-family:&quot;Inter V&quot;;-inkscape-font-specification:Inter-Regular-Identity-H;writing-mode:lr-tb;fill:#000;fill-opacity:1;fill-rule:nonzero;stroke:none" transform="matrix(1.33333 0 0 1.33333 184.356 13.077)"><tspan x="0" y="0">2</tspan></text><text xml:space="preserve" style="font-variant:normal;font-size:11.9552px;font-family:&quot;Inter V&quot;;-inkscape-font-specification:Inter-Regular-Identity-H;writing-mode:lr-tb;fill:#000;fill-opacity:1;fill-rule:nonzero;stroke:none" transform="matrix(1.33333 0 0 1.33333 194.003 13.077)"><tspan x="0" y="0">C</tspan></text><text xml:space="preserve" style="font-variant:normal;font-size:11.9552px;font-family:&quot;Inter V&quot;;-inkscape-font-specification:Inter-Regular-Identity-H;writing-mode:lr-tb;fill:#000;fill-opacity:1;fill-rule:nonzero;stroke:none" transform="matrix(1.33333 0 0 1.33333 205.595 13.077)"><tspan x="0" y="0">O</tspan></text><text xml:space="preserve" style="font-variant:normal;font-size:7.9701px;font-family:&quot;Inter V&quot;;-inkscape-font-specification:Inter-Regular-Identity-H;writing-mode:lr-tb;fill:#000;fill-opacity:1;fill-rule:nonzero;stroke:none" transform="matrix(1.33333 0 0 1.33333 217.73 15.468)"><tspan x="0 8.1773224 11.835599 16.330734" y="0">2газ</tspan></text><text xml:space="preserve" style="font-variant:normal;font-size:11.9552px;font-family:&quot;Inter V&quot;;-inkscape-font-specification:Inter-Regular-Identity-H;writing-mode:lr-tb;fill:#000;fill-opacity:1;fill-rule:nonzero;stroke:none" transform="matrix(1.33333 0 0 1.33333 252.57 13.077)"><tspan x="0 13.222451 20.491213 27.951258 38.782669 45.20261 54.180965" y="0">+566кДж</tspan></text></svg>