<svg xmlns="http://www.w3.org/2000/svg" width="271.027" height="25.6"><text xml:space="preserve" style="font-variant:normal;font-size:11.9552px;font-family:&quot;Inter V&quot;;-inkscape-font-specification:Inter-Regular-Identity-H;writing-mode:lr-tb;fill:#000;fill-opacity:1;fill-rule:nonzero;stroke:none" transform="matrix(1.33333 0 0 1.33333 1.328 21.252)"><tspan x="0 8.6914301" y="0">Cu</tspan></text><text xml:space="preserve" style="font-variant:normal;font-size:11.9552px;font-family:&quot;Inter V&quot;;-inkscape-font-specification:Inter-Regular-Identity-H;writing-mode:lr-tb;fill:#000;fill-opacity:1;fill-rule:nonzero;stroke:none" transform="matrix(1.33333 0 0 1.33333 22.181 21.252)"><tspan x="0" y="0">O</tspan></text><path d="M78.541 3.26z" style="fill:#00adef;fill-opacity:1;fill-rule:nonzero;stroke:none" transform="matrix(1.33333 0 0 -1.33333 1.328 21.252)"/><path d="M36.698 3.26h27.514" style="fill:none;stroke:#000;stroke-width:.79701;stroke-linecap:butt;stroke-linejoin:miter;stroke-miterlimit:10;stroke-dasharray:none;stroke-opacity:1" transform="matrix(1.33333 0 0 -1.33333 1.328 21.252)"/><path d="M5.9 0 2.325 1.435 4.124 0l-1.8-1.435Z" style="fill:#000;fill-opacity:1;fill-rule:nonzero;stroke:#000;stroke-width:.79701;stroke-linecap:butt;stroke-linejoin:round;stroke-miterlimit:10;stroke-dasharray:none;stroke-opacity:1" transform="matrix(1.33333 0 0 -1.33333 81.71 16.905)"/><text xml:space="preserve" style="font-variant:normal;font-size:11.9552px;font-family:&quot;Inter V&quot;;-inkscape-font-specification:Inter-Regular-Identity-H;writing-mode:lr-tb;fill:#000;fill-opacity:1;fill-rule:nonzero;stroke:none" transform="matrix(1.33333 0 0 1.33333 65.067 12.92)"><tspan x="0" y="0">X</tspan></text><text xml:space="preserve" style="font-variant:normal;font-size:11.9552px;font-family:&quot;Inter V&quot;;-inkscape-font-specification:Inter-Regular-Identity-H;writing-mode:lr-tb;fill:#000;fill-opacity:1;fill-rule:nonzero;stroke:none" transform="matrix(1.33333 0 0 1.33333 106.05 21.252)"><tspan x="0 8.6914301" y="0">Cu</tspan></text><path d="M147.98 3.26z" style="fill:#00adef;fill-opacity:1;fill-rule:nonzero;stroke:none" transform="matrix(1.33333 0 0 -1.33333 1.328 21.252)"/><path d="M106.137 3.26h27.514" style="fill:none;stroke:#000;stroke-width:.79701;stroke-linecap:butt;stroke-linejoin:miter;stroke-miterlimit:10;stroke-dasharray:none;stroke-opacity:1" transform="matrix(1.33333 0 0 -1.33333 1.328 21.252)"/><path d="M5.9 0 2.325 1.435 4.124 0l-1.8-1.435Z" style="fill:#000;fill-opacity:1;fill-rule:nonzero;stroke:#000;stroke-width:.79701;stroke-linecap:butt;stroke-linejoin:round;stroke-miterlimit:10;stroke-dasharray:none;stroke-opacity:1" transform="matrix(1.33333 0 0 -1.33333 174.295 16.905)"/><text xml:space="preserve" style="font-variant:normal;font-size:11.9552px;font-family:&quot;Inter V&quot;;-inkscape-font-specification:Inter-Regular-Identity-H;writing-mode:lr-tb;fill:#000;fill-opacity:1;fill-rule:nonzero;stroke:none" transform="matrix(1.33333 0 0 1.33333 157.47 12.92)"><tspan x="0" y="0">Y</tspan></text><text xml:space="preserve" style="font-variant:normal;font-size:11.9552px;font-family:&quot;Inter V&quot;;-inkscape-font-specification:Inter-Regular-Identity-H;writing-mode:lr-tb;fill:#000;fill-opacity:1;fill-rule:nonzero;stroke:none" transform="matrix(1.33333 0 0 1.33333 198.636 21.252)"><tspan x="0 8.6914301 15.637402" y="0">Cu(</tspan></text><text xml:space="preserve" style="font-variant:normal;font-size:11.9552px;font-family:&quot;Inter V&quot;;-inkscape-font-specification:Inter-Regular-Identity-H;writing-mode:lr-tb;fill:#000;fill-opacity:1;fill-rule:nonzero;stroke:none" transform="matrix(1.33333 0 0 1.33333 225.263 21.252)"><tspan x="0" y="0">N</tspan></text><text xml:space="preserve" style="font-variant:normal;font-size:11.9552px;font-family:&quot;Inter V&quot;;-inkscape-font-specification:Inter-Regular-Identity-H;writing-mode:lr-tb;fill:#000;fill-opacity:1;fill-rule:nonzero;stroke:none" transform="matrix(1.33333 0 0 1.33333 237.264 21.252)"><tspan x="0" y="0">O</tspan></text><text xml:space="preserve" style="font-variant:normal;font-size:7.9701px;font-family:&quot;Inter V&quot;;-inkscape-font-specification:Inter-Regular-Identity-H;writing-mode:lr-tb;fill:#000;fill-opacity:1;fill-rule:nonzero;stroke:none" transform="matrix(1.33333 0 0 1.33333 249.4 23.643)"><tspan x="0" y="0">3</tspan></text><text xml:space="preserve" style="font-variant:normal;font-size:11.9552px;font-family:&quot;Inter V&quot;;-inkscape-font-specification:Inter-Regular-Identity-H;writing-mode:lr-tb;fill:#000;fill-opacity:1;fill-rule:nonzero;stroke:none" transform="matrix(1.33333 0 0 1.33333 256.827 21.252)"><tspan x="0" y="0">)</tspan></text><text xml:space="preserve" style="font-variant:normal;font-size:7.9701px;font-family:&quot;Inter V&quot;;-inkscape-font-specification:Inter-Regular-Identity-H;writing-mode:lr-tb;fill:#000;fill-opacity:1;fill-rule:nonzero;stroke:none" transform="matrix(1.33333 0 0 1.33333 262.6 24.27)"><tspan x="0" y="0">2</tspan></text></svg>