<svg xmlns="http://www.w3.org/2000/svg" width="272.2" height="35.36"><text xml:space="preserve" style="font-variant:normal;font-size:11.9552px;font-family:&quot;IBM Plex Sans&quot;;-inkscape-font-specification:IBMPlexSans-Identity-H;writing-mode:lr-tb;fill:#000;fill-opacity:1;fill-rule:nonzero;stroke:none" transform="matrix(1.33333 0 0 1.33333 6.643 25.87)"><tspan x="0 7.4241791" y="0">Cu</tspan></text><text xml:space="preserve" style="font-variant:normal;font-size:11.9552px;font-family:&quot;IBM Plex Sans&quot;;-inkscape-font-specification:IBMPlexSans-Identity-H;writing-mode:lr-tb;fill:#000;fill-opacity:1;fill-rule:nonzero;stroke:none" transform="matrix(1.33333 0 0 1.33333 25.595 25.87)"><tspan x="0" y="0">O</tspan></text><path d="M76.478 3.084z" style="fill:#00adef;fill-opacity:1;fill-rule:nonzero;stroke:none" transform="matrix(1.33333 0 0 -1.33333 6.641 25.87)"/><path d="M34.635 3.084h27.514" style="fill:none;stroke:#000;stroke-width:.79701;stroke-linecap:butt;stroke-linejoin:miter;stroke-miterlimit:10;stroke-dasharray:none;stroke-opacity:1" transform="matrix(1.33333 0 0 -1.33333 6.641 25.87)"/><path d="M5.9 0 2.325 1.435 4.124 0l-1.8-1.435Z" style="fill:#000;fill-opacity:1;fill-rule:nonzero;stroke:#000;stroke-width:.79701;stroke-linecap:butt;stroke-linejoin:round;stroke-miterlimit:10;stroke-dasharray:none;stroke-opacity:1" transform="matrix(1.33333 0 0 -1.33333 84.272 21.757)"/><text xml:space="preserve" style="font-variant:normal;font-size:11.9552px;font-family:&quot;IBM Plex Sans&quot;;-inkscape-font-specification:IBMPlexSans-Identity-H;writing-mode:lr-tb;fill:#000;fill-opacity:1;fill-rule:nonzero;stroke:none" transform="matrix(1.33333 0 0 1.33333 67.861 17.772)"><tspan x="0" y="0">X</tspan></text><text xml:space="preserve" style="font-variant:normal;font-size:11.9552px;font-family:&quot;IBM Plex Sans&quot;;-inkscape-font-specification:IBMPlexSans-Identity-H;writing-mode:lr-tb;fill:#000;fill-opacity:1;fill-rule:nonzero;stroke:none" transform="matrix(1.33333 0 0 1.33333 108.613 25.87)"><tspan x="0 7.4241791" y="0">Cu</tspan></text><path d="M144.491 3.084z" style="fill:#00adef;fill-opacity:1;fill-rule:nonzero;stroke:none" transform="matrix(1.33333 0 0 -1.33333 6.641 25.87)"/><path d="M102.648 3.084h27.514" style="fill:none;stroke:#000;stroke-width:.79701;stroke-linecap:butt;stroke-linejoin:miter;stroke-miterlimit:10;stroke-dasharray:none;stroke-opacity:1" transform="matrix(1.33333 0 0 -1.33333 6.641 25.87)"/><path d="M5.9 0 2.325 1.435 4.124 0l-1.8-1.435Z" style="fill:#000;fill-opacity:1;fill-rule:nonzero;stroke:#000;stroke-width:.79701;stroke-linecap:butt;stroke-linejoin:round;stroke-miterlimit:10;stroke-dasharray:none;stroke-opacity:1" transform="matrix(1.33333 0 0 -1.33333 174.957 21.757)"/><text xml:space="preserve" style="font-variant:normal;font-size:11.9552px;font-family:&quot;IBM Plex Sans&quot;;-inkscape-font-specification:IBMPlexSans-Identity-H;writing-mode:lr-tb;fill:#000;fill-opacity:1;fill-rule:nonzero;stroke:none" transform="matrix(1.33333 0 0 1.33333 158.704 17.772)"><tspan x="0" y="0">Y</tspan></text><text xml:space="preserve" style="font-variant:normal;font-size:11.9552px;font-family:&quot;IBM Plex Sans&quot;;-inkscape-font-specification:IBMPlexSans-Identity-H;writing-mode:lr-tb;fill:#000;fill-opacity:1;fill-rule:nonzero;stroke:none" transform="matrix(1.33333 0 0 1.33333 199.296 25.87)"><tspan x="0 7.4241791" y="0">Cu</tspan></text><text xml:space="preserve" style="font-variant:normal;font-weight:400;font-size:11.9552px;font-family:&quot;IBM Plex Sans&quot;;-inkscape-font-specification:IBMPlexSans;writing-mode:lr-tb;fill:#000;fill-opacity:1;fill-rule:nonzero;stroke:none" transform="matrix(1.33333 0 0 1.33333 218.25 25.87)"><tspan x="0" y="0">(</tspan></text><text xml:space="preserve" style="font-variant:normal;font-size:11.9552px;font-family:&quot;IBM Plex Sans&quot;;-inkscape-font-specification:IBMPlexSans-Identity-H;writing-mode:lr-tb;fill:#000;fill-opacity:1;fill-rule:nonzero;stroke:none" transform="matrix(1.33333 0 0 1.33333 223.59 25.87)"><tspan x="0" y="0">N</tspan></text><text xml:space="preserve" style="font-variant:normal;font-size:11.9552px;font-family:&quot;IBM Plex Sans&quot;;-inkscape-font-specification:IBMPlexSans-Identity-H;writing-mode:lr-tb;fill:#000;fill-opacity:1;fill-rule:nonzero;stroke:none" transform="matrix(1.33333 0 0 1.33333 234.859 25.87)"><tspan x="0" y="0">O</tspan></text><text xml:space="preserve" style="font-variant:normal;font-size:7.9701px;font-family:&quot;IBM Plex Sans&quot;;-inkscape-font-specification:IBMPlexSans-Identity-H;writing-mode:lr-tb;fill:#000;fill-opacity:1;fill-rule:nonzero;stroke:none" transform="matrix(1.33333 0 0 1.33333 246.144 28.261)"><tspan x="0" y="0">3</tspan></text><text xml:space="preserve" style="font-variant:normal;font-weight:400;font-size:11.9552px;font-family:&quot;IBM Plex Sans&quot;;-inkscape-font-specification:IBMPlexSans;writing-mode:lr-tb;fill:#000;fill-opacity:1;fill-rule:nonzero;stroke:none" transform="matrix(1.33333 0 0 1.33333 253.185 25.87)"><tspan x="0" y="0">)</tspan></text><text xml:space="preserve" style="font-variant:normal;font-size:7.9701px;font-family:&quot;IBM Plex Sans&quot;;-inkscape-font-specification:IBMPlexSans-Identity-H;writing-mode:lr-tb;fill:#000;fill-opacity:1;fill-rule:nonzero;stroke:none" transform="matrix(1.33333 0 0 1.33333 258.525 28.717)"><tspan x="0" y="0">2</tspan></text></svg>