<svg xmlns="http://www.w3.org/2000/svg" width="281.653" height="36.227"><text xml:space="preserve" style="font-variant:normal;font-size:11.9552px;font-family:&quot;Inter V&quot;;-inkscape-font-specification:Inter-Regular-Identity-H;writing-mode:lr-tb;fill:#000;fill-opacity:1;fill-rule:nonzero;stroke:none" transform="matrix(1.33333 0 0 1.33333 6.641 26.565)"><tspan x="0 8.6914301" y="0">Cu</tspan></text><text xml:space="preserve" style="font-variant:normal;font-size:11.9552px;font-family:&quot;Inter V&quot;;-inkscape-font-specification:Inter-Regular-Identity-H;writing-mode:lr-tb;fill:#000;fill-opacity:1;fill-rule:nonzero;stroke:none" transform="matrix(1.33333 0 0 1.33333 27.495 26.565)"><tspan x="0" y="0">O</tspan></text><path d="M78.541 3.26z" style="fill:#00adef;fill-opacity:1;fill-rule:nonzero;stroke:none" transform="matrix(1.33333 0 0 -1.33333 6.641 26.565)"/><path d="M36.698 3.26h27.514" style="fill:none;stroke:#000;stroke-width:.79701;stroke-linecap:butt;stroke-linejoin:miter;stroke-miterlimit:10;stroke-dasharray:none;stroke-opacity:1" transform="matrix(1.33333 0 0 -1.33333 6.641 26.565)"/><path d="M5.9 0 2.325 1.435 4.124 0l-1.8-1.435Z" style="fill:#000;fill-opacity:1;fill-rule:nonzero;stroke:#000;stroke-width:.79701;stroke-linecap:butt;stroke-linejoin:round;stroke-miterlimit:10;stroke-dasharray:none;stroke-opacity:1" transform="matrix(1.33333 0 0 -1.33333 87.023 22.218)"/><text xml:space="preserve" style="font-variant:normal;font-size:11.9552px;font-family:&quot;Inter V&quot;;-inkscape-font-specification:Inter-Regular-Identity-H;writing-mode:lr-tb;fill:#000;fill-opacity:1;fill-rule:nonzero;stroke:none" transform="matrix(1.33333 0 0 1.33333 70.38 18.233)"><tspan x="0" y="0">X</tspan></text><text xml:space="preserve" style="font-variant:normal;font-size:11.9552px;font-family:&quot;Inter V&quot;;-inkscape-font-specification:Inter-Regular-Identity-H;writing-mode:lr-tb;fill:#000;fill-opacity:1;fill-rule:nonzero;stroke:none" transform="matrix(1.33333 0 0 1.33333 111.363 26.565)"><tspan x="0 8.6914301" y="0">Cu</tspan></text><path d="M147.98 3.26z" style="fill:#00adef;fill-opacity:1;fill-rule:nonzero;stroke:none" transform="matrix(1.33333 0 0 -1.33333 6.641 26.565)"/><path d="M106.137 3.26h27.514" style="fill:none;stroke:#000;stroke-width:.79701;stroke-linecap:butt;stroke-linejoin:miter;stroke-miterlimit:10;stroke-dasharray:none;stroke-opacity:1" transform="matrix(1.33333 0 0 -1.33333 6.641 26.565)"/><path d="M5.9 0 2.325 1.435 4.124 0l-1.8-1.435Z" style="fill:#000;fill-opacity:1;fill-rule:nonzero;stroke:#000;stroke-width:.79701;stroke-linecap:butt;stroke-linejoin:round;stroke-miterlimit:10;stroke-dasharray:none;stroke-opacity:1" transform="matrix(1.33333 0 0 -1.33333 179.609 22.218)"/><text xml:space="preserve" style="font-variant:normal;font-size:11.9552px;font-family:&quot;Inter V&quot;;-inkscape-font-specification:Inter-Regular-Identity-H;writing-mode:lr-tb;fill:#000;fill-opacity:1;fill-rule:nonzero;stroke:none" transform="matrix(1.33333 0 0 1.33333 162.784 18.233)"><tspan x="0" y="0">Y</tspan></text><text xml:space="preserve" style="font-variant:normal;font-size:11.9552px;font-family:&quot;Inter V&quot;;-inkscape-font-specification:Inter-Regular-Identity-H;writing-mode:lr-tb;fill:#000;fill-opacity:1;fill-rule:nonzero;stroke:none" transform="matrix(1.33333 0 0 1.33333 203.95 26.565)"><tspan x="0 8.6914301 15.637402" y="0">Cu(</tspan></text><text xml:space="preserve" style="font-variant:normal;font-size:11.9552px;font-family:&quot;Inter V&quot;;-inkscape-font-specification:Inter-Regular-Identity-H;writing-mode:lr-tb;fill:#000;fill-opacity:1;fill-rule:nonzero;stroke:none" transform="matrix(1.33333 0 0 1.33333 230.576 26.565)"><tspan x="0" y="0">N</tspan></text><text xml:space="preserve" style="font-variant:normal;font-size:11.9552px;font-family:&quot;Inter V&quot;;-inkscape-font-specification:Inter-Regular-Identity-H;writing-mode:lr-tb;fill:#000;fill-opacity:1;fill-rule:nonzero;stroke:none" transform="matrix(1.33333 0 0 1.33333 242.577 26.565)"><tspan x="0" y="0">O</tspan></text><text xml:space="preserve" style="font-variant:normal;font-size:7.9701px;font-family:&quot;Inter V&quot;;-inkscape-font-specification:Inter-Regular-Identity-H;writing-mode:lr-tb;fill:#000;fill-opacity:1;fill-rule:nonzero;stroke:none" transform="matrix(1.33333 0 0 1.33333 254.713 28.957)"><tspan x="0" y="0">3</tspan></text><text xml:space="preserve" style="font-variant:normal;font-size:11.9552px;font-family:&quot;Inter V&quot;;-inkscape-font-specification:Inter-Regular-Identity-H;writing-mode:lr-tb;fill:#000;fill-opacity:1;fill-rule:nonzero;stroke:none" transform="matrix(1.33333 0 0 1.33333 262.14 26.565)"><tspan x="0" y="0">)</tspan></text><text xml:space="preserve" style="font-variant:normal;font-size:7.9701px;font-family:&quot;Inter V&quot;;-inkscape-font-specification:Inter-Regular-Identity-H;writing-mode:lr-tb;fill:#000;fill-opacity:1;fill-rule:nonzero;stroke:none" transform="matrix(1.33333 0 0 1.33333 267.913 29.584)"><tspan x="0" y="0">2</tspan></text></svg>