<svg xmlns="http://www.w3.org/2000/svg" width="229.8" height="32.453"><text xml:space="preserve" style="font-variant:normal;font-size:9.9626px;font-family:&quot;IBM Plex Sans&quot;;-inkscape-font-specification:IBMPlexSans-Identity-H;writing-mode:lr-tb;fill:#000;fill-opacity:1;fill-rule:nonzero;stroke:none" transform="matrix(1.33333 0 0 1.33333 6.641 23.327)"><tspan x="0 6.1867747" y="0">Cu</tspan></text><text xml:space="preserve" style="font-variant:normal;font-size:9.9626px;font-family:&quot;IBM Plex Sans&quot;;-inkscape-font-specification:IBMPlexSans-Identity-H;writing-mode:lr-tb;fill:#000;fill-opacity:1;fill-rule:nonzero;stroke:none" transform="matrix(1.33333 0 0 1.33333 22.436 23.327)"><tspan x="0" y="0">O</tspan></text><path d="M63.731 2.57z" style="fill:#00adef;fill-opacity:1;fill-rule:nonzero;stroke:none" transform="matrix(1.33333 0 0 -1.33333 6.641 23.327)"/><path d="M28.862 2.57h22.533" style="fill:none;stroke:#000;stroke-width:.79701;stroke-linecap:butt;stroke-linejoin:miter;stroke-miterlimit:10;stroke-dasharray:none;stroke-opacity:1" transform="matrix(1.33333 0 0 -1.33333 6.641 23.327)"/><path d="M5.9 0 2.325 1.435 4.124 0l-1.8-1.435Z" style="fill:#000;fill-opacity:1;fill-rule:nonzero;stroke:#000;stroke-width:.79701;stroke-linecap:butt;stroke-linejoin:round;stroke-miterlimit:10;stroke-dasharray:none;stroke-opacity:1" transform="matrix(1.33333 0 0 -1.33333 69.934 19.9)"/><text xml:space="preserve" style="font-variant:normal;font-size:9.9626px;font-family:&quot;IBM Plex Sans&quot;;-inkscape-font-specification:IBMPlexSans-Identity-H;writing-mode:lr-tb;fill:#000;fill-opacity:1;fill-rule:nonzero;stroke:none" transform="matrix(1.33333 0 0 1.33333 57.657 15.915)"><tspan x="0" y="0">X</tspan></text><text xml:space="preserve" style="font-variant:normal;font-size:9.9626px;font-family:&quot;IBM Plex Sans&quot;;-inkscape-font-specification:IBMPlexSans-Identity-H;writing-mode:lr-tb;fill:#000;fill-opacity:1;fill-rule:nonzero;stroke:none" transform="matrix(1.33333 0 0 1.33333 91.616 23.327)"><tspan x="0 6.1867747" y="0">Cu</tspan></text><path d="M120.41 2.57z" style="fill:#00adef;fill-opacity:1;fill-rule:nonzero;stroke:none" transform="matrix(1.33333 0 0 -1.33333 6.641 23.327)"/><path d="M85.54 2.57h22.533" style="fill:none;stroke:#000;stroke-width:.79701;stroke-linecap:butt;stroke-linejoin:miter;stroke-miterlimit:10;stroke-dasharray:none;stroke-opacity:1" transform="matrix(1.33333 0 0 -1.33333 6.641 23.327)"/><path d="M5.9 0 2.325 1.435 4.124 0l-1.8-1.435Z" style="fill:#000;fill-opacity:1;fill-rule:nonzero;stroke:#000;stroke-width:.79701;stroke-linecap:butt;stroke-linejoin:round;stroke-miterlimit:10;stroke-dasharray:none;stroke-opacity:1" transform="matrix(1.33333 0 0 -1.33333 145.504 19.9)"/><text xml:space="preserve" style="font-variant:normal;font-size:9.9626px;font-family:&quot;IBM Plex Sans&quot;;-inkscape-font-specification:IBMPlexSans-Identity-H;writing-mode:lr-tb;fill:#000;fill-opacity:1;fill-rule:nonzero;stroke:none" transform="matrix(1.33333 0 0 1.33333 133.36 15.915)"><tspan x="0" y="0">Y</tspan></text><text xml:space="preserve" style="font-variant:normal;font-size:9.9626px;font-family:&quot;IBM Plex Sans&quot;;-inkscape-font-specification:IBMPlexSans-Identity-H;writing-mode:lr-tb;fill:#000;fill-opacity:1;fill-rule:nonzero;stroke:none" transform="matrix(1.33333 0 0 1.33333 167.187 23.327)"><tspan x="0 6.1867747" y="0">Cu</tspan></text><text xml:space="preserve" style="font-variant:normal;font-weight:400;font-size:9.9626px;font-family:&quot;IBM Plex Sans&quot;;-inkscape-font-specification:IBMPlexSans;writing-mode:lr-tb;fill:#000;fill-opacity:1;fill-rule:nonzero;stroke:none" transform="matrix(1.33333 0 0 1.33333 182.98 23.327)"><tspan x="0" y="0">(</tspan></text><text xml:space="preserve" style="font-variant:normal;font-size:9.9626px;font-family:&quot;IBM Plex Sans&quot;;-inkscape-font-specification:IBMPlexSans-Identity-H;writing-mode:lr-tb;fill:#000;fill-opacity:1;fill-rule:nonzero;stroke:none" transform="matrix(1.33333 0 0 1.33333 187.432 23.327)"><tspan x="0" y="0">N</tspan></text><text xml:space="preserve" style="font-variant:normal;font-size:9.9626px;font-family:&quot;IBM Plex Sans&quot;;-inkscape-font-specification:IBMPlexSans-Identity-H;writing-mode:lr-tb;fill:#000;fill-opacity:1;fill-rule:nonzero;stroke:none" transform="matrix(1.33333 0 0 1.33333 196.823 23.327)"><tspan x="0" y="0">O</tspan></text><text xml:space="preserve" style="font-variant:normal;font-size:6.9738px;font-family:&quot;IBM Plex Sans&quot;;-inkscape-font-specification:IBMPlexSans-Identity-H;writing-mode:lr-tb;fill:#000;fill-opacity:1;fill-rule:nonzero;stroke:none" transform="matrix(1.33333 0 0 1.33333 206.227 25.353)"><tspan x="0" y="0">3</tspan></text><text xml:space="preserve" style="font-variant:normal;font-weight:400;font-size:9.9626px;font-family:&quot;IBM Plex Sans&quot;;-inkscape-font-specification:IBMPlexSans;writing-mode:lr-tb;fill:#000;fill-opacity:1;fill-rule:nonzero;stroke:none" transform="matrix(1.33333 0 0 1.33333 212.47 23.327)"><tspan x="0" y="0">)</tspan></text><text xml:space="preserve" style="font-variant:normal;font-size:6.9738px;font-family:&quot;IBM Plex Sans&quot;;-inkscape-font-specification:IBMPlexSans-Identity-H;writing-mode:lr-tb;fill:#000;fill-opacity:1;fill-rule:nonzero;stroke:none" transform="matrix(1.33333 0 0 1.33333 216.92 25.81)"><tspan x="0" y="0">2</tspan></text></svg>