<svg xmlns="http://www.w3.org/2000/svg" width="294.88" height="22.387"><text xml:space="preserve" style="font-variant:normal;font-size:11.9552px;font-family:&quot;Inter V&quot;;-inkscape-font-specification:Inter-Regular-Identity-H;writing-mode:lr-tb;fill:#000;fill-opacity:1;fill-rule:nonzero;stroke:none" transform="matrix(1.33333 0 0 1.33333 1.328 14.944)"><tspan x="0 7.0177026" y="0">Fe</tspan></text><text xml:space="preserve" style="font-variant:normal;font-size:7.9701px;font-family:&quot;Inter V&quot;;-inkscape-font-specification:Inter-Regular-Identity-H;writing-mode:lr-tb;fill:#000;fill-opacity:1;fill-rule:nonzero;stroke:none" transform="matrix(1.33333 0 0 1.33333 19.963 9.16)"><tspan x="0 5.0689836" y="0">3+</tspan><tspan x="2.2420001 7.0957909 10.762037" y="7.294">р-р</tspan></text><text xml:space="preserve" style="font-variant:normal;font-size:11.9552px;font-family:&quot;Inter V&quot;;-inkscape-font-specification:Inter-Regular-Identity-H;writing-mode:lr-tb;fill:#000;fill-opacity:1;fill-rule:nonzero;stroke:none" transform="matrix(1.33333 0 0 1.33333 48.599 14.944)"><tspan x="0" y="0">+</tspan></text><text xml:space="preserve" style="font-variant:normal;font-size:11.9552px;font-family:&quot;Inter V&quot;;-inkscape-font-specification:Inter-Regular-Identity-H;writing-mode:lr-tb;fill:#000;fill-opacity:1;fill-rule:nonzero;stroke:none" transform="matrix(1.33333 0 0 1.33333 66.245 14.944)"><tspan x="0" y="0">C</tspan></text><text xml:space="preserve" style="font-variant:normal;font-size:11.9552px;font-family:&quot;Inter V&quot;;-inkscape-font-specification:Inter-Regular-Identity-H;writing-mode:lr-tb;fill:#000;fill-opacity:1;fill-rule:nonzero;stroke:none" transform="matrix(1.33333 0 0 1.33333 77.837 14.944)"><tspan x="0" y="0">N</tspan></text><text xml:space="preserve" style="font-variant:normal;font-size:11.9552px;font-family:&quot;Inter V&quot;;-inkscape-font-specification:Inter-Regular-Identity-H;writing-mode:lr-tb;fill:#000;fill-opacity:1;fill-rule:nonzero;stroke:none" transform="matrix(1.33333 0 0 1.33333 89.839 14.944)"><tspan x="0" y="0">S</tspan></text><text xml:space="preserve" style="font-variant:normal;font-size:7.9701px;font-family:&quot;Inter V&quot;;-inkscape-font-specification:Inter-Regular-Identity-H;writing-mode:lr-tb;fill:#000;fill-opacity:1;fill-rule:nonzero;stroke:none" transform="matrix(1.33333 0 0 1.33333 100.005 9.16)"><tspan x="0" y="0">−</tspan><tspan x="2.2420001 7.0957909 10.762037" y="7.294">р-р</tspan></text><path d="M137.951 3.26z" style="fill:#00adef;fill-opacity:1;fill-rule:nonzero;stroke:none" transform="matrix(1.33333 0 0 -1.33333 1.328 14.944)"/><path d="M102.085 4.257h22.135" style="fill:none;stroke:#000;stroke-width:.79701;stroke-linecap:butt;stroke-linejoin:miter;stroke-miterlimit:10;stroke-dasharray:none;stroke-opacity:1" transform="matrix(1.33333 0 0 -1.33333 1.328 14.944)"/><path d="M5.9 0 2.325 1.435 4.124 0Z" style="fill:#000;fill-opacity:1;fill-rule:nonzero;stroke:#000;stroke-width:.79701;stroke-linecap:butt;stroke-linejoin:round;stroke-miterlimit:10;stroke-dasharray:none;stroke-opacity:1" transform="matrix(1.33333 0 0 -1.33333 160.924 9.268)"/><path d="M125.996 2.264h-22.135" style="fill:none;stroke:#000;stroke-width:.79701;stroke-linecap:butt;stroke-linejoin:miter;stroke-miterlimit:10;stroke-dasharray:none;stroke-opacity:1" transform="matrix(1.33333 0 0 -1.33333 1.328 14.944)"/><path d="M5.9 0 2.325 1.435 4.124 0Z" style="fill:#000;fill-opacity:1;fill-rule:nonzero;stroke:#000;stroke-width:.79701;stroke-linecap:butt;stroke-linejoin:round;stroke-miterlimit:10;stroke-dasharray:none;stroke-opacity:1" transform="matrix(-1.33333 0 0 1.33333 145.84 11.925)"/><text xml:space="preserve" style="font-variant:normal;font-size:11.9552px;font-family:&quot;Inter V&quot;;-inkscape-font-specification:Inter-Regular-Identity-H;writing-mode:lr-tb;fill:#000;fill-opacity:1;fill-rule:nonzero;stroke:none" transform="matrix(1.33333 0 0 1.33333 185.263 14.944)"><tspan x="0 7.0177026 13.975629" y="0">Fe(</tspan></text><text xml:space="preserve" style="font-variant:normal;font-size:11.9552px;font-family:&quot;Inter V&quot;;-inkscape-font-specification:Inter-Regular-Identity-H;writing-mode:lr-tb;fill:#000;fill-opacity:1;fill-rule:nonzero;stroke:none" transform="matrix(1.33333 0 0 1.33333 209.67 14.944)"><tspan x="0" y="0">C</tspan></text><text xml:space="preserve" style="font-variant:normal;font-size:11.9552px;font-family:&quot;Inter V&quot;;-inkscape-font-specification:Inter-Regular-Identity-H;writing-mode:lr-tb;fill:#000;fill-opacity:1;fill-rule:nonzero;stroke:none" transform="matrix(1.33333 0 0 1.33333 221.264 14.944)"><tspan x="0" y="0">N</tspan></text><text xml:space="preserve" style="font-variant:normal;font-size:11.9552px;font-family:&quot;Inter V&quot;;-inkscape-font-specification:Inter-Regular-Identity-H;writing-mode:lr-tb;fill:#000;fill-opacity:1;fill-rule:nonzero;stroke:none" transform="matrix(1.33333 0 0 1.33333 233.265 14.944)"><tspan x="0 7.6274176" y="0">S)</tspan></text><text xml:space="preserve" style="font-variant:normal;font-size:7.9701px;font-family:&quot;Inter V&quot;;-inkscape-font-specification:Inter-Regular-Identity-H;writing-mode:lr-tb;fill:#000;fill-opacity:1;fill-rule:nonzero;stroke:none" transform="matrix(1.33333 0 0 1.33333 249.207 17.964)"><tspan x="0" y="0">3</tspan></text><text xml:space="preserve" style="font-variant:normal;font-size:11.9552px;font-family:&quot;Inter V&quot;;-inkscape-font-specification:Inter-Regular-Identity-H;writing-mode:lr-tb;fill:#000;fill-opacity:1;fill-rule:nonzero;stroke:none" transform="matrix(1.33333 0 0 1.33333 263.772 14.944)"><tspan x="0" y="0">+</tspan></text><text xml:space="preserve" style="font-variant:normal;font-size:11.9552px;font-family:&quot;Inter V&quot;;-inkscape-font-specification:Inter-Regular-Identity-H;writing-mode:lr-tb;fill:#000;fill-opacity:1;fill-rule:nonzero;stroke:none" transform="matrix(1.33333 0 0 1.33333 281.419 14.944)"><tspan x="0" y="0">Q</tspan></text></svg>