<svg width="82.987" height="43.215" xmlns="http://www.w3.org/2000/svg"><path stroke="transparent" d="M41.495 38.318v-1.04L60.14 26.516v1.04z" stroke-width=".075"/><path stroke="transparent" d="M22.857 27.555v-1.04l18.638 10.763v1.04z" stroke-width=".075"/><text stroke="transparent" style="font-style:normal;font-variant:normal;font-weight:400;font-stretch:normal;font-size:14.9999px;line-height:normal;font-family:Arial;stroke-width:.0749996" x="54.306" y="10.928">O</text><path stroke="transparent" d="M57.755 13.502h.9v14.652h-.9v-14.65zm3.87 0h.9v14.652h-.9v-14.65z" stroke-width=".075"/><text stroke="transparent" style="font-style:normal;font-variant:normal;font-weight:400;font-stretch:normal;font-size:14.9999px;line-height:normal;font-family:Arial;stroke-width:.0749996" x="73.363" y="43.215">H</text><path stroke="transparent" d="m71.442 33.042-.45.78-10.852-6.267v-1.04Z" stroke-width=".075"/><text stroke="transparent" style="font-style:normal;font-variant:normal;font-weight:400;font-stretch:normal;font-size:14.9999px;line-height:normal;font-family:Arial;stroke-width:.0749996" x="17.024" y="10.928">O</text><path stroke="transparent" d="M20.472 13.502h.9v14.652h-.9v-14.65zm3.87 0h.9v14.652h-.9v-14.65z" stroke-width=".075"/><text stroke="transparent" style="font-style:normal;font-variant:normal;font-weight:400;font-stretch:normal;font-size:14.9999px;line-height:normal;font-family:Arial;stroke-width:.0749996" x="-1.201" y="43.215">H</text><path stroke="transparent" d="m11.975 33.836-.45-.779 11.332-6.541v1.04z" stroke-width=".075"/></svg>