<svg width="94.511" height="75.691" xmlns:xlink="http://www.w3.org/1999/xlink" xmlns="http://www.w3.org/2000/svg"><defs><linearGradient id="b"><stop style="stop-color:#000;stop-opacity:1" offset="0"/><stop style="stop-color:#000;stop-opacity:0" offset="1"/></linearGradient><linearGradient id="a"><stop style="stop-color:#000;stop-opacity:1" offset="0"/><stop style="stop-color:#000;stop-opacity:0" offset="1"/></linearGradient><linearGradient xlink:href="#a" id="d" x1="91.663" y1="33.207" x2="102.15" y2="39.26" gradientUnits="userSpaceOnUse" gradientTransform="translate(-7.88)"/><linearGradient xlink:href="#b" id="c" x1="24.623" y1="40.577" x2="8.119" y2="31.05" gradientUnits="userSpaceOnUse" gradientTransform="translate(-7.88)"/></defs><path stroke="transparent" d="m17.224 63.34-.96.555v-23.04l.48-.278.48.278zM21.368 61.223h-.96V42.97h.96z" style="stroke-width:.0799994"/><path stroke="transparent" d="M36.696 74.583v1.108L16.264 63.895l.96-.555ZM56.168 63.34l.96.555L36.696 75.69v-1.108zM52.256 60.807l.48.832-15.8 9.125-.48-.831ZM56.168 40.855l.48-.278.48.278v23.04l-.96-.555Z" style="stroke-width:.0799994"/><path stroke="transparent" d="M36.696 29.612v-.555l.48-.277 19.472 11.243v.554l-.48.278zM36.456 34.262l.48-.831 15.8 9.125-.48.831zM17.224 40.855l-.48-.278v-.554L36.216 28.78l.48.277v.555z" style="stroke-width:.0799994"/><path stroke="transparent" d="M16.744 40.023v.554l-.48.278L0 31.466l.48-.832Z" style="fill:url(#c);fill-opacity:1;stroke-width:.0799994"/><text x="30.471" y="11.795" stroke="transparent" style="font-style:normal;font-variant:normal;font-weight:400;font-stretch:normal;font-size:15.9999px;line-height:normal;font-family:Inter;stroke-width:.0799994">OH</text><path stroke="transparent" d="M36.216 14.542h.96V28.78l-.48.277-.48-.277z" style="stroke-width:.0799994"/><text x="70.821" y="17.902" stroke="transparent" style="font-style:normal;font-variant:normal;font-weight:400;font-stretch:normal;font-size:15.9999px;line-height:normal;font-family:Inter;stroke-width:.0799994">H</text><text x="82.377" y="20.835" stroke="transparent" style="font-style:normal;font-variant:normal;font-weight:400;font-stretch:normal;font-size:11.9999px;line-height:normal;font-family:Inter;stroke-width:.0799994">2</text><text x="70.821" y="34.835" stroke="transparent" style="font-style:normal;font-variant:normal;font-weight:400;font-stretch:normal;font-size:15.9999px;line-height:normal;font-family:Inter;stroke-width:.0799994">C</text><path stroke="transparent" d="m69.471 32.62.48.83-12.823 7.405-.48-.278v-.554z" style="stroke-width:.0799994"/><path stroke="transparent" d="m83.543 33.623.48-.831 10.488 6.052-.48.831z" style="fill:url(#d);fill-opacity:1;stroke-width:.0799994"/></svg>