<svg width="100.248" height="75.691" xmlns:xlink="http://www.w3.org/1999/xlink" xmlns="http://www.w3.org/2000/svg"><defs><linearGradient id="b"><stop style="stop-color:#000;stop-opacity:1" offset="0"/><stop style="stop-color:#000;stop-opacity:0" offset="1"/></linearGradient><linearGradient id="a"><stop style="stop-color:#000;stop-opacity:1" offset="0"/><stop style="stop-color:#000;stop-opacity:0" offset="1"/></linearGradient><linearGradient xlink:href="#a" id="c" x1="20.192" y1="40.578" x2=".24" y2="29.057" gradientUnits="userSpaceOnUse"/><linearGradient xlink:href="#b" id="d" x1="80.056" y1="29.057" x2="100.008" y2="40.577" gradientUnits="userSpaceOnUse"/></defs><path stroke="transparent" d="m20.672 63.34-.96.554v-23.04l.48-.276.48.276zM24.824 61.223h-.96v-18.25h.96z" style="stroke-width:.0799997"/><path stroke="transparent" d="M40.144 74.583v1.108L19.712 63.894l.96-.554ZM59.616 63.34l.96.554-20.432 11.797v-1.108ZM55.712 60.807l.48.831-15.808 9.126-.48-.831zM59.616 40.854l.48-.276.48.276v23.04l-.96-.554Z" style="stroke-width:.0799997"/><path stroke="transparent" d="M40.144 29.611v-.553l.48-.278 19.472 11.243v.555l-.48.276ZM39.904 34.262l.48-.831 15.808 9.125-.48.831z" style="stroke-width:.0799997"/><path stroke="transparent" d="m20.672 40.854-.48-.276v-.555L39.664 28.78l.48.278v.553z" style="stroke-width:.0799997"/><path stroke="transparent" d="m0 29.473.48-.831 19.712 11.381v.555l-.48.276z" style="stroke-width:.0799997;fill-opacity:1;fill:url(#c)"/><text x="33.924" y="11.795" stroke="transparent" style="font-style:normal;font-variant:normal;font-weight:400;font-stretch:normal;font-size:15.9999px;line-height:normal;font-family:Inter;stroke-width:.0799997">OH</text><path stroke="transparent" d="M39.664 14.542h.96V28.78l-.48.278-.48-.278zM80.056 28.503v1.108l-19.48 11.243-.48-.276v-.555z" style="stroke-width:.0799997"/><path stroke="transparent" d="m100.248 40.162-.48.83-19.712-11.38v-1.109z" style="stroke-width:.0799997;fill-opacity:1;fill:url(#d)"/></svg>