<svg width="100.248" height="35.114" xmlns:xlink="http://www.w3.org/1999/xlink" xmlns="http://www.w3.org/2000/svg"><defs><linearGradient id="b"><stop style="stop-color:#000;stop-opacity:1" offset="0"/><stop style="stop-color:#000;stop-opacity:0" offset="1"/></linearGradient><linearGradient id="a"><stop style="stop-color:#000;stop-opacity:1" offset="0"/><stop style="stop-color:#000;stop-opacity:0" offset="1"/></linearGradient><linearGradient xlink:href="#a" id="d" x1="20.192" y1="34.56" x2=".24" y2="23.04" gradientUnits="userSpaceOnUse"/><linearGradient xlink:href="#b" id="c" x1="80.056" y1="23.04" x2="100.008" y2="34.56" gradientUnits="userSpaceOnUse"/></defs><path stroke="transparent" d="m39.664 22.762.48.278v.554l-19.952 11.52v-1.108zM60.104 34.006v1.108l-19.96-11.52v-.554l.48-.278zM60.344 29.355l-.48.831-15.808-9.125.48-.831z" style="stroke-width:.08"/><path stroke="transparent" d="M80.056 22.486v1.108l-19.952 11.52v-1.108zM39.664 0h.96v22.762l-.48.278-.48-.278z" style="stroke-width:.08"/><path stroke="transparent" d="m100.248 34.144-.48.831-19.712-11.381v-1.108z" style="stroke-width:.08;fill-opacity:1;fill:url(#c)"/><path stroke="transparent" d="m0 23.455.48-.831 19.712 11.382v1.108z" style="stroke-width:.08;fill-opacity:1;fill:url(#d)"/></svg>