<svg xmlns="http://www.w3.org/2000/svg" width="317.467" height="34.293"><path d="m0 0 17.256 9.963M17.256 9.963 34.512 0M34.512 0l17.256 9.963" style="fill:none;stroke:#000;stroke-width:.3985;stroke-linecap:butt;stroke-linejoin:miter;stroke-miterlimit:10;stroke-dasharray:none;stroke-opacity:1" transform="matrix(1.33333 0 0 -1.33333 6.908 25.624)"/><path d="M141.832 2.57z" style="fill:#00adef;fill-opacity:1;fill-rule:nonzero;stroke:none" transform="matrix(1.33333 0 0 -1.33333 6.641 25.624)"/><path d="M62.13 2.57h68.777" style="fill:none;stroke:#000;stroke-width:.79701;stroke-linecap:butt;stroke-linejoin:miter;stroke-miterlimit:10;stroke-dasharray:none;stroke-opacity:1" transform="matrix(1.33333 0 0 -1.33333 6.641 25.624)"/><path d="M0 3.088 3.088 0 0-3.088" style="fill:none;stroke:#000;stroke-width:.79701;stroke-linecap:butt;stroke-linejoin:miter;stroke-miterlimit:10;stroke-dasharray:none;stroke-opacity:1" transform="matrix(1.33333 0 0 -1.33333 177.597 22.197)"/><text xml:space="preserve" style="font-variant:normal;font-weight:400;font-size:9.9626px;font-family:&quot;IBM Plex Sans&quot;;-inkscape-font-specification:IBMPlexSans;writing-mode:lr-tb;fill:#000;fill-opacity:1;fill-rule:nonzero;stroke:none" transform="matrix(1.33333 0 0 1.33333 95.904 16.073)"><tspan x="0 5.97756 11.95512 17.93268 22.595177 28.781952" y="0">450°C,</tspan></text><text xml:space="preserve" style="font-variant:normal;font-size:9.9626px;font-family:&quot;IBM Plex Sans&quot;;-inkscape-font-specification:IBMPlexSans-Identity-H;writing-mode:lr-tb;fill:#000;fill-opacity:1;fill-rule:nonzero;stroke:none" transform="matrix(1.33333 0 0 1.33333 141.028 16.073)"><tspan x="0 6.1867747" y="0">Cr</tspan></text><text xml:space="preserve" style="font-variant:normal;font-size:6.9738px;font-family:&quot;IBM Plex Sans&quot;;-inkscape-font-specification:IBMPlexSans-Identity-H;writing-mode:lr-tb;fill:#000;fill-opacity:1;fill-rule:nonzero;stroke:none" transform="matrix(1.33333 0 0 1.33333 154.152 18.1)"><tspan x="0" y="0">2</tspan></text><text xml:space="preserve" style="font-variant:normal;font-size:9.9626px;font-family:&quot;IBM Plex Sans&quot;;-inkscape-font-specification:IBMPlexSans-Identity-H;writing-mode:lr-tb;fill:#000;fill-opacity:1;fill-rule:nonzero;stroke:none" transform="matrix(1.33333 0 0 1.33333 160.396 16.073)"><tspan x="0" y="0">O</tspan></text><text xml:space="preserve" style="font-variant:normal;font-size:6.9738px;font-family:&quot;IBM Plex Sans&quot;;-inkscape-font-specification:IBMPlexSans-Identity-H;writing-mode:lr-tb;fill:#000;fill-opacity:1;fill-rule:nonzero;stroke:none" transform="matrix(1.33333 0 0 1.33333 169.801 18.1)"><tspan x="0" y="0">3</tspan></text><path d="m0 0 17.256 9.963M17.754 10.826 35.01.863M16.758 9.1 34.014-.863M34.512 0l17.256 9.963" style="fill:none;stroke:#000;stroke-width:.3985;stroke-linecap:butt;stroke-linejoin:miter;stroke-miterlimit:10;stroke-dasharray:none;stroke-opacity:1" transform="matrix(1.33333 0 0 -1.33333 196.017 25.624)"/><text xml:space="preserve" style="font-variant:normal;font-weight:400;font-size:9.9626px;font-family:CMR10;-inkscape-font-specification:CMR10;writing-mode:lr-tb;fill:#000;fill-opacity:1;fill-rule:nonzero;stroke:none" transform="matrix(1.33333 0 0 1.33333 275.083 25.624)"><tspan x="0" y="0">+</tspan></text><text xml:space="preserve" style="font-variant:normal;font-size:9.9626px;font-family:&quot;IBM Plex Sans&quot;;-inkscape-font-specification:IBMPlexSans-Identity-H;writing-mode:lr-tb;fill:#000;fill-opacity:1;fill-rule:nonzero;stroke:none" transform="matrix(1.33333 0 0 1.33333 295.19 25.624)"><tspan x="0" y="0">H</tspan></text><text xml:space="preserve" style="font-variant:normal;font-size:6.9738px;font-family:&quot;IBM Plex Sans&quot;;-inkscape-font-specification:IBMPlexSans-Identity-H;writing-mode:lr-tb;fill:#000;fill-opacity:1;fill-rule:nonzero;stroke:none" transform="matrix(1.33333 0 0 1.33333 304.583 27.65)"><tspan x="0" y="0">2</tspan></text></svg>