<svg xmlns="http://www.w3.org/2000/svg" width="308.373" height="55.427"><path d="m0 0 17.256 9.963M17.256 9.963v19.925M17.256 9.963 34.512 0" style="fill:none;stroke:#000;stroke-width:.3985;stroke-linecap:butt;stroke-linejoin:miter;stroke-miterlimit:10;stroke-dasharray:none;stroke-opacity:1" transform="matrix(1.33333 0 0 -1.33333 6.908 46.757)"/><text xml:space="preserve" style="font-variant:normal;font-weight:400;font-size:9.9626px;font-family:CMR10;-inkscape-font-specification:CMR10;writing-mode:lr-tb;fill:#000;fill-opacity:1;fill-rule:nonzero;stroke:none" transform="matrix(1.33333 0 0 1.33333 62.965 46.757)"><tspan x="0" y="0">+</tspan></text><text xml:space="preserve" style="font-variant:normal;font-size:9.9626px;font-family:&quot;IBM Plex Sans&quot;;-inkscape-font-specification:IBMPlexSans-Identity-H;writing-mode:lr-tb;fill:#000;fill-opacity:1;fill-rule:nonzero;stroke:none" transform="matrix(1.33333 0 0 1.33333 83.073 46.757)"><tspan x="0 6.5055776" y="0">Br</tspan></text><text xml:space="preserve" style="font-variant:normal;font-size:6.9738px;font-family:&quot;IBM Plex Sans&quot;;-inkscape-font-specification:IBMPlexSans-Identity-H;writing-mode:lr-tb;fill:#000;fill-opacity:1;fill-rule:nonzero;stroke:none" transform="matrix(1.33333 0 0 1.33333 96.623 48.784)"><tspan x="0" y="0">2</tspan></text><path d="M141.908 2.57z" style="fill:#00adef;fill-opacity:1;fill-rule:nonzero;stroke:none" transform="matrix(1.33333 0 0 -1.33333 6.641 46.757)"/><path d="M82.132 2.57h48.851" style="fill:none;stroke:#000;stroke-width:.79701;stroke-linecap:butt;stroke-linejoin:miter;stroke-miterlimit:10;stroke-dasharray:none;stroke-opacity:1" transform="matrix(1.33333 0 0 -1.33333 6.641 46.757)"/><path d="M0 3.088 3.088 0 0-3.088" style="fill:none;stroke:#000;stroke-width:.79701;stroke-linecap:butt;stroke-linejoin:miter;stroke-miterlimit:10;stroke-dasharray:none;stroke-opacity:1" transform="matrix(1.33333 0 0 -1.33333 177.7 43.33)"/><text xml:space="preserve" style="font-variant:normal;font-weight:400;font-size:9.9626px;font-family:&quot;IBM Plex Sans&quot;;-inkscape-font-specification:IBMPlexSans;writing-mode:lr-tb;fill:#000;fill-opacity:1;fill-rule:nonzero;stroke:none" transform="matrix(1.33333 0 0 1.33333 123.743 37.579)"><tspan x="0 5.97756 11.95512 16.617617 22.804392" y="0">20°C,</tspan></text><text xml:space="preserve" style="font-variant:normal;font-size:9.9626px;font-family:&quot;IBM Plex Sans&quot;;-inkscape-font-specification:IBMPlexSans-Identity-H;writing-mode:lr-tb;fill:#000;fill-opacity:1;fill-rule:nonzero;stroke:none" transform="matrix(1.33333 0 0 1.33333 160.897 37.579)"><tspan x="0 5.6587567" y="0">hv</tspan></text><path d="m0 0 17.256 9.963M17.256 9.963v19.925" style="fill:none;stroke:#000;stroke-width:.3985;stroke-linecap:butt;stroke-linejoin:miter;stroke-miterlimit:10;stroke-dasharray:none;stroke-opacity:1" transform="matrix(1.33333 0 0 -1.33333 196.119 46.757)"/><text xml:space="preserve" style="font-variant:normal;font-size:9.9626px;font-family:&quot;IBM Plex Sans&quot;;-inkscape-font-specification:IBMPlexSans-Identity-H;writing-mode:lr-tb;fill:#000;fill-opacity:1;fill-rule:nonzero;stroke:none" transform="matrix(1.33333 0 0 1.33333 235.36 24.825)"><tspan x="0 6.5055776" y="0">Br</tspan></text><path d="m17.256 9.963 10.45 6.033M17.256 9.963 34.512 0" style="fill:none;stroke:#000;stroke-width:.3985;stroke-linecap:butt;stroke-linejoin:miter;stroke-miterlimit:10;stroke-dasharray:none;stroke-opacity:1" transform="matrix(1.33333 0 0 -1.33333 196.119 46.757)"/><text xml:space="preserve" style="font-variant:normal;font-weight:400;font-size:9.9626px;font-family:CMR10;-inkscape-font-specification:CMR10;writing-mode:lr-tb;fill:#000;fill-opacity:1;fill-rule:nonzero;stroke:none" transform="matrix(1.33333 0 0 1.33333 258.685 46.757)"><tspan x="0" y="0">+</tspan></text><text xml:space="preserve" style="font-variant:normal;font-size:9.9626px;font-family:&quot;IBM Plex Sans&quot;;-inkscape-font-specification:IBMPlexSans-Identity-H;writing-mode:lr-tb;fill:#000;fill-opacity:1;fill-rule:nonzero;stroke:none" transform="matrix(1.33333 0 0 1.33333 278.793 46.757)"><tspan x="0" y="0">H</tspan></text><text xml:space="preserve" style="font-variant:normal;font-size:9.9626px;font-family:&quot;IBM Plex Sans&quot;;-inkscape-font-specification:IBMPlexSans-Identity-H;writing-mode:lr-tb;fill:#000;fill-opacity:1;fill-rule:nonzero;stroke:none" transform="matrix(1.33333 0 0 1.33333 288.185 46.757)"><tspan x="0 6.5055776" y="0">Br</tspan></text></svg>