<svg width="43" height="32" xmlns="http://www.w3.org/2000/svg"><path stroke="transparent" d="m15.66 19.676.3.52-13.075 7.547-.3-.52 13.075-7.547ZM16.95 21.913l.3.52L4.175 29.98l-.3-.52 13.075-7.548Z" stroke-width=".05"/><path stroke="transparent" d="M28.235 28.255v.694L15.51 21.6l.6-.346 12.125 7.001ZM40.515 21.167l.3.52-12.58 7.262v-.694l12.28-7.088ZM39.225 18.93l.3.52-11.14 6.429-.3-.52 11.14-6.429Z" stroke-width=".05"/><text stroke="transparent" transform="matrix(.05 0 0 .05 12.198 10.688)" style="font:200px&quot;Arial&quot;">
Cl</text><path stroke="transparent" d="M15.51 12.405h.6v8.849l-.6.346v-9.195Z" stroke-width=".05"/></svg>